# File produced by Open Asset Import Library (http://www.assimp.sf.net)
# (assimp v5.3.0)

mtllib cube.mtl

# 8 vertex positions
v -0.995850027 1 -0.996093988
v -0.995850027 1 0.995850027
v 0.996093988 1 0.995850027
v 0.996093988 1 -0.996093988
v -0.995850027 -0.999755979 0.995850027
v 0.996093988 -0.999755979 0.995850027
v -0.995850027 -0.999755979 -0.996093988
v 0.996093988 -0.999755979 -0.996093988

# 1 UV coordinates
vt 0 1 0

# 8 vertex normals
vn -0.333332986 0.666666985 -0.666666985
vn -0.816497028 0.408248007 0.408248007
vn 0.333332986 0.666666985 0.666666985
vn 0.816497028 0.408248007 -0.408248007
vn -0.408248007 -0.408248007 0.816497028
vn 0.666666985 -0.666666985 0.333332986
vn -0.666666985 -0.666666985 -0.333332986
vn 0.408248007 -0.408248007 -0.816497028

# Mesh '' with 12 faces
usemtl material162
f  1/1/1 2/1/2 3/1/3
f  4/1/4 1/1/1 3/1/3
f  5/1/5 6/1/6 3/1/3
f  2/1/2 5/1/5 3/1/3
f  7/1/7 5/1/5 2/1/2
f  1/1/1 7/1/7 2/1/2
f  8/1/8 7/1/7 1/1/1
f  4/1/4 8/1/8 1/1/1
f  6/1/6 8/1/8 4/1/4
f  3/1/3 6/1/6 4/1/4
f  7/1/7 8/1/8 6/1/6
f  5/1/5 7/1/7 6/1/6

