# File produced by Open Asset Import Library (http://www.assimp.sf.net)
# (assimp v5.3.0)

mtllib pasta.mtl

# 226 vertex positions
v 4.7452302 3.09943295 -0.630705416
v 4.6546483 3.7235992 -1.21899831
v 4.6546483 3.7235992 -0.891952157
v 4.78262472 2.84087706 -2.47566449e-16
v 4.77833557 2.87055874 -0.861961961
v 4.7452302 3.09943295 0.630705416
v 4.82933474 2.5171845 -3.38339979e-16
v 4.6546483 3.7235992 0.891952157
v 4.77833557 2.87055874 0.861961961
v 4.56363916 4.34770441 0.630705416
v 4.53016233 4.57652569 0.861961961
v 4.52581644 4.60619926 -9.90265822e-17
v 4.47836447 4.92978573 -1.35335999e-16
v 4.56363916 4.34770441 -0.630705416
v 4.53016233 4.57652569 -0.861961961
v 4.6546483 3.7235992 1.21899831
v 2.22377872 1.72442043 -0.406568736
v 0.0889459252 0.0235800054 -0.406568736
v 2.13771582 1.88368177 -0.740676582
v 2.00372124 2.13149309 -1.00734305
v -0.25800544 0.329779774 -1.00734305
v 1.8417033 2.43088889 -1.16885448
v 1.67690372 2.73515391 -1.21899831
v -0.772967517 0.783684969 -1.21899831
v 3.23046708 3.03214788 -1.16885448
v 3.33754015 2.70900249 -1.00734305
v 3.12150836 3.36057448 -1.21899831
v 3.42605853 2.4415524 -0.740676582
v 3.48289585 2.26967883 -0.406568736
v -2.16926193 -3.57932043 -1.00734305
v -1.76962459 -2.170367 -1.00734305
v -1.89252138 -3.63204312 -0.740676582
v -1.50661635 -2.27132082 -0.740676582
v -1.71470058 -3.66596651 -0.406568736
v -1.33762753 -2.33623481 -0.406568736
v -2.84365273 -3.4512074 -1.21899831
v -2.41061616 -1.92471337 -1.21899831
v -2.50369143 -3.51572418 -1.16885448
v -2.08747983 -2.04848361 -1.16885448
v 2.02236295 2.09702754 0.979494035
v -0.228620574 0.30385837 0.979494035
v 2.15704203 1.84792471 0.684284687
v 2.23608565 1.70164013 0.324217796
v 0.108354427 0.00644198898 0.324217796
v 2.25665236 1.66356742 -0.0393191986
v 3.50460267 2.20400858 -0.0393191986
v 3.49102259 2.24509501 0.324217796
v 3.43882298 2.40296292 0.684284687
v 3.34985709 2.67180467 0.979494035
v -1.68926775 -3.67082143 0.324217796
v -1.31345844 -2.34552193 0.324217796
v -1.85259509 -3.63965678 0.684284687
v -1.46867263 -2.28589296 0.684284687
v -2.13076925 -3.58664846 0.979494035
v -1.73304093 -2.18440366 0.979494035
v -1.64676297 -3.67893696 -0.0393191986
v -1.27306592 -2.36104488 -0.0393191986
v 1.33539164 3.36481094 0.986336172
v -1.31068861 1.25692344 0.986336172
v 1.50534368 3.05161095 1.16463685
v 1.6792717 2.73078394 1.21898818
v -0.769237757 0.780399919 1.21898818
v 3.00802875 3.70218897 1.16463685
v 2.89556217 4.04031467 0.986336172
v 3.12307405 3.35585737 1.21898818
v -2.83876944 -3.45213318 1.21898818
v -2.40597439 -1.92649019 1.21898818
v -3.19733548 -3.38422704 1.16463685
v -2.74681973 -1.79608572 1.16463685
v -3.54747772 -3.31805825 0.986336172
v -3.07968283 -1.66888463 0.986336172
v 1.11877775 3.76358438 -0.341740608
v -1.65154517 1.55652082 -0.341740608
v 1.09545088 3.80649972 0.00958320778
v 1.12168407 3.75823712 0.361928761
v -1.64697289 1.55250406 0.361928761
v 1.20301759 3.60855961 0.706083238
v 2.80792761 4.3034811 0.706083238
v 2.75406814 4.46509075 0.361928761
v 2.73669386 4.5172019 0.00958320778
v 2.75214314 4.4708643 -0.341740608
v -3.98744941 -3.23511291 0.361928761
v -3.4979775 -1.50924563 0.361928761
v -4.04143286 -3.22495103 0.00958320778
v -3.54930377 -1.48967338 0.00958320778
v -3.99343038 -3.23398685 -0.341740608
v -3.50366402 -1.50707698 -0.341740608
v -3.82004547 -3.26664662 0.706083238
v -3.33881664 -1.56996071 0.706083238
v 1.50425231 3.05362296 -1.16392684
v 1.33567262 3.36429334 -0.986763537
v -1.31024647 1.25653458 -0.986763537
v 1.20005989 3.61400366 -0.697282016
v 2.80596924 4.30935907 -0.697282016
v 2.8957479 4.0397563 -0.986763537
v 3.00730681 3.70436096 -1.16392684
v -3.54689908 -3.31816769 -0.986763537
v -3.07913256 -1.66909468 -0.986763537
v -3.19958472 -3.3838017 -1.16392684
v -2.74895763 -1.79526818 -1.16392684
v -3.82613373 -3.26549911 -0.697282016
v -3.34460497 -1.567752 -0.697282016
v -3.86095977 -5.0214591 -0.861961961
v -2.99902916 -5.02891254 -1.21899831
v -4.21798563 -5.01860857 -1.35335999e-16
v -3.86095977 -5.0214591 0.861961961
v -2.99902916 -5.02891254 1.21899831
v -2.13710809 -5.03717232 0.861961961
v -1.7800914 -5.04083014 -3.38339979e-16
v -2.13710809 -5.03717232 -0.861961961
v -2.36835265 -5.0348773 -0.630705416
v -2.10711932 -5.03747463 -2.47566449e-16
v -2.36835265 -5.0348773 0.630705416
v -2.99902916 -5.02891254 0.891952157
v -3.62971067 -5.0233798 0.630705416
v -3.89094901 -5.02121449 -9.90265822e-17
v -3.62971067 -5.0233798 -0.630705416
v -2.99902916 -5.02891254 -0.891952157
v -1.97720039 -3.14610767 -0.430089265
v -1.30227554 -1.36156785 -0.430089265
v -2.11975002 -3.11047888 -0.626913071
v -2.30915689 -3.06317568 -0.77629739
v -1.60579181 -1.20360982 -0.77629739
v -2.52257562 -3.00992703 -0.864575624
v -2.73535442 -2.95689201 -0.891952157
v -1.99551988 -1.00099504 -0.891952157
v -2.71064925 -4.01316786 -0.864575624
v -2.49245906 -4.04102612 -0.77629739
v -2.92817879 -3.98544669 -0.891952157
v -2.29881263 -4.06579494 -0.626913071
v -2.15306854 -4.08446455 -0.430089265
v 0.813894331 2.20206261 -0.891952157
v 1.0654515 1.8419795 -0.77629739
v 1.2612859 1.56140554 -0.430089265
v 3.74669051 3.08934164 -0.77629739
v 2.80591369 2.77853274 -0.77629739
v 3.79692984 2.90069246 -0.626913071
v 2.87772107 2.59699416 -0.626913071
v 3.83471584 2.75869918 -0.430089265
v 2.931741 2.46034956 -0.430089265
v 3.63350701 3.51375914 -0.891952157
v 2.64420867 3.18693471 -0.891952157
v 3.69003749 3.30188203 -0.864575624
v 2.72496176 2.98305583 -0.864575624
v -1.20433497 -1.41256928 0.0144850845
v -1.87007546 -3.17289853 0.0144850845
v -1.31697154 -1.35391629 0.458907634
v -1.99327433 -3.14208889 0.458907634
v -1.89355147 -3.16702628 -0.206852511
v -2.06754398 -4.09543085 -0.206852511
v -2.04354143 -4.09851027 0.0144850845
v 1.32446468 1.47084117 0.0144850845
v 1.25180519 1.57499373 0.458907634
v 3.856879 2.67537165 -0.206852511
v 2.96343112 2.38015962 -0.206852511
v 3.86309767 2.65198493 0.0144850845
v 2.97232366 2.35765338 0.0144850845
v 2.9256506 2.47575855 0.458907634
v -1.61866438 -1.19691372 0.784330487
v -2.32323503 -3.05966163 0.784330487
v -1.99551988 -1.00099504 0.891952157
v -2.73535442 -2.95689201 0.891952157
v -2.13729692 -3.10609484 0.644704282
v -2.31675243 -4.06349897 0.644704282
v -2.50685215 -4.03918695 0.784330487
v -2.16950274 -4.08235836 0.458907634
v 1.0571444 1.85387635 0.784330487
v 0.813894331 2.20206261 0.891952157
v 3.74295497 3.1033628 0.784330487
v 2.80057526 2.79202485 0.784330487
v 3.68807411 3.30924463 0.866472661
v 2.72215652 2.99014068 0.866472661
v 3.63350701 3.51375914 0.891952157
v 2.64420867 3.18693471 0.891952157
v 3.83045602 2.77471113 0.458907634
v 3.7922771 2.91816998 0.644704282
v 2.87107015 2.61381316 0.644704282
v -3.4936707 -2.76831937 0.430089265
v -2.68907142 -0.641010106 0.430089265
v -3.35106564 -2.80372906 0.626913071
v -3.16160345 -2.85081124 0.77629739
v -2.38534498 -0.798566043 0.77629739
v -2.94814634 -2.90390754 0.864575624
v -3.14571524 -3.95777726 0.864575624
v -3.36392546 -3.93007493 0.77629739
v -2.92817879 -3.98544669 0.891952157
v -3.55760145 -3.90553188 0.626913071
v -3.70337439 -3.88708639 0.430089265
v 0.562165141 2.56202579 0.77629739
v 0.365958303 2.84234071 0.430089265
v 3.5201211 3.93812323 0.77629739
v 2.48230839 3.5952599 0.77629739
v 3.46966171 4.12671423 0.626913071
v 2.41028929 3.77671504 0.626913071
v 3.43165708 4.26864958 0.430089265
v 2.35605907 3.91327667 0.430089265
v -2.78710485 -0.590186536 -0.0144850845
v -3.60084438 -2.7417233 -0.0144850845
v -2.67436242 -0.648636997 -0.458907634
v -3.47758985 -2.77231097 -0.458907634
v -3.57735705 -2.74755073 0.206852511
v -3.78891873 -3.87627316 0.206852511
v -3.81292725 -3.87323976 -0.0144850845
v 0.302614689 2.93279076 -0.0144850845
v 0.375461847 2.82876849 -0.458907634
v 3.40934467 4.35193777 0.206852511
v 2.32422543 3.99341035 0.206852511
v 3.40308118 4.37531281 -0.0144850845
v 2.31528974 4.01589966 -0.0144850845
v 2.36217523 3.89787817 -0.458907634
v -2.94075179 -2.90574765 -0.866472661
v -3.14752197 -2.85431242 -0.784330487
v -2.37246609 -0.805250108 -0.784330487
v -3.33351278 -2.80808926 -0.644704282
v -3.53965831 -3.90780377 -0.644704282
v -3.3495307 -3.93190074 -0.784330487
v -3.68693662 -3.88916516 -0.458907634
v -3.13815594 -3.95873785 -0.866472661
v 0.570483446 2.5501368 -0.784330487
v 3.52386975 3.92410564 -0.784330487
v 2.48765969 3.58177257 -0.784330487
v 3.57889318 3.71826148 -0.866472661
v 2.56621528 3.38371086 -0.866472661
v 3.43594384 4.25264502 -0.458907634
v 3.47433805 4.10924292 -0.644704282
v 2.4169631 3.7599051 -0.644704282

# 223 UV coordinates
vt 0.125 0 0
vt 0 1 0
vt 0 0 0
vt 0.25 0 0
vt 0.125 1 0
vt 0.375 0 0
vt 0.25 1 0
vt 0.5 0 0
vt 0.375 1 0
vt 0.625 0 0
vt 0.625 1 0
vt 0.75 0 0
vt 0.75 1 0
vt 0.875 0 0
vt 0.875 1 0
vt 1 0 0
vt 1 1 0
vt 0.5 1 0
vt 0.193332195 0.248460233 0
vt 0.193332195 0.496920466 0
vt 0.144999146 0.248460233 0
vt 0.0966660976 0.248460233 0
vt 0.0966660976 0.496920466 0
vt 0.0483330488 0.248460233 0
vt 0 0.248460233 0
vt 0 0.496920466 0
vt 0.0483330488 0.124230146 0
vt 0.0966660976 0.124230146 0
vt 0 0.124230146 0
vt 0.144999146 0.124230146 0
vt 0.193332195 0.124230146 0
vt 0.0966660976 0.874230087 0
vt 0.0966660976 0.748460233 0
vt 0.144999146 0.874230087 0
vt 0.144999146 0.748460233 0
vt 0.193332195 0.874230087 0
vt 0.193332195 0.748460233 0
vt 0 0.874230087 0
vt 0 0.748460233 0
vt 0.0483330488 0.874230087 0
vt 0.0483330488 0.748460233 0
vt 0.397340924 0.248460233 0
vt 0.397340924 0.496920466 0
vt 0.346338749 0.248460233 0
vt 0.295336574 0.248460233 0
vt 0.295336574 0.496920466 0
vt 0.244334385 0.248460233 0
vt 0.244334385 0.124230146 0
vt 0.295336574 0.124230146 0
vt 0.346338749 0.124230146 0
vt 0.397340924 0.124230146 0
vt 0.295336574 0.874230087 0
vt 0.295336574 0.748460233 0
vt 0.346338749 0.874230087 0
vt 0.346338749 0.748460233 0
vt 0.397340924 0.874230087 0
vt 0.397340924 0.748460233 0
vt 0.244334385 0.874230087 0
vt 0.244334385 0.748460233 0
vt 0.60121876 0.248460233 0
vt 0.60121876 0.496920466 0
vt 0.550249279 0.248460233 0
vt 0.499279857 0.248460233 0
vt 0.499279857 0.496920466 0
vt 0.550249279 0.124230146 0
vt 0.60121876 0.124230146 0
vt 0.499279857 0.124230146 0
vt 0.499279857 0.874230087 0
vt 0.499279857 0.748460233 0
vt 0.550249279 0.874230087 0
vt 0.550249279 0.748460233 0
vt 0.60121876 0.874230087 0
vt 0.60121876 0.748460233 0
vt 0.797743738 0.248460233 0
vt 0.797743738 0.496920466 0
vt 0.748612523 0.248460233 0
vt 0.699481249 0.248460233 0
vt 0.699481249 0.496920466 0
vt 0.650349975 0.248460233 0
vt 0.650349975 0.124230146 0
vt 0.699481249 0.124230146 0
vt 0.748612523 0.124230146 0
vt 0.797743738 0.124230146 0
vt 0.699481249 0.874230087 0
vt 0.699481249 0.748460233 0
vt 0.748612523 0.874230087 0
vt 0.748612523 0.748460233 0
vt 0.797743738 0.874230087 0
vt 0.797743738 0.748460233 0
vt 0.650349975 0.874230087 0
vt 0.650349975 0.748460233 0
vt 1 0.248460233 0
vt 1 0.496920466 0
vt 0.949435949 0.248460233 0
vt 0.898871899 0.248460233 0
vt 0.898871899 0.496920466 0
vt 0.848307788 0.248460233 0
vt 0.848307788 0.124230146 0
vt 0.898871899 0.124230146 0
vt 0.949435949 0.124230146 0
vt 1 0.124230146 0
vt 0.898871899 0.874230087 0
vt 0.898871899 0.748460233 0
vt 0.949435949 0.874230087 0
vt 0.949435949 0.748460233 0
vt 1 0.874230087 0
vt 1 0.748460233 0
vt 0.848307788 0.874230087 0
vt 0.848307788 0.748460233 0
vt 0.167872757 0.165844738 0
vt 0.167872757 0.331689477 0
vt 0.12590456 0.165844738 0
vt 0.0839363784 0.165844738 0
vt 0.0839363784 0.331689477 0
vt 0.0419681892 0.165844738 0
vt 0 0.165844738 0
vt 0 0.331689477 0
vt 0.0419681892 0.0829223394 0
vt 0.0839363784 0.0829223394 0
vt 0 0.0829223394 0
vt 0.12590456 0.0829223394 0
vt 0.167872757 0.0829223394 0
vt 0 0.671491027 0
vt 0.0839363784 0.671491027 0
vt 0.167872757 0.671491027 0
vt 0.0839363784 0.917872727 0
vt 0.0839363784 0.835745513 0
vt 0.12590456 0.917872727 0
vt 0.12590456 0.835745513 0
vt 0.167872757 0.917872727 0
vt 0.167872757 0.835745513 0
vt 0 0.917872727 0
vt 0 0.835745513 0
vt 0.0419681892 0.917872727 0
vt 0.0419681892 0.835745513 0
vt 0.252861381 0.331689477 0
vt 0.252861381 0.165844738 0
vt 0.337850004 0.331689477 0
vt 0.337850004 0.165844738 0
vt 0.210367069 0.165844738 0
vt 0.210367069 0.0829223394 0
vt 0.252861381 0.0829223394 0
vt 0.252861381 0.671491027 0
vt 0.337850004 0.671491027 0
vt 0.210367069 0.917872727 0
vt 0.210367069 0.835745513 0
vt 0.252861381 0.917872727 0
vt 0.252861381 0.835745513 0
vt 0.337850004 0.835745513 0
vt 0.418924987 0.331689477 0
vt 0.418924987 0.165844738 0
vt 0.5 0.331689477 0
vt 0.5 0.165844738 0
vt 0.378387511 0.165844738 0
vt 0.378387511 0.0829223394 0
vt 0.418924987 0.0829223394 0
vt 0.337850004 0.0829223394 0
vt 0.418924987 0.671491027 0
vt 0.5 0.671491027 0
vt 0.418924987 0.917872727 0
vt 0.418924987 0.835745513 0
vt 0.459462494 0.917872727 0
vt 0.459462494 0.835745513 0
vt 0.5 0.917872727 0
vt 0.5 0.835745513 0
vt 0.337850004 0.917872727 0
vt 0.378387511 0.917872727 0
vt 0.378387511 0.835745513 0
vt 0.667872727 0.165844738 0
vt 0.667872727 0.331689477 0
vt 0.62590456 0.165844738 0
vt 0.583936393 0.165844738 0
vt 0.583936393 0.331689477 0
vt 0.541968167 0.165844738 0
vt 0.541968167 0.0829223394 0
vt 0.583936393 0.0829223394 0
vt 0.5 0.0829223394 0
vt 0.62590456 0.0829223394 0
vt 0.667872727 0.0829223394 0
vt 0.583936393 0.671491027 0
vt 0.667872727 0.671491027 0
vt 0.583936393 0.917872727 0
vt 0.583936393 0.835745513 0
vt 0.62590456 0.917872727 0
vt 0.62590456 0.835745513 0
vt 0.667872727 0.917872727 0
vt 0.667872727 0.835745513 0
vt 0.752861381 0.331689477 0
vt 0.752861381 0.165844738 0
vt 0.837849975 0.331689477 0
vt 0.837849975 0.165844738 0
vt 0.710367084 0.165844738 0
vt 0.710367084 0.0829223394 0
vt 0.752861381 0.0829223394 0
vt 0.752861381 0.671491027 0
vt 0.837849975 0.671491027 0
vt 0.710367084 0.917872727 0
vt 0.710367084 0.835745513 0
vt 0.752861381 0.917872727 0
vt 0.752861381 0.835745513 0
vt 0.837849975 0.835745513 0
vt 1 0.165844738 0
vt 1 0.331689477 0
vt 0.959462523 0.165844738 0
vt 0.918924987 0.165844738 0
vt 0.918924987 0.331689477 0
vt 0.878387511 0.165844738 0
vt 0.878387511 0.0829223394 0
vt 0.918924987 0.0829223394 0
vt 0.837849975 0.0829223394 0
vt 0.959462523 0.0829223394 0
vt 1 0.0829223394 0
vt 0.918924987 0.671491027 0
vt 1 0.671491027 0
vt 0.918924987 0.917872727 0
vt 0.918924987 0.835745513 0
vt 0.959462523 0.917872727 0
vt 0.959462523 0.835745513 0
vt 1 0.917872727 0
vt 1 0.835745513 0
vt 0.837849975 0.917872727 0
vt 0.878387511 0.917872727 0
vt 0.878387511 0.835745513 0

# 260 vertex normals
vn 0.989632905 0.143620104 0
vn 0.989700973 0.143150091 4.59103057e-06
vn 0.989748061 0.142824233 0.000131771842
vn 0.989652634 0.143483758 0.000332577794
vn 0.98951453 0.144432858 0.000330821727
vn 0.989418149 0.145092115 0.000131727764
vn 0.989466012 0.144765243 5.1184802e-06
vn 0.989534378 0.144297257 -1.3121408e-08
vn 0.989516258 0.144421473 3.80869913e-08
vn 0.485142857 -0.807890594 -0.33458814
vn 0.707114637 -0.621392608 -0.33743161
vn 0.423392922 -0.671835184 -0.607762992
vn 0.291162699 -0.484485418 -0.824923098
vn 0.425693423 -0.374137402 -0.823897004
vn 0.154144451 -0.247867942 -0.95645231
vn 0.0739761591 -0.123028353 -0.989642143
vn 0.164934993 -0.144996464 -0.975588322
vn 0.109562546 -0.290348858 -0.950627983
vn 0.18497622 -0.533792436 -0.825136006
vn 0.0451857261 -0.136107177 -0.989663124
vn 0.253433883 -0.75165087 -0.608927071
vn 0.298637688 -0.89030534 -0.343761444
vn 0.553660929 -0.112335019 -0.825130522
vn 0.518226206 -0.225606665 -0.824950457
vn 0.778690159 -0.151217014 -0.608912945
vn 0.721126735 -0.3325876 -0.607751369
vn 0.92217046 -0.177243307 -0.343782514
vn 0.864201486 -0.37573877 -0.334628433
vn 0.14090623 -0.0267033223 -0.989662766
vn 0.131604075 -0.0573426001 -0.989642501
vn 0.302365035 -0.0698085204 -0.950632513
vn 0.265767783 -0.120713845 -0.956449509
vn 0.275125384 -0.457807988 0.84540987
vn 0.483510375 -0.424924195 0.765282393
vn 0.440578461 -0.699645877 0.562482297
vn 0.495403767 -0.825002849 0.271929234
vn 0.721989989 -0.634463787 0.276018411
vn 0.533748627 -0.844958067 -0.0340343714
vn 0.315241188 -0.948407352 -0.0338590406
vn 0.304367602 -0.906008303 0.294124693
vn 0.267411143 -0.781667233 0.56346041
vn 0.157999918 -0.479903281 0.86297673
vn 0.938501716 -0.180819675 0.294140667
vn 0.882511914 -0.383668363 0.271976769
vn 0.810303688 -0.161040857 0.563448071
vn 0.750938356 -0.346002936 0.562470973
vn 0.49666363 -0.0926771387 0.862981021
vn 0.489704788 -0.21317251 0.845426977
vn 0.981921852 -0.186232507 -0.0338675343
vn 0.90714401 -0.419442534 -0.0340253711
vn -0.302396625 0.503222764 0.809520304
vn -0.44136408 0.387774915 0.809214652
vn -0.165652975 0.252507001 0.953309655
vn 0.0445088744 -0.0740394294 0.996261537
vn -0.0361853093 0.0317582302 0.998840332
vn -0.0779057518 0.307046443 0.948500454
vn -0.180756345 0.558409035 0.809633553
vn 0.0273381174 -0.0819129348 0.996264458
vn 0.0848202631 -0.0162055101 0.996264458
vn 0.0791951492 -0.0344910622 0.996262252
vn -0.314646244 0.0364331044 0.948509514
vn -0.271905988 0.131461039 0.953302264
vn -0.577453315 0.104962267 0.809648454
vn -0.538334668 0.234358832 0.809488595
vn -0.492959142 0.820975661 -0.288080156
vn -0.718146265 0.630974352 -0.293491691
vn -0.539934814 0.841665685 0.00832276046
vn -0.490712732 0.81723696 0.302199811
vn -0.715030074 0.62823838 0.306673378
vn -0.4406268 0.684330761 0.580981374
vn -0.251914918 0.77383703 0.581132591
vn -0.267864883 0.909074366 0.319111496
vn -0.315128893 0.949012995 0.00825843867
vn -0.269072711 0.912589252 -0.307864726
vn -0.936631858 0.144507274 0.319121301
vn -0.87419641 0.380103052 0.302162677
vn -0.982493758 0.186112836 0.00825148635
vn -0.904691219 0.425986499 0.0083280243
vn -0.940274537 0.145230338 -0.307882935
vn -0.878201127 0.381836474 -0.288034081
vn -0.80043602 0.146842137 0.581153631
vn -0.735792041 0.348008841 0.580947459
vn -0.077523753 0.128929675 -0.988618851
vn -0.172963366 0.151932031 -0.973139465
vn -0.166554406 0.254023969 -0.952749431
vn -0.303399503 0.504880726 -0.808111489
vn -0.443604499 0.389742196 -0.807041585
vn -0.443445325 0.688354611 -0.574041963
vn -0.252996206 0.778691173 -0.574136734
vn -0.181491762 0.560202718 -0.808228731
vn -0.0782344639 0.308402836 -0.948033273
vn -0.0473545827 0.142640755 -0.988641083
vn -0.579338312 0.105447404 -0.808237553
vn -0.540104151 0.235128403 -0.808085442
vn -0.316041112 0.036579363 -0.948040068
vn -0.273521453 0.132154748 -0.952744007
vn -0.147667512 0.0279847179 -0.988641083
vn -0.137924001 0.0600966848 -0.988617897
vn -0.805391848 0.147262603 -0.574158251
vn -0.740151465 0.350270987 -0.574008703
vn 0.196590289 -0.669142127 -0.716659665
vn 0.0895454139 -0.254271477 -0.962978542
vn 0.26265496 -0.964733303 -0.0173765477
vn 0.211073667 -0.744457722 0.63342768
vn 0.0345292352 -0.0395108648 0.998622358
vn -0.132953569 0.696927786 0.704709172
vn -0.205650166 0.978616297 0.00425250409
vn -0.133331299 0.699450076 -0.702134192
vn -0.0353112556 0.266135514 -0.963288605
vn -0.710986793 0.0385999046 -0.702145219
vn -0.268454015 -0.000480219984 -0.96329236
vn -0.997340202 0.0727626979 0.00425340049
vn -0.708436608 0.0385623947 0.704720199
vn 0.0438020416 -0.0287702736 0.998625934
vn 0.766079485 -0.1091813 0.633404851
vn 0.991269529 -0.130701855 -0.017373329
vn 0.689504802 -0.104911409 -0.716642678
vn 0.263992161 -0.0545058325 -0.962983489
vn -0.00968259387 -0.999953091 0.000241560934
vn -0.0102600604 -0.999947369 6.25054599e-06
vn -0.0100181121 -0.999949813 9.39730162e-05
vn -0.00906477682 -0.999958932 -0.000120771598
vn -0.00958254188 -0.999954104 7.52356233e-10
vn -0.0085470099 -0.999963462 -0.000241543938
vn -0.00796801317 -0.999968231 -6.56062457e-06
vn -0.00821127649 -0.999966264 -9.42055194e-05
vn -0.00864705723 -0.999962628 -9.59172408e-10
vn -0.00945728831 -0.999955297 2.63526395e-10
vn -0.842728674 0.236393556 0.483659446
vn -0.776866794 0.397689313 0.488181531
vn -0.682947934 0.20117864 0.70221734
vn -0.476320386 0.133683875 0.869049788
vn -0.443929136 0.225484222 0.867227674
vn -0.242055207 0.06968835 0.967756569
vn -0.119320586 0.0334983282 0.992290497
vn -0.187109277 0.0984460488 0.977393746
vn -0.273658723 0.0552055389 0.960241258
vn -0.488535643 0.0786849931 0.868988812
vn -0.122891359 0.0156364031 0.992296934
vn -0.70559442 0.0897625461 0.702907681
vn -0.877339244 0.125134364 0.463268042
vn -0.122111119 0.172595531 0.977394342
vn -0.281802982 0.410525709 0.867211461
vn -0.496236771 0.717938483 0.488173515
vn -0.143462136 0.473584324 0.868985891
vn -0.195636243 0.454418302 0.869040012
vn -0.183479592 0.687200129 0.702916265
vn -0.289796829 0.650309384 0.70222187
vn -0.24173139 0.85261935 0.463256121
vn -0.346045494 0.80395925 0.483634233
vn -0.0319518857 0.119689181 0.992297113
vn -0.0490127131 0.113831192 0.992290378
vn -0.0914755911 0.263777584 0.960236251
vn -0.101089135 0.23070766 0.967757702
vn -0.877256572 0.479945064 0.00858234242
vn -0.959401309 0.269060314 -0.0845913514
vn -0.737436652 0.405412138 -0.54021126
vn -0.855716348 0.240027189 -0.458406448
vn -0.9314996 0.275898814 0.237040773
vn -0.962070704 0.135917485 0.236529768
vn -0.988376558 0.126289248 -0.0846334323
vn -0.590917945 0.806685925 0.00859249663
vn -0.49865672 0.677875996 -0.540208817
vn -0.263664901 0.935167372 0.236522228
vn -0.396809518 0.886764884 0.237044692
vn -0.257622004 0.962531567 -0.0846403763
vn -0.393913507 0.915246248 -0.0845953748
vn -0.35137549 0.816347659 -0.458379507
vn -0.445828974 0.239011765 -0.862618089
vn -0.409173578 0.114838004 -0.905201197
vn 0.0258606635 -0.0135055315 -0.999574363
vn -0.0596426874 0.0167416483 -0.99807936
vn -0.663676739 0.195645422 -0.721980691
vn -0.685639918 0.087332651 -0.722683132
vn -0.413201928 0.0614383072 -0.908564568
vn -0.889250815 0.114690736 -0.442808062
vn -0.272886366 0.397040904 -0.876294255
vn -0.00712754112 0.0204757713 -0.999764919
vn -0.137142792 0.440172255 -0.887378275
vn -0.189208195 0.439482898 -0.878097415
vn -0.0745179728 0.229995981 -0.97033447
vn -0.0976261497 0.222548217 -0.970021367
vn 0.0177369285 -0.0664417371 -0.997632623
vn 0.0272001456 -0.0631762818 -0.997631669
vn -0.232953012 0.865826905 -0.44280535
vn -0.178403035 0.667752266 -0.722688913
vn -0.28176409 0.631937683 -0.721985936
vn 0.842732728 -0.236412048 -0.483643293
vn 0.772020578 -0.407056928 -0.488148481
vn 0.680495739 -0.207241565 -0.702834666
vn 0.476328373 -0.13369216 -0.869044125
vn 0.439206302 -0.234791487 -0.867162466
vn 0.239493191 -0.0747658461 -0.968015015
vn 0.277160674 -0.00805974659 -0.9607898
vn 0.492465317 -0.0483478941 -0.868988156
vn -0.0614378601 0.00781708118 -0.998080313
vn 0.705575407 -0.0897565112 -0.70292753
vn 0.882020414 -0.0807386264 -0.464242727
vn 0.310666054 -0.420575321 -0.852410138
vn 0.504926383 -0.711872041 -0.48814705
vn 0.0949709937 -0.416717291 -0.904061496
vn 0.17389147 -0.40391925 -0.898115218
vn 0.183459222 -0.687201619 -0.702920079
vn 0.295501649 -0.64705801 -0.70284754
vn 0.198204771 -0.863253117 -0.464229435
vn 0.346028328 -0.803946197 -0.483668238
vn 0.874388576 -0.485147715 -0.00873756222
vn 0.959393442 -0.269080549 0.0846157148
vn 0.734359503 -0.41090557 0.540252447
vn 0.855718553 -0.240047187 0.458391815
vn 0.92977941 -0.281427175 -0.23729521
vn 0.96521306 -0.111754976 -0.236378238
vn 0.988509655 -0.125253633 0.0846178904
vn 0.595708787 -0.803153038 -0.00873282459
vn 0.503726363 -0.674098134 0.540232778
vn 0.240033507 -0.941548347 -0.236369789
vn 0.402065009 -0.884325325 -0.237302467
vn 0.256572753 -0.962814331 0.0846108124
vn 0.393900275 -0.915250361 0.0846133158
vn 0.351358503 -0.816334605 0.458415747
vn 0.115112849 -0.0323172249 0.992826581
vn 0.176345885 -0.102897428 0.978935301
vn 0.231127739 -0.072050266 0.970251918
vn 0.460677266 -0.129299492 0.878099144
vn 0.424996585 -0.227070227 0.876251698
vn 0.661356986 -0.201295093 0.722556055
vn 0.685662985 -0.0871304646 0.722685695
vn 0.45800218 -0.0313554816 0.888397932
vn 0.891479373 -0.0915413797 0.443717003
vn 0.241022483 -0.0179669894 0.970353186
vn 0.11855568 -0.0150847565 0.99283278
vn 0.280899167 -0.391482592 0.876263082
vn 0.125163198 -0.161321282 0.978932858
vn 0.0923853889 -0.449701816 0.888388038
vn 0.189198434 -0.439468741 0.878106594
vn 0.0500423089 -0.236463338 0.970350921
vn 0.102013767 -0.21955058 0.970252931
vn 0.030824963 -0.115467675 0.992832839
vn 0.0472832657 -0.10981483 0.99282676
vn 0.210215136 -0.871167481 0.443708062
vn 0.178191572 -0.667817652 0.722680628
vn 0.287074745 -0.628875852 0.722567081
vn 0.112563193 -0.689902246 0.715097487
vn 0.0227826685 -0.290917456 0.956476867
vn 0.169343159 -0.984717607 -0.0406717397
vn 0.114243567 -0.700103104 -0.704843223
vn -0.0446541496 0.0398186706 -0.998208642
vn -0.172720566 0.679009616 -0.713521898
vn -0.238903001 0.970178723 0.0409701988
vn -0.1693196 0.627220511 0.760213971
vn -0.0802043453 0.246158168 0.965905547
vn -0.644305527 0.08328785 0.760219395
vn -0.254705876 0.0462801233 0.965910435
vn -0.993514121 0.106069781 0.0409751162
vn -0.696087122 0.0797105208 -0.713518679
vn -0.0313321389 0.0331227183 -0.998960018
vn 0.649161041 -0.00904631149 -0.760597229
vn 0.998543561 -0.0354392789 -0.0406788848
vn 0.698758662 -0.0188434254 0.715109289
vn 0.29132098 0.0164212678 0.956484437

# Mesh '' with 452 faces
usemtl material0
f  1/1/1 2/2/1 3/3/1
f  4/4/2 5/5/2 1/1/1
f  6/6/3 7/7/3 4/4/2
f  8/8/4 9/9/4 6/6/3
f  10/10/5 11/11/5 8/8/4
f  12/12/6 13/13/6 10/10/5
f  14/14/7 15/15/7 12/12/6
f  3/16/8 2/17/8 14/14/7
f  15/15/7 14/14/7 2/17/8
f  13/13/6 12/12/6 15/15/7
f  11/11/5 10/10/5 13/13/6
f  16/18/9 8/8/4 11/11/5
f  9/9/4 8/8/4 16/18/9
f  7/7/3 6/6/3 9/9/4
f  5/5/2 4/4/2 7/7/3
f  2/2/1 1/1/1 5/5/2
f  17/19/10 18/20/11 19/21/12
f  20/22/13 19/21/12 21/23/14
f  21/23/14 19/21/12 18/20/11
f  20/22/13 21/23/14 22/24/15
f  23/25/16 22/24/15 24/26/17
f  24/26/17 22/24/15 21/23/14
f  22/24/15 25/27/18 20/22/13
f  25/27/18 26/28/19 20/22/13
f  23/25/16 27/29/20 22/24/15
f  27/29/20 25/27/18 22/24/15
f  19/21/12 28/30/21 17/19/10
f  28/30/21 29/31/22 17/19/10
f  20/22/13 26/28/19 19/21/12
f  26/28/19 28/30/21 19/21/12
f  30/32/23 31/33/24 32/34/25
f  31/33/24 33/35/26 32/34/25
f  32/34/25 33/35/26 34/36/27
f  33/35/26 35/37/28 34/36/27
f  36/38/29 37/39/30 38/40/31
f  37/39/30 39/41/32 38/40/31
f  38/40/31 39/41/32 30/32/23
f  39/41/32 31/33/24 30/32/23
f  37/39/30 24/26/17 39/41/32
f  31/33/24 39/41/32 21/23/14
f  21/23/14 39/41/32 24/26/17
f  31/33/24 21/23/14 33/35/26
f  35/37/28 33/35/26 18/20/11
f  18/20/11 33/35/26 21/23/14
f  40/42/33 41/43/34 42/44/35
f  43/45/36 42/44/35 44/46/37
f  44/46/37 42/44/35 41/43/34
f  43/45/36 44/46/37 45/47/38
f  17/19/10 45/47/38 18/20/11
f  18/20/11 45/47/38 44/46/37
f  45/47/38 46/48/39 43/45/36
f  46/48/39 47/49/40 43/45/36
f  17/19/10 29/31/22 45/47/38
f  29/31/22 46/48/39 45/47/38
f  42/44/35 48/50/41 40/42/33
f  48/50/41 49/51/42 40/42/33
f  43/45/36 47/49/40 42/44/35
f  47/49/40 48/50/41 42/44/35
f  50/52/43 51/53/44 52/54/45
f  51/53/44 53/55/46 52/54/45
f  52/54/45 53/55/46 54/56/47
f  53/55/46 55/57/48 54/56/47
f  34/36/27 35/37/28 56/58/49
f  35/37/28 57/59/50 56/58/49
f  56/58/49 57/59/50 50/52/43
f  57/59/50 51/53/44 50/52/43
f  35/37/28 18/20/11 57/59/50
f  51/53/44 57/59/50 44/46/37
f  44/46/37 57/59/50 18/20/11
f  51/53/44 44/46/37 53/55/46
f  55/57/48 53/55/46 41/43/34
f  41/43/34 53/55/46 44/46/37
f  58/60/51 59/61/52 60/62/53
f  61/63/54 60/62/53 62/64/55
f  62/64/55 60/62/53 59/61/52
f  41/43/34 40/42/33 62/64/55
f  40/42/33 61/63/54 62/64/55
f  60/62/53 63/65/56 58/60/51
f  63/65/56 64/66/57 58/60/51
f  61/63/54 65/67/58 60/62/53
f  65/67/58 63/65/56 60/62/53
f  66/68/59 67/69/60 68/70/61
f  67/69/60 69/71/62 68/70/61
f  68/70/61 69/71/62 70/72/63
f  69/71/62 71/73/64 70/72/63
f  55/57/48 41/43/34 67/69/60
f  41/43/34 62/64/55 67/69/60
f  67/69/60 62/64/55 69/71/62
f  71/73/64 69/71/62 59/61/52
f  59/61/52 69/71/62 62/64/55
f  72/74/65 73/75/66 74/76/67
f  75/77/68 74/76/67 76/78/69
f  76/78/69 74/76/67 73/75/66
f  75/77/68 76/78/69 77/79/70
f  58/60/51 77/79/70 59/61/52
f  59/61/52 77/79/70 76/78/69
f  77/79/70 78/80/71 75/77/68
f  78/80/71 79/81/72 75/77/68
f  58/60/51 64/66/57 77/79/70
f  64/66/57 78/80/71 77/79/70
f  74/76/67 80/82/73 72/74/65
f  80/82/73 81/83/74 72/74/65
f  75/77/68 79/81/72 74/76/67
f  79/81/72 80/82/73 74/76/67
f  82/84/75 83/85/76 84/86/77
f  83/85/76 85/87/78 84/86/77
f  84/86/77 85/87/78 86/88/79
f  85/87/78 87/89/80 86/88/79
f  70/72/63 71/73/64 88/90/81
f  71/73/64 89/91/82 88/90/81
f  88/90/81 89/91/82 82/84/75
f  89/91/82 83/85/76 82/84/75
f  71/73/64 59/61/52 89/91/82
f  83/85/76 89/91/82 76/78/69
f  76/78/69 89/91/82 59/61/52
f  83/85/76 76/78/69 85/87/78
f  87/89/80 85/87/78 73/75/66
f  73/75/66 85/87/78 76/78/69
f  23/92/83 24/93/84 90/94/85
f  91/95/86 90/94/85 92/96/87
f  92/96/87 90/94/85 24/93/84
f  91/95/86 92/96/87 93/97/88
f  72/74/65 93/97/88 73/75/66
f  73/75/66 93/97/88 92/96/87
f  93/97/88 94/98/89 91/95/86
f  94/98/89 95/99/90 91/95/86
f  72/74/65 81/83/74 93/97/88
f  81/83/74 94/98/89 93/97/88
f  90/94/85 96/100/91 23/92/83
f  96/100/91 27/101/92 23/92/83
f  91/95/86 95/99/90 90/94/85
f  95/99/90 96/100/91 90/94/85
f  97/102/93 98/103/94 99/104/95
f  98/103/94 100/105/96 99/104/95
f  99/104/95 100/105/96 36/106/97
f  100/105/96 37/107/98 36/106/97
f  86/88/79 87/89/80 101/108/99
f  87/89/80 102/109/100 101/108/99
f  101/108/99 102/109/100 97/102/93
f  102/109/100 98/103/94 97/102/93
f  87/89/80 73/75/66 102/109/100
f  98/103/94 102/109/100 92/96/87
f  92/96/87 102/109/100 73/75/66
f  98/103/94 92/96/87 100/105/96
f  37/107/98 100/105/96 24/93/84
f  24/93/84 100/105/96 92/96/87
f  5/1/101 25/27/18 2/3/102
f  7/4/103 29/31/22 5/1/101
f  9/6/104 47/49/40 7/4/103
f  16/8/105 49/51/42 9/6/104
f  11/10/106 63/65/56 16/8/105
f  13/12/107 79/81/72 11/10/106
f  15/14/108 81/83/74 13/12/107
f  2/16/109 96/100/91 15/14/108
f  103/15/110 99/104/95 104/17/111
f  105/13/112 86/88/79 103/15/110
f  106/11/113 82/84/75 105/13/112
f  107/18/114 68/70/61 106/11/113
f  108/9/115 54/56/47 107/18/114
f  109/7/116 50/52/43 108/9/115
f  110/5/117 34/36/27 109/7/116
f  104/2/118 38/40/31 110/5/117
f  36/38/29 38/40/31 104/2/118
f  2/3/102 25/27/18 27/29/20
f  27/101/92 96/100/91 2/16/109
f  104/17/111 99/104/95 36/106/97
f  25/27/18 5/1/101 26/28/19
f  28/30/21 5/1/101 29/31/22
f  26/28/19 5/1/101 28/30/21
f  32/34/25 110/5/117 30/32/23
f  34/36/27 110/5/117 32/34/25
f  30/32/23 110/5/117 38/40/31
f  46/48/39 7/4/103 47/49/40
f  29/31/22 7/4/103 46/48/39
f  48/50/41 9/6/104 49/51/42
f  49/51/42 65/67/58 40/42/33
f  47/49/40 9/6/104 48/50/41
f  52/54/45 108/9/115 50/52/43
f  54/56/47 108/9/115 52/54/45
f  55/57/48 66/68/59 54/56/47
f  56/58/49 109/7/116 34/36/27
f  50/52/43 109/7/116 56/58/49
f  40/42/33 65/67/58 61/63/54
f  63/65/56 11/10/106 64/66/57
f  65/67/58 16/8/105 63/65/56
f  68/70/61 107/18/114 66/68/59
f  66/68/59 55/57/48 67/69/60
f  70/72/63 106/11/113 68/70/61
f  78/80/71 11/10/106 79/81/72
f  64/66/57 11/10/106 78/80/71
f  80/82/73 13/12/107 81/83/74
f  79/81/72 13/12/107 80/82/73
f  84/86/77 105/13/112 82/84/75
f  86/88/79 105/13/112 84/86/77
f  88/90/81 106/11/113 70/72/63
f  82/84/75 106/11/113 88/90/81
f  94/98/89 15/14/108 95/99/90
f  81/83/74 15/14/108 94/98/89
f  95/99/90 15/14/108 96/100/91
f  99/104/95 103/15/110 97/102/93
f  101/108/99 103/15/110 86/88/79
f  97/102/93 103/15/110 101/108/99
f  16/8/105 65/67/58 49/51/42
f  54/56/47 66/68/59 107/18/114
f  110/1/119 111/5/119 104/3/119
f  109/4/120 112/7/120 110/1/119
f  108/6/121 113/9/121 109/4/120
f  107/8/122 114/18/123 108/6/121
f  106/10/124 115/11/124 107/8/122
f  105/12/125 116/13/125 106/10/124
f  103/14/126 117/15/126 105/12/125
f  104/16/127 118/17/127 103/14/126
f  117/15/126 103/14/126 118/17/127
f  116/13/125 105/12/125 117/15/126
f  115/11/124 106/10/124 116/13/125
f  114/18/123 107/8/122 115/11/124
f  113/9/121 108/6/121 114/18/123
f  112/7/120 109/4/120 113/9/121
f  111/5/119 110/1/119 112/7/120
f  118/2/128 104/3/119 111/5/119
f  119/110/129 120/111/130 121/112/131
f  122/113/132 121/112/131 123/114/133
f  123/114/133 121/112/131 120/111/130
f  122/113/132 123/114/133 124/115/134
f  125/116/135 124/115/134 126/117/136
f  126/117/136 124/115/134 123/114/133
f  124/115/134 127/118/137 122/113/132
f  127/118/137 128/119/138 122/113/132
f  125/116/135 129/120/139 124/115/134
f  129/120/139 127/118/137 124/115/134
f  121/112/131 130/121/140 119/110/129
f  130/121/140 131/122/141 119/110/129
f  122/113/132 128/119/138 121/112/131
f  128/119/138 130/121/140 121/112/131
f  132/123/142 126/117/136 133/124/143
f  126/117/136 123/114/133 133/124/143
f  120/111/130 134/125/144 123/114/133
f  134/125/144 133/124/143 123/114/133
f  135/126/145 136/127/146 137/128/147
f  136/127/146 138/129/148 137/128/147
f  137/128/147 138/129/148 139/130/149
f  138/129/148 140/131/150 139/130/149
f  141/132/151 142/133/152 143/134/153
f  142/133/152 144/135/154 143/134/153
f  143/134/153 144/135/154 135/126/145
f  144/135/154 136/127/146 135/126/145
f  142/133/152 132/123/142 144/135/154
f  136/127/146 144/135/154 133/124/143
f  133/124/143 144/135/154 132/123/142
f  136/127/146 133/124/143 138/129/148
f  140/131/150 138/129/148 134/125/144
f  134/125/144 138/129/148 133/124/143
f  145/136/155 146/137/156 147/138/157
f  146/137/156 148/139/158 147/138/157
f  146/137/156 145/136/155 149/140/159
f  119/110/129 149/140/159 120/111/130
f  120/111/130 149/140/159 145/136/155
f  149/140/159 150/141/160 146/137/156
f  150/141/160 151/142/161 146/137/156
f  119/110/129 131/122/141 149/140/159
f  131/122/141 150/141/160 149/140/159
f  134/125/144 120/111/130 152/143/162
f  120/111/130 145/136/155 152/143/162
f  147/138/157 153/144/163 145/136/155
f  153/144/163 152/143/162 145/136/155
f  139/130/149 140/131/150 154/145/164
f  140/131/150 155/146/165 154/145/164
f  154/145/164 155/146/165 156/147/166
f  155/146/165 157/148/167 156/147/166
f  140/131/150 134/125/144 155/146/165
f  157/148/167 155/146/165 152/143/162
f  152/143/162 155/146/165 134/125/144
f  157/148/167 152/143/162 158/149/168
f  152/143/162 153/144/163 158/149/168
f  159/150/169 160/151/170 161/152/171
f  160/151/170 162/153/172 161/152/171
f  160/151/170 159/150/169 163/154/173
f  148/139/158 163/154/173 147/138/157
f  147/138/157 163/154/173 159/150/169
f  163/154/173 164/155/174 160/151/170
f  164/155/174 165/156/175 160/151/170
f  148/139/158 166/157/176 163/154/173
f  166/157/176 164/155/174 163/154/173
f  153/144/163 147/138/157 167/158/177
f  147/138/157 159/150/169 167/158/177
f  161/152/171 168/159/178 159/150/169
f  168/159/178 167/158/177 159/150/169
f  169/160/179 170/161/180 171/162/181
f  170/161/180 172/163/182 171/162/181
f  171/162/181 172/163/182 173/164/183
f  172/163/182 174/165/184 173/164/183
f  175/166/185 158/149/168 176/167/186
f  158/149/168 177/168/187 176/167/186
f  176/167/186 177/168/187 169/160/179
f  177/168/187 170/161/180 169/160/179
f  158/149/168 153/144/163 177/168/187
f  170/161/180 177/168/187 167/158/177
f  167/158/177 177/168/187 153/144/163
f  170/161/180 167/158/177 172/163/182
f  174/165/184 172/163/182 168/159/178
f  168/159/178 172/163/182 167/158/177
f  178/169/188 179/170/189 180/171/190
f  181/172/191 180/171/190 182/173/192
f  182/173/192 180/171/190 179/170/189
f  181/172/191 182/173/192 183/174/193
f  162/153/172 183/174/193 161/152/171
f  161/152/171 183/174/193 182/173/192
f  183/174/193 184/175/194 181/172/191
f  184/175/194 185/176/195 181/172/191
f  162/153/172 186/177/196 183/174/193
f  186/177/196 184/175/194 183/174/193
f  180/171/190 187/178/197 178/169/188
f  187/178/197 188/179/198 178/169/188
f  181/172/191 185/176/195 180/171/190
f  185/176/195 187/178/197 180/171/190
f  168/159/178 161/152/171 189/180/199
f  161/152/171 182/173/192 189/180/199
f  179/170/189 190/181/200 182/173/192
f  190/181/200 189/180/199 182/173/192
f  191/182/201 192/183/202 193/184/203
f  192/183/202 194/185/204 193/184/203
f  193/184/203 194/185/204 195/186/205
f  194/185/204 196/187/206 195/186/205
f  174/165/184 168/159/178 192/183/202
f  168/159/178 189/180/199 192/183/202
f  192/183/202 189/180/199 194/185/204
f  196/187/206 194/185/204 190/181/200
f  190/181/200 194/185/204 189/180/199
f  197/188/207 198/189/208 199/190/209
f  198/189/208 200/191/210 199/190/209
f  198/189/208 197/188/207 201/192/211
f  178/169/188 201/192/211 179/170/189
f  179/170/189 201/192/211 197/188/207
f  201/192/211 202/193/212 198/189/208
f  202/193/212 203/194/213 198/189/208
f  178/169/188 188/179/198 201/192/211
f  188/179/198 202/193/212 201/192/211
f  190/181/200 179/170/189 204/195/214
f  179/170/189 197/188/207 204/195/214
f  199/190/209 205/196/215 197/188/207
f  205/196/215 204/195/214 197/188/207
f  195/186/205 196/187/206 206/197/216
f  196/187/206 207/198/217 206/197/216
f  206/197/216 207/198/217 208/199/218
f  207/198/217 209/200/219 208/199/218
f  196/187/206 190/181/200 207/198/217
f  209/200/219 207/198/217 204/195/214
f  204/195/214 207/198/217 190/181/200
f  209/200/219 204/195/214 210/201/220
f  204/195/214 205/196/215 210/201/220
f  125/202/221 126/203/222 211/204/223
f  212/205/224 211/204/223 213/206/225
f  213/206/225 211/204/223 126/203/222
f  212/205/224 213/206/225 214/207/226
f  200/191/210 214/207/226 199/190/209
f  199/190/209 214/207/226 213/206/225
f  214/207/226 215/208/227 212/205/224
f  215/208/227 216/209/228 212/205/224
f  200/191/210 217/210/229 214/207/226
f  217/210/229 215/208/227 214/207/226
f  211/204/223 218/211/230 125/202/221
f  218/211/230 129/212/231 125/202/221
f  212/205/224 216/209/228 211/204/223
f  216/209/228 218/211/230 211/204/223
f  205/196/215 199/190/209 219/213/232
f  199/190/209 213/206/225 219/213/232
f  126/203/222 132/214/233 213/206/225
f  132/214/233 219/213/232 213/206/225
f  220/215/234 221/216/235 222/217/236
f  221/216/235 223/218/237 222/217/236
f  222/217/236 223/218/237 141/219/238
f  223/218/237 142/220/239 141/219/238
f  224/221/240 210/201/220 225/222/241
f  210/201/220 226/223/242 225/222/241
f  225/222/241 226/223/242 220/215/234
f  226/223/242 221/216/235 220/215/234
f  210/201/220 205/196/215 226/223/242
f  221/216/235 226/223/242 219/213/232
f  219/213/232 226/223/242 205/196/215
f  221/216/235 219/213/232 223/218/237
f  142/220/239 223/218/237 132/214/233
f  132/214/233 223/218/237 219/213/232
f  14/15/243 220/215/234 3/17/244
f  12/13/245 224/221/240 14/15/243
f  10/11/246 195/186/205 12/13/245
f  8/18/247 191/182/201 10/11/246
f  6/9/248 169/160/179 8/18/247
f  4/7/249 175/166/185 6/9/248
f  1/5/250 139/130/149 4/7/249
f  3/2/251 143/134/153 1/5/250
f  111/1/252 127/118/137 118/3/253
f  112/4/254 131/122/141 111/1/252
f  113/6/255 166/157/176 112/4/254
f  114/8/256 165/156/175 113/6/255
f  115/10/257 184/175/194 114/8/256
f  116/12/258 188/179/198 115/10/257
f  117/14/259 217/210/229 116/12/258
f  118/16/260 216/209/228 117/14/259
f  141/132/151 143/134/153 3/2/251
f  118/3/253 127/118/137 129/120/139
f  129/212/231 218/211/230 118/16/260
f  3/17/244 222/217/236 141/219/238
f  127/118/137 111/1/252 128/119/138
f  130/121/140 111/1/252 131/122/141
f  128/119/138 111/1/252 130/121/140
f  137/128/147 1/5/250 135/126/145
f  139/130/149 1/5/250 137/128/147
f  135/126/145 1/5/250 143/134/153
f  146/137/156 151/142/161 148/139/158
f  150/141/160 112/4/254 151/142/161
f  131/122/141 112/4/254 150/141/160
f  154/145/164 4/7/249 139/130/149
f  156/147/166 4/7/249 154/145/164
f  157/148/167 175/166/185 156/147/166
f  158/149/168 175/166/185 157/148/167
f  160/151/170 165/156/175 162/153/172
f  164/155/174 113/6/255 165/156/175
f  148/139/158 151/142/161 166/157/176
f  166/157/176 113/6/255 164/155/174
f  171/162/181 8/18/247 169/160/179
f  173/164/183 8/18/247 171/162/181
f  174/165/184 192/183/202 173/164/183
f  176/167/186 6/9/248 175/166/185
f  169/160/179 6/9/248 176/167/186
f  184/175/194 115/10/257 185/176/195
f  162/153/172 165/156/175 186/177/196
f  186/177/196 114/8/256 184/175/194
f  187/178/197 115/10/257 188/179/198
f  185/176/195 115/10/257 187/178/197
f  193/184/203 10/11/246 191/182/201
f  191/182/201 173/164/183 192/183/202
f  195/186/205 10/11/246 193/184/203
f  198/189/208 203/194/213 200/191/210
f  202/193/212 116/12/258 203/194/213
f  188/179/198 116/12/258 202/193/212
f  206/197/216 12/13/245 195/186/205
f  208/199/218 12/13/245 206/197/216
f  209/200/219 224/221/240 208/199/218
f  210/201/220 224/221/240 209/200/219
f  215/208/227 117/14/259 216/209/228
f  200/191/210 203/194/213 217/210/229
f  217/210/229 117/14/259 215/208/227
f  216/209/228 118/16/260 218/211/230
f  222/217/236 3/17/244 220/215/234
f  225/222/241 14/15/243 224/221/240
f  220/215/234 14/15/243 225/222/241
f  12/13/245 208/199/218 224/221/240
f  8/18/247 173/164/183 191/182/201
f  4/7/249 156/147/166 175/166/185
f  166/157/176 151/142/161 112/4/254
f  114/8/256 186/177/196 165/156/175
f  217/210/229 203/194/213 116/12/258

