# File produced by Open Asset Import Library (http://www.assimp.sf.net)
# (assimp v5.3.0)

mtllib portal.mtl

# 258 vertex positions
v 0.922078788 1.10437119 -8.91762924
v 0.117535822 1.10437119 -9.4290266
v 0.117535822 1.10437119 -8.95384789
v 1.74680531 1.10437119 -8.80436707
v 2.58126068 1.10437119 -8.6082201
v 3.41339993 1.10437119 -8.32518291
v 3.76538897 1.10437119 -9.21428967
v 4.22999001 1.10437119 -7.95355988
v 4.6691885 1.10437119 -8.80297756
v 5.017169 1.10437119 -7.49433088
v 5.54043579 1.10437119 -8.29470444
v 5.76112938 1.10437119 -6.9513483
v 6.36384964 1.10437119 -7.69373274
v 6.44886255 1.10437119 -6.33132696
v 7.12503052 1.10437119 -7.00749445
v 7.06888437 1.10437119 -5.64359379
v 7.81126881 1.10437119 -6.24631357
v 7.61186647 1.10437119 -4.89963293
v 8.41224003 1.10437119 -5.4229002
v 8.07109547 1.10437119 -4.11245394
v 8.92051411 1.10437119 -4.55165243
v 8.44271946 1.10437119 -3.29586411
v 9.33182526 1.10437119 -3.64785314
v 8.72575569 1.10437119 -2.46372485
v 9.6450901 1.10437119 -2.72684383
v 8.92190266 1.10437119 -1.62926948
v 9.86218452 1.10437119 -1.80327094
v 9.03516483 1.10437119 -0.804543018
v 9.98754215 1.10437119 -0.890465915
v 9.07138443 1.10437119 -2.48519213e-15
v 10.0276299 1.10437119 -2.75060355e-15
v 9.03516483 1.10437119 0.804543018
v 9.98754215 1.10437119 0.890465915
v 8.92190266 1.10437119 1.62926948
v 9.86218452 1.10437119 1.80327094
v 8.72575569 1.10437119 2.46372485
v 9.6450901 1.10437119 2.72684383
v 8.44271946 1.10437119 3.29586411
v 9.33182526 1.10437119 3.64785314
v 8.07109547 1.10437119 4.11245394
v 8.92051411 1.10437119 4.55165243
v 7.61186647 1.10437119 4.89963293
v 8.41224003 1.10437119 5.4229002
v 7.06888437 1.10437119 5.64359379
v 7.81126881 1.10437119 6.24631357
v 6.44886255 1.10437119 6.33132696
v 7.12503052 1.10437119 7.00749445
v 5.76112938 1.10437119 6.9513483
v 6.36384964 1.10437119 7.69373274
v 5.017169 1.10437119 7.49433088
v 5.54043579 1.10437119 8.29470444
v 4.22999001 1.10437119 7.95355988
v 4.6691885 1.10437119 8.80297756
v 3.41339993 1.10437119 8.32518291
v 3.76538897 1.10437119 9.21428967
v 2.58126068 1.10437119 8.6082201
v 2.84437966 1.10437119 9.52755356
v 1.74680531 1.10437119 8.80436707
v 1.92080677 1.10437119 9.74464893
v 0.922078788 1.10437119 8.91762924
v 1.00800169 1.10437119 9.87000656
v 0.117535822 1.10437119 8.95384789
v 0.117535822 1.10437119 9.91009426
v -0.687007189 1.10437119 8.91762924
v -0.772930086 1.10437119 9.87000656
v -1.51173377 1.10437119 8.80436707
v -1.68573511 1.10437119 9.74464893
v -2.34618902 1.10437119 8.6082201
v -2.609308 1.10437119 9.52755356
v -3.17832828 1.10437119 8.32518291
v -3.53031731 1.10437119 9.21428967
v -3.99491811 1.10437119 7.95355988
v -4.43411684 1.10437119 8.80297756
v -4.78209734 1.10437119 7.49433088
v -5.30536413 1.10437119 8.29470444
v -5.52605772 1.10437119 6.9513483
v -6.12877798 1.10437119 7.69373274
v -6.21379089 1.10437119 6.33132696
v -6.88995886 1.10437119 7.00749445
v -6.83381271 1.10437119 5.64359379
v -7.57619715 1.10437119 6.24631357
v -7.37679482 1.10437119 4.89963293
v -8.17716789 1.10437119 5.4229002
v -7.83602428 1.10437119 4.11245394
v -8.68544197 1.10437119 4.55165243
v -8.20764732 1.10437119 3.29586411
v -9.09675312 1.10437119 3.64785314
v -8.49068451 1.10437119 2.46372485
v -9.41001797 1.10437119 2.72684383
v -8.68683147 1.10437119 1.62926948
v -9.62711239 1.10437119 1.80327094
v -8.80009365 1.10437119 0.804543018
v -9.75247097 1.10437119 0.890465915
v -8.83631229 1.10437119 -9.94076808e-16
v -9.79255772 1.10437119 -1.10024148e-15
v -8.80009365 1.10437119 -0.804543018
v -9.75247097 1.10437119 -0.890465915
v -8.68683147 1.10437119 -1.62926948
v -9.62711239 1.10437119 -1.80327094
v -8.49068451 1.10437119 -2.46372485
v -9.41001797 1.10437119 -2.72684383
v -8.20764732 1.10437119 -3.29586411
v -9.09675312 1.10437119 -3.64785314
v -7.83602428 1.10437119 -4.11245394
v -8.68544197 1.10437119 -4.55165243
v -7.37679482 1.10437119 -4.89963293
v -8.17716789 1.10437119 -5.4229002
v -6.83381271 1.10437119 -5.64359379
v -7.57619715 1.10437119 -6.24631357
v -6.21379089 1.10437119 -6.33132696
v -6.88995886 1.10437119 -7.00749445
v -5.52605772 1.10437119 -6.9513483
v -6.12877798 1.10437119 -7.69373274
v -4.78209734 1.10437119 -7.49433088
v -5.30536413 1.10437119 -8.29470444
v -3.99491811 1.10437119 -7.95355988
v -4.43411684 1.10437119 -8.80297756
v -3.17832828 1.10437119 -8.32518291
v -3.53031731 1.10437119 -9.21428967
v -2.34618902 1.10437119 -8.6082201
v -2.609308 1.10437119 -9.52755356
v -1.51173377 1.10437119 -8.80436707
v -1.68573511 1.10437119 -9.74464893
v -0.687007189 1.10437119 -8.91762924
v -0.772930086 1.10437119 -9.87000656
v 0.117535822 1.10437119 -9.91009426
v 2.84437966 1.10437119 -9.52755356
v 1.92080677 1.10437119 -9.74464893
v 1.00800169 1.10437119 -9.87000656
v 1.00800169 0.0570223294 -9.87000656
v 1.92080677 0.0570223294 -9.74464893
v 2.84437966 0.0570223294 -9.52755356
v 3.76538897 0.0570223294 -9.21428967
v 4.6691885 0.0570223294 -8.80297756
v 5.54043579 0.0570223294 -8.29470444
v 6.36384964 0.0570223294 -7.69373274
v 7.12503052 0.0570223294 -7.00749445
v 7.81126881 0.0570223294 -6.24631357
v 8.41224003 0.0570223294 -5.4229002
v 8.92051411 0.0570223294 -4.55165243
v 9.33182526 0.0570223294 -3.64785314
v 9.6450901 0.0570223294 -2.72684383
v 9.86218452 0.0570223294 -1.80327094
v 9.98754215 0.0570223294 -0.890465915
v 10.0276299 0.0570223294 -2.75060355e-15
v 9.98754215 0.0570223294 0.890465915
v 9.86218452 0.0570223294 1.80327094
v 9.6450901 0.0570223294 2.72684383
v 9.33182526 0.0570223294 3.64785314
v 8.92051411 0.0570223294 4.55165243
v 8.41224003 0.0570223294 5.4229002
v 7.81126881 0.0570223294 6.24631357
v 7.12503052 0.0570223294 7.00749445
v 6.36384964 0.0570223294 7.69373274
v 5.54043579 0.0570223294 8.29470444
v 4.6691885 0.0570223294 8.80297756
v 3.76538897 0.0570223294 9.21428967
v 2.84437966 0.0570223294 9.52755356
v 1.92080677 0.0570223294 9.74464893
v 1.00800169 0.0570223294 9.87000656
v 0.117535822 0.0570223294 9.91009426
v -0.772930086 0.0570223294 9.87000656
v -1.68573511 0.0570223294 9.74464893
v -2.609308 0.0570223294 9.52755356
v -3.53031731 0.0570223294 9.21428967
v -4.43411684 0.0570223294 8.80297756
v -5.30536413 0.0570223294 8.29470444
v -6.12877798 0.0570223294 7.69373274
v -6.88995886 0.0570223294 7.00749445
v -7.57619715 0.0570223294 6.24631357
v -8.17716789 0.0570223294 5.4229002
v -8.68544197 0.0570223294 4.55165243
v -9.09675312 0.0570223294 3.64785314
v -9.41001797 0.0570223294 2.72684383
v -9.62711239 0.0570223294 1.80327094
v -9.75247097 0.0570223294 0.890465915
v -9.79255772 0.0570223294 -1.10024148e-15
v -9.75247097 0.0570223294 -0.890465915
v -9.62711239 0.0570223294 -1.80327094
v -9.41001797 0.0570223294 -2.72684383
v -9.09675312 0.0570223294 -3.64785314
v -8.68544197 0.0570223294 -4.55165243
v -8.17716789 0.0570223294 -5.4229002
v -7.57619715 0.0570223294 -6.24631357
v -6.88995886 0.0570223294 -7.00749445
v -6.12877798 0.0570223294 -7.69373274
v -5.30536413 0.0570223294 -8.29470444
v -4.43411684 0.0570223294 -8.80297756
v -3.53031731 0.0570223294 -9.21428967
v -2.609308 0.0570223294 -9.52755356
v -1.68573511 0.0570223294 -9.74464893
v -0.772930086 0.0570223294 -9.87000656
v 0.117535822 0.0570223294 -9.91009426
v 0.117535822 0.0570223294 -9.43491554
v 3.41339993 0.0570223294 -8.32518291
v 4.22999001 0.0570223294 -7.95355988
v 5.017169 0.0570223294 -7.49433088
v 5.76112938 0.0570223294 -6.9513483
v 6.44886255 0.0570223294 -6.33132696
v 7.06888437 0.0570223294 -5.64359379
v 7.61186647 0.0570223294 -4.89963293
v 8.07109547 0.0570223294 -4.11245394
v 8.44271946 0.0570223294 -3.29586411
v 8.72575569 0.0570223294 -2.46372485
v 8.92190266 0.0570223294 -1.62926948
v 9.03516483 0.0570223294 -0.804543018
v 9.07138443 0.0570223294 -2.48519213e-15
v 9.03516483 0.0570223294 0.804543018
v 8.92190266 0.0570223294 1.62926948
v 8.72575569 0.0570223294 2.46372485
v 8.44271946 0.0570223294 3.29586411
v 8.07109547 0.0570223294 4.11245394
v 7.61186647 0.0570223294 4.89963293
v 7.06888437 0.0570223294 5.64359379
v 6.44886255 0.0570223294 6.33132696
v 5.76112938 0.0570223294 6.9513483
v 5.017169 0.0570223294 7.49433088
v 4.22999001 0.0570223294 7.95355988
v 3.41339993 0.0570223294 8.32518291
v 2.58126068 0.0570223294 8.6082201
v 1.74680531 0.0570223294 8.80436707
v 0.922078788 0.0570223294 8.91762924
v 0.117535822 0.0570223294 8.95384789
v -0.687007189 0.0570223294 8.91762924
v -1.51173377 0.0570223294 8.80436707
v -2.34618902 0.0570223294 8.6082201
v -3.17832828 0.0570223294 8.32518291
v -3.99491811 0.0570223294 7.95355988
v -4.78209734 0.0570223294 7.49433088
v -5.52605772 0.0570223294 6.9513483
v -6.21379089 0.0570223294 6.33132696
v -6.83381271 0.0570223294 5.64359379
v -7.37679482 0.0570223294 4.89963293
v -7.83602428 0.0570223294 4.11245394
v -8.20764732 0.0570223294 3.29586411
v -8.49068451 0.0570223294 2.46372485
v -8.68683147 0.0570223294 1.62926948
v -8.80009365 0.0570223294 0.804543018
v -8.83631229 0.0570223294 -9.94076808e-16
v -8.80009365 0.0570223294 -0.804543018
v -8.68683147 0.0570223294 -1.62926948
v -8.49068451 0.0570223294 -2.46372485
v -8.20764732 0.0570223294 -3.29586411
v -7.83602428 0.0570223294 -4.11245394
v -7.37679482 0.0570223294 -4.89963293
v -6.83381271 0.0570223294 -5.64359379
v -6.21379089 0.0570223294 -6.33132696
v -5.52605772 0.0570223294 -6.9513483
v -4.78209734 0.0570223294 -7.49433088
v -3.99491811 0.0570223294 -7.95355988
v -3.17832828 0.0570223294 -8.32518291
v -2.34618902 0.0570223294 -8.6082201
v -1.51173377 0.0570223294 -8.80436707
v -0.687007189 0.0570223294 -8.91762924
v 0.117535822 0.0570223294 -8.95384789
v 2.58126068 0.0570223294 -8.6082201
v 1.74680531 0.0570223294 -8.80436707
v 0.922078788 0.0570223294 -8.91762924

# 132 UV coordinates
vt 0.015625 0 0
vt 0 0.496920466 0
vt 0 0 0
vt 0.03125 0 0
vt 0.046875 0 0
vt 0.0625 0 0
vt 0.0625 1 0
vt 0.078125 0 0
vt 0.078125 1 0
vt 0.09375 0 0
vt 0.09375 1 0
vt 0.109375 0 0
vt 0.109375 1 0
vt 0.125 0 0
vt 0.125 1 0
vt 0.140625 0 0
vt 0.140625 1 0
vt 0.15625 0 0
vt 0.15625 1 0
vt 0.171875 0 0
vt 0.171875 1 0
vt 0.1875 0 0
vt 0.1875 1 0
vt 0.203125 0 0
vt 0.203125 1 0
vt 0.21875 0 0
vt 0.21875 1 0
vt 0.234375 0 0
vt 0.234375 1 0
vt 0.25 0 0
vt 0.25 1 0
vt 0.265625 0 0
vt 0.265625 1 0
vt 0.28125 0 0
vt 0.28125 1 0
vt 0.296875 0 0
vt 0.296875 1 0
vt 0.3125 0 0
vt 0.3125 1 0
vt 0.328125 0 0
vt 0.328125 1 0
vt 0.34375 0 0
vt 0.34375 1 0
vt 0.359375 0 0
vt 0.359375 1 0
vt 0.375 0 0
vt 0.375 1 0
vt 0.390625 0 0
vt 0.390625 1 0
vt 0.40625 0 0
vt 0.40625 1 0
vt 0.421875 0 0
vt 0.421875 1 0
vt 0.4375 0 0
vt 0.4375 1 0
vt 0.453125 0 0
vt 0.453125 1 0
vt 0.46875 0 0
vt 0.46875 1 0
vt 0.484375 0 0
vt 0.484375 1 0
vt 0.5 0 0
vt 0.5 1 0
vt 0.515625 0 0
vt 0.515625 1 0
vt 0.53125 0 0
vt 0.53125 1 0
vt 0.546875 0 0
vt 0.546875 1 0
vt 0.5625 0 0
vt 0.5625 1 0
vt 0.578125 0 0
vt 0.578125 1 0
vt 0.59375 0 0
vt 0.59375 1 0
vt 0.609375 0 0
vt 0.609375 1 0
vt 0.625 0 0
vt 0.625 1 0
vt 0.640625 0 0
vt 0.640625 1 0
vt 0.65625 0 0
vt 0.65625 1 0
vt 0.671875 0 0
vt 0.671875 1 0
vt 0.6875 0 0
vt 0.6875 1 0
vt 0.703125 0 0
vt 0.703125 1 0
vt 0.71875 0 0
vt 0.71875 1 0
vt 0.734375 0 0
vt 0.734375 1 0
vt 0.75 0 0
vt 0.75 1 0
vt 0.765625 0 0
vt 0.765625 1 0
vt 0.78125 0 0
vt 0.78125 1 0
vt 0.796875 0 0
vt 0.796875 1 0
vt 0.8125 0 0
vt 0.8125 1 0
vt 0.828125 0 0
vt 0.828125 1 0
vt 0.84375 0 0
vt 0.84375 1 0
vt 0.859375 0 0
vt 0.859375 1 0
vt 0.875 0 0
vt 0.875 1 0
vt 0.890625 0 0
vt 0.890625 1 0
vt 0.90625 0 0
vt 0.90625 1 0
vt 0.921875 0 0
vt 0.921875 1 0
vt 0.9375 0 0
vt 0.9375 1 0
vt 0.953125 0 0
vt 0.953125 1 0
vt 0.96875 0 0
vt 0.96875 1 0
vt 0.984375 0 0
vt 0.984375 1 0
vt 1 0 0
vt 1 0.496920466 0
vt 1 1 0
vt 0.046875 1 0
vt 0.03125 1 0
vt 0.015625 1 0
vt 0 1 0

# 130 vertex normals
vn 0 1 0
vn 0.0906090587 5.64242075e-09 -0.995886505
vn 0.0449732468 3.04890069e-09 -0.998988211
vn 0.182642862 7.95472133e-09 -0.983179271
vn 0.275742978 7.07527992e-09 -0.961231411
vn 0.368568152 -4.57195926e-09 -0.929600716
vn 0.459646404 -1.00264232e-08 -0.888101995
vn 0.547436476 4.34596442e-10 -0.836847246
vn 0.630405188 1.22995161e-08 -0.776266277
vn 0.707106769 0 -0.707106769
vn 0.776266277 -6.40267439e-09 -0.630405128
vn 0.836847067 -1.34556695e-08 -0.547436774
vn 0.888102114 -1.55579265e-08 -0.459646285
vn 0.929600716 -1.27233708e-08 -0.368568242
vn 0.961231411 -1.22983197e-08 -0.275742978
vn 0.98317939 2.85623303e-09 -0.182642385
vn 0.995886505 1.34899192e-09 -0.0906090513
vn 1 0 0
vn 0.995886505 -1.34899192e-09 0.0906090513
vn 0.98317939 -2.85623303e-09 0.182642385
vn 0.961231411 1.22983197e-08 0.275742978
vn 0.929600716 1.27233708e-08 0.368568242
vn 0.888102114 1.55579265e-08 0.459646285
vn 0.836847067 1.34556695e-08 0.547436774
vn 0.776266277 6.40267439e-09 0.630405128
vn 0.707106769 0 0.707106769
vn 0.630405188 -1.22995161e-08 0.776266277
vn 0.547436476 -4.34596442e-10 0.836847246
vn 0.459646404 1.00264232e-08 0.888101995
vn 0.368568152 4.57195926e-09 0.929600716
vn 0.275742978 -7.07527992e-09 0.961231411
vn 0.182642862 -7.95472133e-09 0.983179271
vn 0.0906090587 -5.64242075e-09 0.995886505
vn 1.86453164e-09 -1.58524238e-09 1
vn -0.0906090513 -1.34899192e-09 0.995886505
vn -0.182642862 2.54824073e-09 0.983179271
vn -0.275742978 7.07527992e-09 0.961231411
vn -0.368568152 -4.57195926e-09 0.929600716
vn -0.459646404 -1.00264232e-08 0.888101995
vn -0.547436476 4.34596442e-10 0.836847246
vn -0.630405188 1.22995161e-08 0.776266277
vn -0.707106769 0 0.707106769
vn -0.776266456 1.7549155e-08 0.630404949
vn -0.836847246 1.04956595e-08 0.547436535
vn -0.888102114 -1.55579265e-08 0.459646285
vn -0.929600716 -1.27233708e-08 0.368568242
vn -0.961231411 -1.22983197e-08 0.275742978
vn -0.983179271 -3.675243e-09 0.182642892
vn -0.995886505 -5.15539389e-09 0.0906090364
vn -1 0 0
vn -0.995886505 5.15539389e-09 -0.0906090364
vn -0.983179271 3.675243e-09 -0.182642892
vn -0.961231411 1.22983197e-08 -0.275742978
vn -0.929600716 1.27233708e-08 -0.368568242
vn -0.888102114 1.55579265e-08 -0.459646285
vn -0.836847246 -1.04956595e-08 -0.547436535
vn -0.776266456 -1.7549155e-08 -0.630404949
vn -0.707106769 0 -0.707106769
vn -0.630405188 -1.22995161e-08 -0.776266277
vn -0.547436476 -4.34596442e-10 -0.836847246
vn -0.459646404 1.00264232e-08 -0.888101995
vn -0.368568152 4.57195926e-09 -0.929600716
vn -0.275742978 -7.07527992e-09 -0.961231411
vn -0.182642862 -2.54824073e-09 -0.983179271
vn -0.0906090513 1.34899192e-09 -0.995886505
vn -0.044973243 1.18376128e-10 -0.998988211
vn 0 -1 0
vn 0.0906088203 2.148558e-09 0.995886564
vn 0.0449721105 -7.92317767e-10 0.998988271
vn 0.182642996 4.16046397e-09 0.983179271
vn 0.275743186 4.14208623e-09 0.961231351
vn 0.368568271 7.77175835e-09 0.929600716
vn 0.459646106 -1.17624799e-08 0.888102174
vn 0.547436595 -2.01869188e-08 0.836847126
vn 0.630405068 -4.58668303e-09 0.776266396
vn 0.70710665 -6.424834e-09 0.707106888
vn 0.776266515 3.67370601e-09 0.63040489
vn 0.836847246 5.74462122e-09 0.547436535
vn 0.888102055 -8.19083645e-09 0.459646374
vn 0.929600716 -7.77175835e-09 0.368568271
vn 0.961231351 1.61707692e-09 0.275743186
vn 0.983179271 6.20095353e-09 0.182643011
vn 0.995886564 2.45374365e-09 0.0906088427
vn 0.995886564 -2.45374365e-09 -0.0906088427
vn 0.983179271 -6.20095353e-09 -0.182643011
vn 0.961231351 -1.61707692e-09 -0.275743186
vn 0.929600716 7.77175835e-09 -0.368568271
vn 0.888102055 8.19083645e-09 -0.459646374
vn 0.836847246 -5.74462122e-09 -0.547436535
vn 0.776266515 -3.67370601e-09 -0.63040489
vn 0.70710665 6.424834e-09 -0.707106888
vn 0.630405068 4.58668303e-09 -0.776266396
vn 0.547436595 2.01869188e-08 -0.836847126
vn 0.459646106 1.17624799e-08 -0.888102174
vn 0.368568271 -7.77175835e-09 -0.929600716
vn 0.275743186 -4.14208623e-09 -0.961231351
vn 0.182642996 -4.16046397e-09 -0.983179271
vn 0.0906088203 -2.148558e-09 -0.995886564
vn -3.72906328e-09 2.6013508e-10 -1
vn -0.0906088427 1.72067638e-09 -0.995886564
vn -0.182643011 -2.2864135e-09 -0.983179271
vn -0.275743186 -1.61707692e-09 -0.961231351
vn -0.368568182 1.18083872e-08 -0.929600716
vn -0.459646106 -8.71751826e-09 -0.888102174
vn -0.547436655 -2.11788045e-08 -0.836847126
vn -0.630405068 -4.58668303e-09 -0.776266396
vn -0.70710665 -6.424834e-09 -0.707106888
vn -0.776266515 3.67370601e-09 -0.63040489
vn -0.836847305 2.66905005e-08 -0.547436357
vn -0.888101935 1.72107359e-08 -0.459646553
vn -0.929600716 5.17091836e-09 -0.368568182
vn -0.96123153 1.01030846e-08 -0.27574271
vn -0.983179271 6.20095353e-09 -0.182643011
vn -0.995886505 3.26066507e-09 -0.0906094313
vn -0.995886505 -3.26066507e-09 0.0906094313
vn -0.983179271 -6.20095353e-09 0.182643011
vn -0.96123153 -1.01030846e-08 0.27574271
vn -0.929600716 -5.17091836e-09 0.368568182
vn -0.888101935 -1.72107359e-08 0.459646553
vn -0.836847305 -2.66905005e-08 0.547436357
vn -0.776266515 -3.67370601e-09 0.63040489
vn -0.70710665 6.424834e-09 0.707106888
vn -0.630405068 4.58668303e-09 0.776266396
vn -0.547436655 2.11788045e-08 0.836847126
vn -0.459646106 8.71751826e-09 0.888102174
vn -0.368568182 -1.18083872e-08 0.929600716
vn -0.275743186 1.61707692e-09 0.961231351
vn -0.182643011 2.2864135e-09 0.983179271
vn -0.0906088427 -1.72067638e-09 0.995886564
vn -0.044972118 2.72573936e-10 0.998988271

# Mesh '' with 516 faces
usemtl material0
f  1/1/1 2/2/1 3/3/1
f  4/4/1 2/2/1 1/1/1
f  5/5/1 2/2/1 4/4/1
f  6/6/1 7/7/1 5/5/1
f  8/8/1 9/9/1 6/6/1
f  10/10/1 11/11/1 8/8/1
f  12/12/1 13/13/1 10/10/1
f  14/14/1 15/15/1 12/12/1
f  16/16/1 17/17/1 14/14/1
f  18/18/1 19/19/1 16/16/1
f  20/20/1 21/21/1 18/18/1
f  22/22/1 23/23/1 20/20/1
f  24/24/1 25/25/1 22/22/1
f  26/26/1 27/27/1 24/24/1
f  28/28/1 29/29/1 26/26/1
f  30/30/1 31/31/1 28/28/1
f  32/32/1 33/33/1 30/30/1
f  34/34/1 35/35/1 32/32/1
f  36/36/1 37/37/1 34/34/1
f  38/38/1 39/39/1 36/36/1
f  40/40/1 41/41/1 38/38/1
f  42/42/1 43/43/1 40/40/1
f  44/44/1 45/45/1 42/42/1
f  46/46/1 47/47/1 44/44/1
f  48/48/1 49/49/1 46/46/1
f  50/50/1 51/51/1 48/48/1
f  52/52/1 53/53/1 50/50/1
f  54/54/1 55/55/1 52/52/1
f  56/56/1 57/57/1 54/54/1
f  58/58/1 59/59/1 56/56/1
f  60/60/1 61/61/1 58/58/1
f  62/62/1 63/63/1 60/60/1
f  64/64/1 65/65/1 62/62/1
f  66/66/1 67/67/1 64/64/1
f  68/68/1 69/69/1 66/66/1
f  70/70/1 71/71/1 68/68/1
f  72/72/1 73/73/1 70/70/1
f  74/74/1 75/75/1 72/72/1
f  76/76/1 77/77/1 74/74/1
f  78/78/1 79/79/1 76/76/1
f  80/80/1 81/81/1 78/78/1
f  82/82/1 83/83/1 80/80/1
f  84/84/1 85/85/1 82/82/1
f  86/86/1 87/87/1 84/84/1
f  88/88/1 89/89/1 86/86/1
f  90/90/1 91/91/1 88/88/1
f  92/92/1 93/93/1 90/90/1
f  94/94/1 95/95/1 92/92/1
f  96/96/1 97/97/1 94/94/1
f  98/98/1 99/99/1 96/96/1
f  100/100/1 101/101/1 98/98/1
f  102/102/1 103/103/1 100/100/1
f  104/104/1 105/105/1 102/102/1
f  106/106/1 107/107/1 104/104/1
f  108/108/1 109/109/1 106/106/1
f  110/110/1 111/111/1 108/108/1
f  112/112/1 113/113/1 110/110/1
f  114/114/1 115/115/1 112/112/1
f  116/116/1 117/117/1 114/114/1
f  118/118/1 119/119/1 116/116/1
f  120/120/1 121/121/1 118/118/1
f  122/122/1 123/123/1 120/120/1
f  124/124/1 125/125/1 122/122/1
f  3/126/1 2/127/1 124/124/1
f  125/125/1 2/127/1 126/128/1
f  123/123/1 122/122/1 125/125/1
f  121/121/1 120/120/1 123/123/1
f  119/119/1 118/118/1 121/121/1
f  117/117/1 116/116/1 119/119/1
f  115/115/1 114/114/1 117/117/1
f  113/113/1 112/112/1 115/115/1
f  111/111/1 110/110/1 113/113/1
f  109/109/1 108/108/1 111/111/1
f  107/107/1 106/106/1 109/109/1
f  105/105/1 104/104/1 107/107/1
f  103/103/1 102/102/1 105/105/1
f  101/101/1 100/100/1 103/103/1
f  99/99/1 98/98/1 101/101/1
f  97/97/1 96/96/1 99/99/1
f  95/95/1 94/94/1 97/97/1
f  93/93/1 92/92/1 95/95/1
f  91/91/1 90/90/1 93/93/1
f  89/89/1 88/88/1 91/91/1
f  87/87/1 86/86/1 89/89/1
f  85/85/1 84/84/1 87/87/1
f  83/83/1 82/82/1 85/85/1
f  81/81/1 80/80/1 83/83/1
f  79/79/1 78/78/1 81/81/1
f  77/77/1 76/76/1 79/79/1
f  75/75/1 74/74/1 77/77/1
f  73/73/1 72/72/1 75/75/1
f  71/71/1 70/70/1 73/73/1
f  69/69/1 68/68/1 71/71/1
f  67/67/1 66/66/1 69/69/1
f  65/65/1 64/64/1 67/67/1
f  63/63/1 62/62/1 65/65/1
f  61/61/1 60/60/1 63/63/1
f  59/59/1 58/58/1 61/61/1
f  57/57/1 56/56/1 59/59/1
f  55/55/1 54/54/1 57/57/1
f  53/53/1 52/52/1 55/55/1
f  51/51/1 50/50/1 53/53/1
f  49/49/1 48/48/1 51/51/1
f  47/47/1 46/46/1 49/49/1
f  45/45/1 44/44/1 47/47/1
f  43/43/1 42/42/1 45/45/1
f  41/41/1 40/40/1 43/43/1
f  39/39/1 38/38/1 41/41/1
f  37/37/1 36/36/1 39/39/1
f  35/35/1 34/34/1 37/37/1
f  33/33/1 32/32/1 35/35/1
f  31/31/1 30/30/1 33/33/1
f  29/29/1 28/28/1 31/31/1
f  27/27/1 26/26/1 29/29/1
f  25/25/1 24/24/1 27/27/1
f  23/23/1 22/22/1 25/25/1
f  21/21/1 20/20/1 23/23/1
f  19/19/1 18/18/1 21/21/1
f  17/17/1 16/16/1 19/19/1
f  15/15/1 14/14/1 17/17/1
f  13/13/1 12/12/1 15/15/1
f  11/11/1 10/10/1 13/13/1
f  9/9/1 8/8/1 11/11/1
f  7/7/1 6/6/1 9/9/1
f  127/129/1 5/5/1 7/7/1
f  128/130/1 5/5/1 127/129/1
f  129/131/1 2/2/1 128/130/1
f  126/132/1 2/2/1 129/131/1
f  5/5/1 128/130/1 2/2/1
f  124/124/1 2/127/1 125/125/1
f  129/1/2 130/131/2 126/3/3
f  128/4/4 131/130/4 129/1/2
f  127/5/5 132/129/5 128/4/4
f  7/6/6 133/7/6 127/5/5
f  9/8/7 134/9/7 7/6/6
f  11/10/8 135/11/8 9/8/7
f  13/12/9 136/13/9 11/10/8
f  15/14/10 137/15/10 13/12/9
f  17/16/11 138/17/11 15/14/10
f  19/18/12 139/19/12 17/16/11
f  21/20/13 140/21/13 19/18/12
f  23/22/14 141/23/14 21/20/13
f  25/24/15 142/25/15 23/22/14
f  27/26/16 143/27/16 25/24/15
f  29/28/17 144/29/17 27/26/16
f  31/30/18 145/31/18 29/28/17
f  33/32/19 146/33/19 31/30/18
f  35/34/20 147/35/20 33/32/19
f  37/36/21 148/37/21 35/34/20
f  39/38/22 149/39/22 37/36/21
f  41/40/23 150/41/23 39/38/22
f  43/42/24 151/43/24 41/40/23
f  45/44/25 152/45/25 43/42/24
f  47/46/26 153/47/26 45/44/25
f  49/48/27 154/49/27 47/46/26
f  51/50/28 155/51/28 49/48/27
f  53/52/29 156/53/29 51/50/28
f  55/54/30 157/55/30 53/52/29
f  57/56/31 158/57/31 55/54/30
f  59/58/32 159/59/32 57/56/31
f  61/60/33 160/61/33 59/58/32
f  63/62/34 161/63/34 61/60/33
f  65/64/35 162/65/35 63/62/34
f  67/66/36 163/67/36 65/64/35
f  69/68/37 164/69/37 67/66/36
f  71/70/38 165/71/38 69/68/37
f  73/72/39 166/73/39 71/70/38
f  75/74/40 167/75/40 73/72/39
f  77/76/41 168/77/41 75/74/40
f  79/78/42 169/79/42 77/76/41
f  81/80/43 170/81/43 79/78/42
f  83/82/44 171/83/44 81/80/43
f  85/84/45 172/85/45 83/82/44
f  87/86/46 173/87/46 85/84/45
f  89/88/47 174/89/47 87/86/46
f  91/90/48 175/91/48 89/88/47
f  93/92/49 176/93/49 91/90/48
f  95/94/50 177/95/50 93/92/49
f  97/96/51 178/97/51 95/94/50
f  99/98/52 179/99/52 97/96/51
f  101/100/53 180/101/53 99/98/52
f  103/102/54 181/103/54 101/100/53
f  105/104/55 182/105/55 103/102/54
f  107/106/56 183/107/56 105/104/55
f  109/108/57 184/109/57 107/106/56
f  111/110/58 185/111/58 109/108/57
f  113/112/59 186/113/59 111/110/58
f  115/114/60 187/115/60 113/112/59
f  117/116/61 188/117/61 115/114/60
f  119/118/62 189/119/62 117/116/61
f  121/120/63 190/121/63 119/118/62
f  123/122/64 191/123/64 121/120/63
f  125/124/65 192/125/65 123/122/64
f  126/126/66 193/128/66 125/124/65
f  192/125/65 125/124/65 193/128/66
f  191/123/64 123/122/64 192/125/65
f  190/121/63 121/120/63 191/123/64
f  189/119/62 119/118/62 190/121/63
f  188/117/61 117/116/61 189/119/62
f  187/115/60 115/114/60 188/117/61
f  186/113/59 113/112/59 187/115/60
f  185/111/58 111/110/58 186/113/59
f  184/109/57 109/108/57 185/111/58
f  183/107/56 107/106/56 184/109/57
f  182/105/55 105/104/55 183/107/56
f  181/103/54 103/102/54 182/105/55
f  180/101/53 101/100/53 181/103/54
f  179/99/52 99/98/52 180/101/53
f  178/97/51 97/96/51 179/99/52
f  177/95/50 95/94/50 178/97/51
f  176/93/49 93/92/49 177/95/50
f  175/91/48 91/90/48 176/93/49
f  174/89/47 89/88/47 175/91/48
f  173/87/46 87/86/46 174/89/47
f  172/85/45 85/84/45 173/87/46
f  171/83/44 83/82/44 172/85/45
f  170/81/43 81/80/43 171/83/44
f  169/79/42 79/78/42 170/81/43
f  168/77/41 77/76/41 169/79/42
f  167/75/40 75/74/40 168/77/41
f  166/73/39 73/72/39 167/75/40
f  165/71/38 71/70/38 166/73/39
f  164/69/37 69/68/37 165/71/38
f  163/67/36 67/66/36 164/69/37
f  162/65/35 65/64/35 163/67/36
f  161/63/34 63/62/34 162/65/35
f  160/61/33 61/60/33 161/63/34
f  159/59/32 59/58/32 160/61/33
f  158/57/31 57/56/31 159/59/32
f  157/55/30 55/54/30 158/57/31
f  156/53/29 53/52/29 157/55/30
f  155/51/28 51/50/28 156/53/29
f  154/49/27 49/48/27 155/51/28
f  153/47/26 47/46/26 154/49/27
f  152/45/25 45/44/25 153/47/26
f  151/43/24 43/42/24 152/45/25
f  150/41/23 41/40/23 151/43/24
f  149/39/22 39/38/22 150/41/23
f  148/37/21 37/36/21 149/39/22
f  147/35/20 35/34/20 148/37/21
f  146/33/19 33/32/19 147/35/20
f  145/31/18 31/30/18 146/33/19
f  144/29/17 29/28/17 145/31/18
f  143/27/16 27/26/16 144/29/17
f  142/25/15 25/24/15 143/27/16
f  141/23/14 23/22/14 142/25/15
f  140/21/13 21/20/13 141/23/14
f  139/19/12 19/18/12 140/21/13
f  138/17/11 17/16/11 139/19/12
f  137/15/10 15/14/10 138/17/11
f  136/13/9 13/12/9 137/15/10
f  135/11/8 11/10/8 136/13/9
f  134/9/7 9/8/7 135/11/8
f  133/7/6 7/6/6 134/9/7
f  132/129/5 127/5/5 133/7/6
f  131/130/4 128/4/4 132/129/5
f  130/131/2 129/1/2 131/130/4
f  193/132/3 126/3/3 130/131/2
f  130/1/67 194/2/67 193/3/67
f  131/4/67 194/2/67 130/1/67
f  132/5/67 194/2/67 131/4/67
f  133/6/67 195/7/67 132/5/67
f  134/8/67 196/9/67 133/6/67
f  135/10/67 197/11/67 134/8/67
f  136/12/67 198/13/67 135/10/67
f  137/14/67 199/15/67 136/12/67
f  138/16/67 200/17/67 137/14/67
f  139/18/67 201/19/67 138/16/67
f  140/20/67 202/21/67 139/18/67
f  141/22/67 203/23/67 140/20/67
f  142/24/67 204/25/67 141/22/67
f  143/26/67 205/27/67 142/24/67
f  144/28/67 206/29/67 143/26/67
f  145/30/67 207/31/67 144/28/67
f  146/32/67 208/33/67 145/30/67
f  147/34/67 209/35/67 146/32/67
f  148/36/67 210/37/67 147/34/67
f  149/38/67 211/39/67 148/36/67
f  150/40/67 212/41/67 149/38/67
f  151/42/67 213/43/67 150/40/67
f  152/44/67 214/45/67 151/42/67
f  153/46/67 215/47/67 152/44/67
f  154/48/67 216/49/67 153/46/67
f  155/50/67 217/51/67 154/48/67
f  156/52/67 218/53/67 155/50/67
f  157/54/67 219/55/67 156/52/67
f  158/56/67 220/57/67 157/54/67
f  159/58/67 221/59/67 158/56/67
f  160/60/67 222/61/67 159/58/67
f  161/62/67 223/63/67 160/60/67
f  162/64/67 224/65/67 161/62/67
f  163/66/67 225/67/67 162/64/67
f  164/68/67 226/69/67 163/66/67
f  165/70/67 227/71/67 164/68/67
f  166/72/67 228/73/67 165/70/67
f  167/74/67 229/75/67 166/72/67
f  168/76/67 230/77/67 167/74/67
f  169/78/67 231/79/67 168/76/67
f  170/80/67 232/81/67 169/78/67
f  171/82/67 233/83/67 170/80/67
f  172/84/67 234/85/67 171/82/67
f  173/86/67 235/87/67 172/84/67
f  174/88/67 236/89/67 173/86/67
f  175/90/67 237/91/67 174/88/67
f  176/92/67 238/93/67 175/90/67
f  177/94/67 239/95/67 176/92/67
f  178/96/67 240/97/67 177/94/67
f  179/98/67 241/99/67 178/96/67
f  180/100/67 242/101/67 179/98/67
f  181/102/67 243/103/67 180/100/67
f  182/104/67 244/105/67 181/102/67
f  183/106/67 245/107/67 182/104/67
f  184/108/67 246/109/67 183/106/67
f  185/110/67 247/111/67 184/108/67
f  186/112/67 248/113/67 185/110/67
f  187/114/67 249/115/67 186/112/67
f  188/116/67 250/117/67 187/114/67
f  189/118/67 251/119/67 188/116/67
f  190/120/67 252/121/67 189/118/67
f  191/122/67 253/123/67 190/120/67
f  192/124/67 254/125/67 191/122/67
f  193/126/67 194/127/67 192/124/67
f  254/125/67 194/127/67 255/128/67
f  253/123/67 191/122/67 254/125/67
f  252/121/67 190/120/67 253/123/67
f  251/119/67 189/118/67 252/121/67
f  250/117/67 188/116/67 251/119/67
f  249/115/67 187/114/67 250/117/67
f  248/113/67 186/112/67 249/115/67
f  247/111/67 185/110/67 248/113/67
f  246/109/67 184/108/67 247/111/67
f  245/107/67 183/106/67 246/109/67
f  244/105/67 182/104/67 245/107/67
f  243/103/67 181/102/67 244/105/67
f  242/101/67 180/100/67 243/103/67
f  241/99/67 179/98/67 242/101/67
f  240/97/67 178/96/67 241/99/67
f  239/95/67 177/94/67 240/97/67
f  238/93/67 176/92/67 239/95/67
f  237/91/67 175/90/67 238/93/67
f  236/89/67 174/88/67 237/91/67
f  235/87/67 173/86/67 236/89/67
f  234/85/67 172/84/67 235/87/67
f  233/83/67 171/82/67 234/85/67
f  232/81/67 170/80/67 233/83/67
f  231/79/67 169/78/67 232/81/67
f  230/77/67 168/76/67 231/79/67
f  229/75/67 167/74/67 230/77/67
f  228/73/67 166/72/67 229/75/67
f  227/71/67 165/70/67 228/73/67
f  226/69/67 164/68/67 227/71/67
f  225/67/67 163/66/67 226/69/67
f  224/65/67 162/64/67 225/67/67
f  223/63/67 161/62/67 224/65/67
f  222/61/67 160/60/67 223/63/67
f  221/59/67 159/58/67 222/61/67
f  220/57/67 158/56/67 221/59/67
f  219/55/67 157/54/67 220/57/67
f  218/53/67 156/52/67 219/55/67
f  217/51/67 155/50/67 218/53/67
f  216/49/67 154/48/67 217/51/67
f  215/47/67 153/46/67 216/49/67
f  214/45/67 152/44/67 215/47/67
f  213/43/67 151/42/67 214/45/67
f  212/41/67 150/40/67 213/43/67
f  211/39/67 149/38/67 212/41/67
f  210/37/67 148/36/67 211/39/67
f  209/35/67 147/34/67 210/37/67
f  208/33/67 146/32/67 209/35/67
f  207/31/67 145/30/67 208/33/67
f  206/29/67 144/28/67 207/31/67
f  205/27/67 143/26/67 206/29/67
f  204/25/67 142/24/67 205/27/67
f  203/23/67 141/22/67 204/25/67
f  202/21/67 140/20/67 203/23/67
f  201/19/67 139/18/67 202/21/67
f  200/17/67 138/16/67 201/19/67
f  199/15/67 137/14/67 200/17/67
f  198/13/67 136/12/67 199/15/67
f  197/11/67 135/10/67 198/13/67
f  196/9/67 134/8/67 197/11/67
f  195/7/67 133/6/67 196/9/67
f  256/129/67 132/5/67 195/7/67
f  257/130/67 132/5/67 256/129/67
f  258/131/67 194/2/67 257/130/67
f  255/132/67 194/2/67 258/131/67
f  132/5/67 257/130/67 194/2/67
f  192/124/67 194/127/67 254/125/67
f  124/125/68 254/124/68 3/128/69
f  122/123/70 253/122/70 124/125/68
f  120/121/71 252/120/71 122/123/70
f  118/119/72 251/118/72 120/121/71
f  116/117/73 250/116/73 118/119/72
f  114/115/74 249/114/74 116/117/73
f  112/113/75 248/112/75 114/115/74
f  110/111/76 247/110/76 112/113/75
f  108/109/77 246/108/77 110/111/76
f  106/107/78 245/106/78 108/109/77
f  104/105/79 244/104/79 106/107/78
f  102/103/80 243/102/80 104/105/79
f  100/101/81 242/100/81 102/103/80
f  98/99/82 241/98/82 100/101/81
f  96/97/83 240/96/83 98/99/82
f  94/95/18 239/94/18 96/97/83
f  92/93/84 238/92/84 94/95/18
f  90/91/85 237/90/85 92/93/84
f  88/89/86 236/88/86 90/91/85
f  86/87/87 235/86/87 88/89/86
f  84/85/88 234/84/88 86/87/87
f  82/83/89 233/82/89 84/85/88
f  80/81/90 232/80/90 82/83/89
f  78/79/91 231/78/91 80/81/90
f  76/77/92 230/76/92 78/79/91
f  74/75/93 229/74/93 76/77/92
f  72/73/94 228/72/94 74/75/93
f  70/71/95 227/70/95 72/73/94
f  68/69/96 226/68/96 70/71/95
f  66/67/97 225/66/97 68/69/96
f  64/65/98 224/64/98 66/67/97
f  62/63/99 223/62/99 64/65/98
f  60/61/100 222/60/100 62/63/99
f  58/59/101 221/58/101 60/61/100
f  56/57/102 220/56/102 58/59/101
f  54/55/103 219/54/103 56/57/102
f  52/53/104 218/52/104 54/55/103
f  50/51/105 217/50/105 52/53/104
f  48/49/106 216/48/106 50/51/105
f  46/47/107 215/46/107 48/49/106
f  44/45/108 214/44/108 46/47/107
f  42/43/109 213/42/109 44/45/108
f  40/41/110 212/40/110 42/43/109
f  38/39/111 211/38/111 40/41/110
f  36/37/112 210/36/112 38/39/111
f  34/35/113 209/34/113 36/37/112
f  32/33/114 208/32/114 34/35/113
f  30/31/50 207/30/50 32/33/114
f  28/29/115 206/28/115 30/31/50
f  26/27/116 205/26/116 28/29/115
f  24/25/117 204/24/117 26/27/116
f  22/23/118 203/22/118 24/25/117
f  20/21/119 202/20/119 22/23/118
f  18/19/120 201/18/120 20/21/119
f  16/17/121 200/16/121 18/19/120
f  14/15/122 199/14/122 16/17/121
f  12/13/123 198/12/123 14/15/122
f  10/11/124 197/10/124 12/13/123
f  8/9/125 196/8/125 10/11/124
f  6/7/126 195/6/126 8/9/125
f  5/129/127 256/5/127 6/7/126
f  4/130/128 257/4/128 5/129/127
f  1/131/129 258/1/129 4/130/128
f  3/132/130 255/3/130 1/131/129
f  258/1/129 1/131/129 255/3/130
f  257/4/128 4/130/128 258/1/129
f  256/5/127 5/129/127 257/4/128
f  195/6/126 6/7/126 256/5/127
f  196/8/125 8/9/125 195/6/126
f  197/10/124 10/11/124 196/8/125
f  198/12/123 12/13/123 197/10/124
f  199/14/122 14/15/122 198/12/123
f  200/16/121 16/17/121 199/14/122
f  201/18/120 18/19/120 200/16/121
f  202/20/119 20/21/119 201/18/120
f  203/22/118 22/23/118 202/20/119
f  204/24/117 24/25/117 203/22/118
f  205/26/116 26/27/116 204/24/117
f  206/28/115 28/29/115 205/26/116
f  207/30/50 30/31/50 206/28/115
f  208/32/114 32/33/114 207/30/50
f  209/34/113 34/35/113 208/32/114
f  210/36/112 36/37/112 209/34/113
f  211/38/111 38/39/111 210/36/112
f  212/40/110 40/41/110 211/38/111
f  213/42/109 42/43/109 212/40/110
f  214/44/108 44/45/108 213/42/109
f  215/46/107 46/47/107 214/44/108
f  216/48/106 48/49/106 215/46/107
f  217/50/105 50/51/105 216/48/106
f  218/52/104 52/53/104 217/50/105
f  219/54/103 54/55/103 218/52/104
f  220/56/102 56/57/102 219/54/103
f  221/58/101 58/59/101 220/56/102
f  222/60/100 60/61/100 221/58/101
f  223/62/99 62/63/99 222/60/100
f  224/64/98 64/65/98 223/62/99
f  225/66/97 66/67/97 224/64/98
f  226/68/96 68/69/96 225/66/97
f  227/70/95 70/71/95 226/68/96
f  228/72/94 72/73/94 227/70/95
f  229/74/93 74/75/93 228/72/94
f  230/76/92 76/77/92 229/74/93
f  231/78/91 78/79/91 230/76/92
f  232/80/90 80/81/90 231/78/91
f  233/82/89 82/83/89 232/80/90
f  234/84/88 84/85/88 233/82/89
f  235/86/87 86/87/87 234/84/88
f  236/88/86 88/89/86 235/86/87
f  237/90/85 90/91/85 236/88/86
f  238/92/84 92/93/84 237/90/85
f  239/94/18 94/95/18 238/92/84
f  240/96/83 96/97/83 239/94/18
f  241/98/82 98/99/82 240/96/83
f  242/100/81 100/101/81 241/98/82
f  243/102/80 102/103/80 242/100/81
f  244/104/79 104/105/79 243/102/80
f  245/106/78 106/107/78 244/104/79
f  246/108/77 108/109/77 245/106/78
f  247/110/76 110/111/76 246/108/77
f  248/112/75 112/113/75 247/110/76
f  249/114/74 114/115/74 248/112/75
f  250/116/73 116/117/73 249/114/74
f  251/118/72 118/119/72 250/116/73
f  252/120/71 120/121/71 251/118/72
f  253/122/70 122/123/70 252/120/71
f  254/124/68 124/125/68 253/122/70
f  255/126/69 3/128/69 254/124/68

