# File produced by Open Asset Import Library (http://www.assimp.sf.net)
# (assimp v5.3.0)

mtllib ship.mtl

# 523 vertex positions
v 4.10122156 -0.253304422 3.02173185
v 4.10122156 -0.253304422 2.79270172
v 4.14953756 0 3.02173185
v 3.94798303 -0.48659566 3.02173185
v 3.94798303 -0.48659566 2.79270172
v 3.71469188 -0.639833987 3.02173185
v 3.71469188 -0.639833987 2.79270172
v 3.4613874 -0.688150167 3.02173185
v 3.4613874 -0.688150167 2.79270172
v 3.20808291 -0.639833987 3.02173185
v 2.97479177 -0.48659566 3.02173185
v 3.20808291 -0.639833987 2.79270172
v 2.82155347 -0.253304422 3.02173185
v 2.97479177 -0.48659566 2.79270172
v 2.77323723 -1.14600024e-16 3.02173185
v 2.82155347 -0.253304422 2.79270172
v 2.82155347 0.253304422 3.02173185
v 2.82155347 0.253304422 2.79270172
v 2.97479177 0.48659566 3.02173185
v 2.97479177 0.48659566 2.79270172
v 3.20808291 0.639833987 3.02173185
v 3.20808291 0.639833987 2.79270172
v 3.4613874 0.688150167 3.02173185
v 3.4613874 0.688150167 2.79270172
v 3.71469188 0.639833987 3.02173185
v 3.71469188 0.639833987 2.79270172
v 3.94798303 0.48659566 3.02173185
v 3.94798303 0.48659566 2.79270172
v 4.10122156 0.253304422 3.02173185
v 4.10122156 0.253304422 2.79270172
v 4.14953756 0 2.79270172
v 2.77323723 -1.14600024e-16 2.79270172
v 3.8054626 -1.66533454e-16 3.02173185
v 3.4613874 -1.11022302e-16 3.02173185
v 3.8054626 -0.344075084 3.02173185
v 3.4613874 -0.344075084 3.02173185
v 3.8054626 0.344075084 3.02173185
v 3.4613874 0.344075084 3.02173185
v 3.11731243 0.344075084 3.02173185
v 3.11731243 -1.2490009e-16 3.02173185
v 3.11731243 -0.344075084 3.02173185
v 3.8054626 0 2.79270172
v 3.4613874 0 2.79270172
v 3.8054626 0.344075084 2.79270172
v 3.4613874 0.344075084 2.79270172
v 3.8054626 -0.344075084 2.79270172
v 3.4613874 -0.344075084 2.79270172
v 3.11731243 -0.344075084 2.79270172
v 3.11731243 0 2.79270172
v 3.11731243 0.344075084 2.79270172
v -0.470654696 -0.334302455 3.05375743
v -0.470654696 -0.334302455 2.75075626
v -0.406733632 0.000812723825 3.05375743
v -0.673385024 -0.64294064 3.05375743
v -0.673385024 -0.64294064 2.75075626
v -0.982023239 -0.845670998 3.05375743
v -0.982023239 -0.845670998 2.75075626
v -1.31713843 -0.909592032 3.05375743
v -1.31713843 -0.909592032 2.75075626
v -1.65225351 -0.845670998 3.05375743
v -1.96089172 -0.64294064 3.05375743
v -1.65225351 -0.845670998 2.75075626
v -2.16362214 -0.334302455 3.05375743
v -1.96089172 -0.64294064 2.75075626
v -2.22754312 0.000812723825 3.05375743
v -2.16362214 -0.334302455 2.75075626
v -2.16362214 0.335927904 3.05375743
v -2.16362214 0.335927904 2.75075626
v -1.96089172 0.644566119 3.05375743
v -1.96089172 0.644566119 2.75075626
v -1.65225351 0.847296417 3.05375743
v -1.65225351 0.847296417 2.75075626
v -1.31713843 0.911217511 3.05375743
v -1.31713843 0.911217511 2.75075626
v -0.982023239 0.847296417 3.05375743
v -0.982023239 0.847296417 2.75075626
v -0.673385024 0.644566119 3.05375743
v -0.673385024 0.644566119 2.75075626
v -0.470654696 0.335927904 3.05375743
v -0.470654696 0.335927904 2.75075626
v -0.406733632 0.000812723825 2.75075626
v -2.22754312 0.000812723825 2.75075626
v -0.861936033 0.000812723825 3.05375743
v -1.31713843 0.000812723825 3.05375743
v -0.861936033 -0.454389662 3.05375743
v -1.31713843 -0.454389662 3.05375743
v -0.861936033 0.45601511 3.05375743
v -1.31713843 0.45601511 3.05375743
v -1.77234077 0.45601511 3.05375743
v -1.77234077 0.000812723825 3.05375743
v -1.77234077 -0.454389662 3.05375743
v -0.861936033 0.000812723825 2.75075626
v -1.31713843 0.000812723825 2.75075626
v -0.861936033 0.45601511 2.75075626
v -1.31713843 0.45601511 2.75075626
v -0.861936033 -0.454389662 2.75075626
v -1.31713843 -0.454389662 2.75075626
v -1.77234077 -0.454389662 2.75075626
v -1.77234077 0.000812723825 2.75075626
v -1.77234077 0.45601511 2.75075626
v -2.82742858 -0.253304422 3.02262402
v -2.82742858 -0.253304422 2.79359365
v -2.77911234 0 3.02262402
v -2.98066688 -0.48659566 3.02262402
v -2.98066688 -0.48659566 2.79359365
v -3.21395802 -0.639833987 3.02262402
v -3.21395802 -0.639833987 2.79359365
v -3.46726251 -0.688150167 3.02262402
v -3.46726251 -0.688150167 2.79359365
v -3.72056699 -0.639833987 3.02262402
v -3.95385814 -0.48659566 3.02262402
v -3.72056699 -0.639833987 2.79359365
v -4.10709667 -0.253304422 3.02262402
v -3.95385814 -0.48659566 2.79359365
v -4.15541267 -1.14600024e-16 3.02262402
v -4.10709667 -0.253304422 2.79359365
v -4.10709667 0.253304422 3.02262402
v -4.10709667 0.253304422 2.79359365
v -3.95385814 0.48659566 3.02262402
v -3.95385814 0.48659566 2.79359365
v -3.72056699 0.639833987 3.02262402
v -3.72056699 0.639833987 2.79359365
v -3.46726251 0.688150167 3.02262402
v -3.46726251 0.688150167 2.79359365
v -3.21395802 0.639833987 3.02262402
v -3.21395802 0.639833987 2.79359365
v -2.98066688 0.48659566 3.02262402
v -2.98066688 0.48659566 2.79359365
v -2.82742858 0.253304422 3.02262402
v -2.82742858 0.253304422 2.79359365
v -2.77911234 0 2.79359365
v -4.15541267 -1.14600024e-16 2.79359365
v -3.12318754 -1.66533454e-16 3.02262402
v -3.46726251 -1.11022302e-16 3.02262402
v -3.12318754 -0.344075084 3.02262402
v -3.46726251 -0.344075084 3.02262402
v -3.12318754 0.344075084 3.02262402
v -3.46726251 0.344075084 3.02262402
v -3.81133747 0.344075084 3.02262402
v -3.81133747 -1.2490009e-16 3.02262402
v -3.81133747 -0.344075084 3.02262402
v -3.12318754 0 2.79359365
v -3.46726251 0 2.79359365
v -3.12318754 0.344075084 2.79359365
v -3.46726251 0.344075084 2.79359365
v -3.12318754 -0.344075084 2.79359365
v -3.46726251 -0.344075084 2.79359365
v -3.81133747 -0.344075084 2.79359365
v -3.81133747 0 2.79359365
v -3.81133747 0.344075084 2.79359365
v 0.59865135 -0.334302455 2.75075626
v 0.59865135 -0.334302455 3.05375743
v 0.534730256 0.000812723825 3.05375743
v 0.801381648 -0.64294064 2.75075626
v 0.801381648 -0.64294064 3.05375743
v 1.1100198 -0.845670998 2.75075626
v 1.1100198 -0.845670998 3.05375743
v 1.445135 -0.909592032 2.75075626
v 1.445135 -0.909592032 3.05375743
v 1.78025019 -0.845670998 3.05375743
v 1.78025019 -0.845670998 2.75075626
v 2.08888841 -0.64294064 3.05375743
v 2.08888841 -0.64294064 2.75075626
v 2.29161882 -0.334302455 3.05375743
v 2.29161882 -0.334302455 2.75075626
v 2.3555398 0.000812723825 3.05375743
v 2.29161882 0.335927904 2.75075626
v 2.29161882 0.335927904 3.05375743
v 2.08888841 0.644566119 2.75075626
v 2.08888841 0.644566119 3.05375743
v 1.78025019 0.847296417 2.75075626
v 1.78025019 0.847296417 3.05375743
v 1.445135 0.911217511 2.75075626
v 1.445135 0.911217511 3.05375743
v 1.1100198 0.847296417 2.75075626
v 1.1100198 0.847296417 3.05375743
v 0.801381648 0.644566119 2.75075626
v 0.801381648 0.644566119 3.05375743
v 0.59865135 0.335927904 2.75075626
v 0.59865135 0.335927904 3.05375743
v 0.534730256 0.000812723825 2.75075626
v 2.3555398 0.000812723825 2.75075626
v 1.445135 -0.454389662 3.05375743
v 1.445135 0.000812723825 3.05375743
v 0.989932656 -0.454389662 3.05375743
v 0.989932656 0.000812723825 3.05375743
v 1.445135 0.45601511 3.05375743
v 0.989932656 0.45601511 3.05375743
v 1.90033746 0.000812723825 3.05375743
v 1.90033746 0.45601511 3.05375743
v 1.90033746 -0.454389662 3.05375743
v 1.445135 0.45601511 2.75075626
v 1.445135 0.000812723825 2.75075626
v 0.989932656 0.45601511 2.75075626
v 0.989932656 0.000812723825 2.75075626
v 1.445135 -0.454389662 2.75075626
v 0.989932656 -0.454389662 2.75075626
v 1.90033746 0.000812723825 2.75075626
v 1.90033746 -0.454389662 2.75075626
v 1.90033746 0.45601511 2.75075626
v 2.1127975 -0.66795522 0.375382841
v 1.43537068 -0.44740954 -2.17654324
v 2.8454113 -0.534532607 0.375382841
v 3.39071536 -0.366938263 0.375382841
v 2.29080677 -0.245909274 -2.17654324
v 3.71017122 -0.182985649 0.375382841
v 3.809304 -0.000851121324 0.375382841
v 2.5710094 -0.000851121324 -2.17654324
v 3.94066954 -0.427452773 1.65134585
v 4.16043186 -0.321261853 1.65134585
v 4.31293201 -0.213092625 1.65134585
v 4.40062809 -0.105541378 1.65134585
v 4.42845106 -0.000851121324 1.65134585
v 4.61431217 -0.228146121 2.28932738
v 4.6696682 -0.170313135 2.28932738
v 4.70822811 -0.112966664 2.28932738
v 4.73072958 -0.0563937835 2.28932738
v 4.73802471 -0.000851121324 2.28932738
v 4.86202812 -0.116679303 2.60831809
v 4.87567282 -0.0873389393 2.60831809
v 4.88527489 -0.0582330488 2.60831809
v 4.89094782 -0.029393753 2.60831809
v 4.89281178 -0.000851121324 2.60831809
v 4.96831131 -0.0298511907 2.76781368
v 4.9625473 -0.0591526777 2.76781368
v 4.97020483 -0.000851121324 2.76781368
v 4.95279169 -0.0887250379 2.76781368
v 4.93892813 -0.118535623 2.76781368
v 4.76500225 -0.235672861 2.60831809
v 4.79580784 -0.205755696 2.60831809
v 4.82219124 -0.175924778 2.60831809
v 4.87164688 -0.209039599 2.76781368
v 4.84034729 -0.239436239 2.76781368
v 4.89845276 -0.178730592 2.76781368
v 4.45099592 -0.343987405 2.28932738
v 4.21564674 -0.457709998 2.28932738
v 4.54156446 -0.286150604 2.28932738
v 4.68984556 -0.295598149 2.60831809
v 4.59627819 -0.355350167 2.60831809
v 3.30522656 -0.62275058 1.65134585
v 2.45151091 -0.778228045 1.65134585
v 0.0637241527 -0.000851121324 -7.34365511
v 0.753426015 -0.513735831 -2.17654324
v 1.09405506 -0.767038584 0.375382841
v 0.0637241527 -0.534316063 -2.17654324
v 0.0637241527 -0.797782958 0.375382841
v -0.582001626 -0.516321063 -2.17654324
v -0.900911748 -0.770900607 0.375382841
v -1.22626913 -0.458292782 -2.17654324
v -1.86336935 -0.684213459 0.375382841
v -3.68185568 -0.000851121324 0.375382841
v -2.44356108 -0.000851121324 -2.17654324
v -3.57485938 -0.18997094 0.375382841
v -3.2299192 -0.380343586 0.375382841
v -2.14103556 -0.254882783 -2.17654324
v -2.64358616 -0.551575482 0.375382841
v -3.09110665 -0.642610669 1.65134585
v -3.7743609 -0.443074018 1.65134585
v -2.18191934 -0.797173798 1.65134585
v -4.30100298 -0.000851121324 1.65134585
v -4.27100372 -0.10954459 1.65134585
v -4.17632008 -0.221232593 1.65134585
v -4.01158667 -0.333384901 1.65134585
v -4.4770503 -0.236863419 2.28932738
v -4.39846611 -0.297042757 2.28932738
v -4.30063295 -0.356970251 2.28932738
v -4.04658175 -0.474439204 2.28932738
v -4.54622889 -0.30685097 2.60831809
v -4.62741566 -0.24467884 2.60831809
v -4.4451561 -0.36876294 2.60831809
v -4.61057663 -0.000851121324 2.28932738
v -4.60271597 -0.0585029051 2.28932738
v -4.57844973 -0.11725381 2.28932738
v -4.5368309 -0.176815227 2.28932738
v -4.68917561 -0.182642177 2.60831809
v -4.73217249 -0.12110842 2.60831809
v -4.66068697 -0.213619888 2.60831809
v -4.73640251 -0.217029825 2.76781368
v -4.76534796 -0.185555652 2.76781368
v -4.70259809 -0.24858655 2.76781368
v -4.75724268 -0.0604120083 2.60831809
v -4.76536322 -0.000851121324 2.60831809
v -4.74689007 -0.0906360298 2.60831809
v -4.82398748 -0.0920749679 2.76781368
v -4.83450603 -0.0613665618 2.76781368
v -4.80903387 -0.123035721 2.76781368
v -1.9853493 0.666252971 0.375382841
v -1.30792236 0.445707321 -2.17654324
v -2.71796298 0.532830358 0.375382841
v -3.26326704 0.365236014 0.375382841
v -2.16335845 0.244207039 -2.17654324
v -3.5827229 0.181283414 0.375382841
v -3.81322122 0.425750524 1.65134585
v -4.03298378 0.319559634 1.65134585
v -4.18548346 0.211390391 1.65134585
v -4.27317953 0.103839137 1.65134585
v -4.48686361 0.226443872 2.28932738
v -4.54221964 0.168610901 2.28932738
v -4.58078003 0.111264415 2.28932738
v -4.60328102 0.0546915419 2.28932738
v -4.73458004 0.114977062 2.60831809
v -4.74822426 0.0856366977 2.60831809
v -4.75782633 0.0565308034 2.60831809
v -4.76349974 0.0276915096 2.60831809
v -4.84086323 0.0281489491 2.76781368
v -4.83509922 0.0574504361 2.76781368
v -4.84275675 -0.000851121324 2.76781368
v -4.82534313 0.0870227963 2.76781368
v -4.81148005 0.116833381 2.76781368
v -4.63755369 0.233970627 2.60831809
v -4.66835976 0.204053462 2.60831809
v -4.69474316 0.174222529 2.60831809
v -4.74419832 0.207337365 2.76781368
v -4.71289921 0.23773399 2.76781368
v -4.77100468 0.177028358 2.76781368
v -4.32354784 0.342285156 2.28932738
v -4.08819818 0.456007749 2.28932738
v -4.41411591 0.284448355 2.28932738
v -4.56239748 0.2938959 2.60831809
v -4.46882963 0.353647918 2.60831809
v -3.17777824 0.621048331 1.65134585
v -2.32406282 0.776525795 1.65134585
v -0.625977755 0.512033582 -2.17654324
v -0.966606736 0.765336394 0.375382841
v 0.0637241527 0.532613814 -2.17654324
v 0.0637241527 0.796080768 0.375382841
v 0.709449887 0.514618814 -2.17654324
v 1.02836001 0.769198358 0.375382841
v 1.35371745 0.456590563 -2.17654324
v 1.99081755 0.68251121 0.375382841
v 3.7023077 0.188268691 0.375382841
v 3.35736752 0.378641367 0.375382841
v 2.26848388 0.253180534 -2.17654324
v 2.77103448 0.549873233 0.375382841
v 3.21855497 0.64090842 1.65134585
v 3.90180922 0.441371769 1.65134585
v 2.30936766 0.795471549 1.65134585
v 4.39845181 0.107842349 1.65134585
v 4.30376816 0.219530359 1.65134585
v 4.13903475 0.331682652 1.65134585
v 4.60449886 0.235161185 2.28932738
v 4.52591467 0.295340508 2.28932738
v 4.42808151 0.355268031 2.28932738
v 4.1740303 0.472736955 2.28932738
v 4.67367744 0.305148721 2.60831809
v 4.75486374 0.242976591 2.60831809
v 4.57260466 0.367060691 2.60831809
v 4.73016453 0.0568006597 2.28932738
v 4.70589781 0.115551569 2.28932738
v 4.66427898 0.175112978 2.28932738
v 4.81662369 0.180939943 2.60831809
v 4.85962057 0.119406179 2.60831809
v 4.78813505 0.211917639 2.60831809
v 4.86385107 0.215327591 2.76781368
v 4.89279604 0.183853418 2.76781368
v 4.83004665 0.246884301 2.76781368
v 4.89080429 0.028770227 2.60831809
v 4.88469124 0.0587097667 2.60831809
v 4.87433863 0.0889337882 2.60831809
v 4.95143604 0.0903727263 2.76781368
v 4.96195412 0.0596643202 2.76781368
v 4.93648243 0.12133348 2.76781368
v 4.9681654 0.0292449538 2.76781368
v 5.02743816 -0.0961326584 2.92730904
v 5.04759836 -0.000851121324 2.92730904
v 4.96439457 -0.193804517 2.92730904
v 4.69767237 -0.39117831 2.92730904
v 3.58785558 -0.75066632 2.92730904
v 0.0637241527 -1.06124985 2.92730904
v -3.46040726 -0.75066632 2.92730904
v -4.57022381 -0.39117831 2.92730904
v -4.83694601 -0.193804517 2.92730904
v -4.89999008 -0.0961326584 2.92730904
v -4.92015028 -0.000851121324 2.92730904
v -4.89999008 0.0944304168 2.92730904
v -4.83694601 0.192102283 2.92730904
v -4.57022381 0.389476061 2.92730904
v -3.46040726 0.748964071 2.92730904
v 0.0637241527 1.05954766 2.92730904
v 3.58785558 0.748964071 2.92730904
v 4.69767237 0.389476061 2.92730904
v 4.96439457 0.192102283 2.92730904
v 5.02743816 0.0944304168 2.92730904
v -2.42821288 -0.531050503 2.92730904
v 0.0637241527 -0.531050503 2.92730904
v -2.42821288 -0.265950829 2.92730904
v -2.42821288 -0.000851121324 2.92730904
v 0.0637241527 -0.000851121324 2.92730904
v -3.67418146 -0.398500651 2.92730904
v -3.67418146 -0.265950829 2.92730904
v -4.29716587 -0.398500651 2.92730904
v -4.29716587 -0.265950829 2.92730904
v -3.67418146 -0.531050503 2.92730904
v -3.67418146 -0.133400977 2.92730904
v -3.67418146 -0.000851121324 2.92730904
v -4.29716587 -0.199675888 2.92730904
v -4.60865784 -0.265950829 2.92730904
v -4.60865784 -0.199675888 2.92730904
v -4.29716587 -0.133400977 2.92730904
v -4.60865784 -0.133400977 2.92730904
v -4.29716587 -0.0671260431 2.92730904
v -4.29716587 -0.000851121324 2.92730904
v -4.60865784 -0.100263506 2.92730904
v -4.7644043 -0.133400977 2.92730904
v -4.7644043 -0.100263506 2.92730904
v -4.60865784 -0.0671260431 2.92730904
v -4.7644043 -0.0671260431 2.92730904
v -4.60865784 -0.0339885838 2.92730904
v -4.60865784 -0.000851121324 2.92730904
v -4.7644043 -0.0339885838 2.92730904
v -4.7644043 -0.000851121324 2.92730904
v 3.80162978 -0.265950829 2.92730904
v 2.5556612 -0.265950829 2.92730904
v 3.80162978 -0.398500651 2.92730904
v 3.80162978 -0.531050503 2.92730904
v 2.5556612 -0.531050503 2.92730904
v 4.42461395 -0.398500651 2.92730904
v 4.42461395 -0.265950829 2.92730904
v 4.42461395 -0.133400977 2.92730904
v 3.80162978 -0.133400977 2.92730904
v 4.42461395 -0.199675888 2.92730904
v 4.7361064 -0.265950829 2.92730904
v 4.7361064 -0.199675888 2.92730904
v 4.7361064 -0.133400977 2.92730904
v 4.7361064 -0.0671260431 2.92730904
v 4.42461395 -0.0671260431 2.92730904
v 4.7361064 -0.100263506 2.92730904
v 4.89185238 -0.133400977 2.92730904
v 4.89185238 -0.100263506 2.92730904
v 4.89185238 -0.0671260431 2.92730904
v 4.7361064 -0.000851121324 2.92730904
v 4.42461395 -0.000851121324 2.92730904
v 3.80162978 -0.000851121324 2.92730904
v 2.5556612 -0.000851121324 2.92730904
v 2.5556612 0.529348254 2.92730904
v 0.0637241527 0.529348254 2.92730904
v 2.5556612 0.26424858 2.92730904
v 3.80162978 0.26424858 2.92730904
v 3.80162978 0.131698728 2.92730904
v 4.42461395 0.131698728 2.92730904
v 4.42461395 0.0654238015 2.92730904
v 4.7361064 0.0654238015 2.92730904
v 4.89185238 0.0654238015 2.92730904
v 4.89185238 0.0985612646 2.92730904
v 4.7361064 0.0985612646 2.92730904
v 4.89185238 0.131698728 2.92730904
v 4.7361064 0.131698728 2.92730904
v 4.7361064 0.197973654 2.92730904
v 4.42461395 0.197973654 2.92730904
v 4.7361064 0.26424858 2.92730904
v 4.42461395 0.26424858 2.92730904
v 4.42461395 0.396798432 2.92730904
v 3.80162978 0.396798432 2.92730904
v 3.80162978 0.529348254 2.92730904
v -4.29716587 0.0654238015 2.92730904
v -4.60865784 0.0654238015 2.92730904
v -4.60865784 0.0985612646 2.92730904
v -4.60865784 0.131698728 2.92730904
v -4.29716587 0.131698728 2.92730904
v -4.7644043 0.0654238015 2.92730904
v -4.7644043 0.0985612646 2.92730904
v -4.7644043 0.131698728 2.92730904
v -3.67418146 0.131698728 2.92730904
v -4.29716587 0.197973654 2.92730904
v -4.29716587 0.26424858 2.92730904
v -3.67418146 0.26424858 2.92730904
v -4.60865784 0.197973654 2.92730904
v -4.60865784 0.26424858 2.92730904
v -2.42821288 0.26424858 2.92730904
v -3.67418146 0.396798432 2.92730904
v -3.67418146 0.529348254 2.92730904
v -2.42821288 0.529348254 2.92730904
v -4.29716587 0.396798432 2.92730904
v 0.757695317 0.734378815 -0.771534026
v 0.0657028109 0.831840694 0.0976462066
v 0.600303411 0.510492384 -0.720874965
v 0.985446513 0.598186731 -1.98494446
v 0.776854932 0.301469982 -1.91780603
v 0.991585493 0.463603377 -3.18367481
v 0.782370508 0.165999815 -3.11633563
v 0.777290881 0.326955825 -4.40044069
v 0.617780924 0.100056529 -4.34910011
v 0.0810288638 0.226580977 -5.293365
v 0.355598032 0.414361507 -0.698407471
v 0.452546805 0.174067661 -1.88802981
v 0.457093149 0.0382167287 -3.08647037
v 0.369782507 0.00263198465 -4.32633018
v 0.0680110678 0.382344753 -0.690091848
v 0.0714077279 0.131635845 -1.87700915
v 0.074814938 -0.00434190268 -3.0754168
v 0.0783254579 -0.0298156235 -4.31790257
v -0.207001701 0.411648721 -0.695527911
v -0.2930668 0.170472428 -1.88421357
v -0.290748864 0.0346107557 -3.08264279
v -0.200388178 -0.000117286814 -4.32341194
v -0.465166897 0.511399746 -0.716772079
v -0.635213196 0.302672476 -1.91236842
v -0.633917868 0.167205885 -3.11088181
v -0.46202752 0.100976072 -4.34494162
v -0.621363342 0.734749615 -0.76604408
v -0.842220426 0.598678172 -1.97766864
v -0.841543734 0.464096248 -3.17637706
v -0.620325923 0.327331603 -4.39487696
v -0.463971436 0.958636045 -0.8167032
v -0.633628845 0.895394921 -2.0448072
v -0.632328749 0.761699796 -3.24371624
v -0.460815966 0.554230869 -4.44621754
v -0.219266042 1.05476701 -0.839170635
v -0.309320718 1.02279723 -2.07458329
v -0.30705139 0.889482915 -3.2735815
v -0.212817565 0.651655436 -4.46898746
v 0.0683209077 1.08678377 -0.847486317
v 0.0718183592 1.06522906 -2.08560395
v 0.0752267987 0.932041526 -3.28463507
v 0.07863947 0.684103072 -4.47741508
v 0.343333691 1.05747974 -0.842050254
v 0.436292887 1.02639246 -2.07839966
v 0.440790623 0.893088877 -3.27740908
v 0.357353121 0.6544047 -4.47190571
v 0.601498842 0.957728744 -0.820806086
v 0.778439283 0.894192457 -2.05024481
v 0.783959568 0.760493755 -3.24917006
v 0.618992448 0.553311348 -4.45037603

# 394 UV coordinates
vt 0.0625 0 0
vt 0.0625 1 0
vt 0 0 0
vt 0.125 0 0
vt 0.125 1 0
vt 0.1875 0 0
vt 0.1875 1 0
vt 0.25 0 0
vt 0.25 1 0
vt 0.3125 0 0
vt 0.375 0 0
vt 0.3125 1 0
vt 0.4375 0 0
vt 0.375 1 0
vt 0.5 0 0
vt 0.4375 1 0
vt 0.5625 0 0
vt 0.5625 1 0
vt 0.625 0 0
vt 0.625 1 0
vt 0.6875 0 0
vt 0.6875 1 0
vt 0.75 0 0
vt 0.75 1 0
vt 0.8125 0 0
vt 0.8125 1 0
vt 0.875 0 0
vt 0.875 1 0
vt 0.9375 0 0
vt 0.9375 1 0
vt 1 0 0
vt 1 1 0
vt 0.5 1 0
vt 0 1 0
vt 0.5 0.75 0
vt 0.5 0.5 0
vt 0.75 0.75 0
vt 0.75 0.5 0
vt 0.25 0.75 0
vt 0.25 0.5 0
vt 0.25 0.25 0
vt 0.5 0.25 0
vt 0.75 0.25 0
vt 0.315952659 0.964894176 0
vt 0.146446615 0.853553414 0
vt 0.0351058505 0.684047341 0
vt 0 0.5 0
vt 0.0351058505 0.315952659 0
vt 0.146446615 0.146446586 0
vt 0.315952659 0.0351058245 0
vt 0.684047341 0.0351058245 0
vt 0.853553414 0.146446586 0
vt 0.964894176 0.315952659 0
vt 1 0.5 0
vt 0.964894176 0.684047341 0
vt 0.853553414 0.853553414 0
vt 0.684047341 0.964894176 0
vt 0.156276479 0.248460233 0
vt 0.156276479 0.496920466 0
vt 0.117207356 0.248460233 0
vt 0.0781382397 0.248460233 0
vt 0.0781382397 0.496920466 0
vt 0.0390691198 0.248460233 0
vt 0 0.248460233 0
vt 0 0.496920466 0
vt 0.0781382397 0.124230146 0
vt 0.0586036779 0.124230146 0
vt 0.0390691198 0.124230146 0
vt 0.0195345599 0.124230146 0
vt 0 0.124230146 0
vt 0.0390691198 0.0621150732 0
vt 0.0293018389 0.0621150732 0
vt 0.0195345599 0.0621150732 0
vt 0.00976727996 0.0621150732 0
vt 0 0.0621150732 0
vt 0.0195345599 0.0310575366 0
vt 0.0146509195 0.0310575366 0
vt 0.00976727996 0.0310575366 0
vt 0.00488363998 0.0310575366 0
vt 0 0.0310575366 0
vt 0.00488363998 0.0155287385 0
vt 0.00976727996 0.0155287385 0
vt 0 0.0155287385 0
vt 0.0146509195 0.0155287385 0
vt 0.0195345599 0.0155287385 0
vt 0.0390691198 0.0310575366 0
vt 0.0341854803 0.0310575366 0
vt 0.0293018389 0.0310575366 0
vt 0.0341854803 0.0155287385 0
vt 0.0390691198 0.0155287385 0
vt 0.0293018389 0.0155287385 0
vt 0.0586036779 0.0621150732 0
vt 0.0781382397 0.0621150732 0
vt 0.0488363989 0.0621150732 0
vt 0.0488363989 0.0310575366 0
vt 0.0586036779 0.0310575366 0
vt 0.117207356 0.124230146 0
vt 0.156276479 0.124230146 0
vt 0.156276479 1 0
vt 0.203138232 0.496920466 0
vt 0.203138232 0.248460233 0
vt 0.25 0.496920466 0
vt 0.25 0.248460233 0
vt 0.293924987 0.496920466 0
vt 0.293924987 0.248460233 0
vt 0.337850004 0.496920466 0
vt 0.337850004 0.248460233 0
vt 0.337850004 1 0
vt 0.5 0.248460233 0
vt 0.5 0.496920466 0
vt 0.459462494 0.248460233 0
vt 0.418924987 0.248460233 0
vt 0.418924987 0.496920466 0
vt 0.378387511 0.248460233 0
vt 0.378387511 0.124230146 0
vt 0.418924987 0.124230146 0
vt 0.337850004 0.124230146 0
vt 0.5 0.124230146 0
vt 0.479731262 0.124230146 0
vt 0.459462494 0.124230146 0
vt 0.439193755 0.124230146 0
vt 0.459462494 0.0621150732 0
vt 0.449328125 0.0621150732 0
vt 0.439193755 0.0621150732 0
vt 0.418924987 0.0621150732 0
vt 0.449328125 0.0310575366 0
vt 0.459462494 0.0310575366 0
vt 0.439193755 0.0310575366 0
vt 0.5 0.0621150732 0
vt 0.489865631 0.0621150732 0
vt 0.479731262 0.0621150732 0
vt 0.469596863 0.0621150732 0
vt 0.469596863 0.0310575366 0
vt 0.479731262 0.0310575366 0
vt 0.464529693 0.0310575366 0
vt 0.464529693 0.0155287385 0
vt 0.469596863 0.0155287385 0
vt 0.459462494 0.0155287385 0
vt 0.489865631 0.0310575366 0
vt 0.5 0.0310575366 0
vt 0.484798431 0.0310575366 0
vt 0.484798431 0.0155287385 0
vt 0.489865631 0.0155287385 0
vt 0.479731262 0.0155287385 0
vt 0.656276464 0.248460233 0
vt 0.656276464 0.496920466 0
vt 0.617207348 0.248460233 0
vt 0.578138232 0.248460233 0
vt 0.578138232 0.496920466 0
vt 0.539069116 0.248460233 0
vt 0.578138232 0.124230146 0
vt 0.558603704 0.124230146 0
vt 0.539069116 0.124230146 0
vt 0.519534588 0.124230146 0
vt 0.539069116 0.0621150732 0
vt 0.529301822 0.0621150732 0
vt 0.519534588 0.0621150732 0
vt 0.509767294 0.0621150732 0
vt 0.519534588 0.0310575366 0
vt 0.514650941 0.0310575366 0
vt 0.509767294 0.0310575366 0
vt 0.504883647 0.0310575366 0
vt 0.504883647 0.0155287385 0
vt 0.509767294 0.0155287385 0
vt 0.5 0.0155287385 0
vt 0.514650941 0.0155287385 0
vt 0.519534588 0.0155287385 0
vt 0.539069116 0.0310575366 0
vt 0.534185469 0.0310575366 0
vt 0.529301822 0.0310575366 0
vt 0.534185469 0.0155287385 0
vt 0.539069116 0.0155287385 0
vt 0.529301822 0.0155287385 0
vt 0.558603704 0.0621150732 0
vt 0.578138232 0.0621150732 0
vt 0.54883641 0.0621150732 0
vt 0.54883641 0.0310575366 0
vt 0.558603704 0.0310575366 0
vt 0.617207348 0.124230146 0
vt 0.656276464 0.124230146 0
vt 0.656276464 1 0
vt 0.703138232 0.496920466 0
vt 0.703138232 0.248460233 0
vt 0.75 0.496920466 0
vt 0.75 0.248460233 0
vt 0.793924987 0.496920466 0
vt 0.793924987 0.248460233 0
vt 0.837849975 0.496920466 0
vt 0.837849975 0.248460233 0
vt 0.837849975 1 0
vt 1 0.248460233 0
vt 1 0.496920466 0
vt 0.959462523 0.248460233 0
vt 0.918924987 0.248460233 0
vt 0.918924987 0.496920466 0
vt 0.878387511 0.248460233 0
vt 0.878387511 0.124230146 0
vt 0.918924987 0.124230146 0
vt 0.837849975 0.124230146 0
vt 1 0.124230146 0
vt 0.979731262 0.124230146 0
vt 0.959462523 0.124230146 0
vt 0.939193726 0.124230146 0
vt 0.959462523 0.0621150732 0
vt 0.949328125 0.0621150732 0
vt 0.939193726 0.0621150732 0
vt 0.918924987 0.0621150732 0
vt 0.949328125 0.0310575366 0
vt 0.959462523 0.0310575366 0
vt 0.939193726 0.0310575366 0
vt 1 0.0621150732 0
vt 0.989865601 0.0621150732 0
vt 0.979731262 0.0621150732 0
vt 0.969596863 0.0621150732 0
vt 0.969596863 0.0310575366 0
vt 0.979731262 0.0310575366 0
vt 0.964529693 0.0310575366 0
vt 0.964529693 0.0155287385 0
vt 0.969596863 0.0155287385 0
vt 0.959462523 0.0155287385 0
vt 1 0.0310575366 0
vt 0.99493283 0.0310575366 0
vt 0.989865601 0.0310575366 0
vt 0.984798431 0.0310575366 0
vt 0.984798431 0.0155287385 0
vt 0.989865601 0.0155287385 0
vt 0.979731262 0.0155287385 0
vt 0.99493283 0.0155287385 0
vt 1 0.0155287385 0
vt 0.015625 0 0
vt 0.03125 0 0
vt 0.46875 0 0
vt 0.484375 0 0
vt 0.515625 0 0
vt 0.53125 0 0
vt 0.96875 0 0
vt 0.984375 0 0
vt 0.75 0.625 0
vt 0.875 0.6875 0
vt 0.875 0.625 0
vt 0.9375 0.6875 0
vt 0.9375 0.625 0
vt 0.875 0.75 0
vt 0.875 0.5625 0
vt 0.875 0.5 0
vt 0.9375 0.59375 0
vt 0.96875 0.625 0
vt 0.96875 0.59375 0
vt 0.9375 0.5625 0
vt 0.96875 0.5625 0
vt 0.9375 0.53125 0
vt 0.9375 0.5 0
vt 0.96875 0.546875 0
vt 0.984375 0.5625 0
vt 0.984375 0.546875 0
vt 0.96875 0.53125 0
vt 0.984375 0.53125 0
vt 0.96875 0.515625 0
vt 0.96875 0.5 0
vt 0.984375 0.515625 0
vt 0.984375 0.5 0
vt 0.125 0.625 0
vt 0.25 0.625 0
vt 0.125 0.6875 0
vt 0.125 0.75 0
vt 0.0625 0.6875 0
vt 0.0625 0.625 0
vt 0.0625 0.5625 0
vt 0.125 0.5625 0
vt 0.0625 0.59375 0
vt 0.03125 0.625 0
vt 0.03125 0.59375 0
vt 0.03125 0.5625 0
vt 0.03125 0.53125 0
vt 0.0625 0.53125 0
vt 0.03125 0.546875 0
vt 0.015625 0.5625 0
vt 0.015625 0.546875 0
vt 0.015625 0.53125 0
vt 0.03125 0.5 0
vt 0.0625 0.5 0
vt 0.125 0.5 0
vt 0.25 0.375 0
vt 0.125 0.375 0
vt 0.125 0.4375 0
vt 0.0625 0.4375 0
vt 0.0625 0.46875 0
vt 0.03125 0.46875 0
vt 0.015625 0.46875 0
vt 0.015625 0.453125 0
vt 0.03125 0.453125 0
vt 0.015625 0.4375 0
vt 0.03125 0.4375 0
vt 0.03125 0.40625 0
vt 0.0625 0.40625 0
vt 0.03125 0.375 0
vt 0.0625 0.375 0
vt 0.0625 0.3125 0
vt 0.125 0.3125 0
vt 0.125 0.25 0
vt 0.9375 0.46875 0
vt 0.96875 0.46875 0
vt 0.96875 0.453125 0
vt 0.96875 0.4375 0
vt 0.9375 0.4375 0
vt 0.984375 0.46875 0
vt 0.984375 0.453125 0
vt 0.984375 0.4375 0
vt 0.875 0.4375 0
vt 0.9375 0.40625 0
vt 0.9375 0.375 0
vt 0.875 0.375 0
vt 0.96875 0.40625 0
vt 0.96875 0.375 0
vt 0.75 0.375 0
vt 0.875 0.3125 0
vt 0.875 0.25 0
vt 0.9375 0.3125 0
vt 0.00202254578 0.455072761 0
vt 0.00834731571 0.409018517 0
vt 0.991652668 0.409018517 0
vt 0.997977436 0.455072761 0
vt 0.997977436 0.544927239 0
vt 0.991652668 0.590981543 0
vt 0.00834731571 0.590981543 0
vt 0.00202254578 0.544927239 0
vt 0 0.261950016 0
vt 0.11044319 0.261950016 0
vt 0 0.421798468 0
vt 0.11044319 0.421798468 0
vt 0 0.573925018 0
vt 0.11044319 0.573925018 0
vt 0 0.733616114 0
vt 0.11044319 0.733616114 0
vt 0.11044319 1 0
vt 0.11044319 0 0
vt 0.179165244 0.261950016 0
vt 0.179165244 0.421798468 0
vt 0.179165244 0.573925018 0
vt 0.179165244 0.733616114 0
vt 0.179165244 1 0
vt 0.179165244 0 0
vt 0.25 0.261950016 0
vt 0.25 0.421798468 0
vt 0.25 0.573925018 0
vt 0.25 0.733616114 0
vt 0.317724794 0.261950016 0
vt 0.317724794 0.421798468 0
vt 0.317724794 0.573925018 0
vt 0.317724794 0.733616114 0
vt 0.317724794 1 0
vt 0.317724794 0 0
vt 0.389901876 0.261950016 0
vt 0.389901876 0.421798468 0
vt 0.389901876 0.573925018 0
vt 0.389901876 0.733616114 0
vt 0.389901876 1 0
vt 0.389901876 0 0
vt 0.5 0.261950016 0
vt 0.5 0.421798468 0
vt 0.5 0.573925018 0
vt 0.5 0.733616114 0
vt 0.610443175 0.261950016 0
vt 0.610443175 0.421798468 0
vt 0.610443175 0.573925018 0
vt 0.610443175 0.733616114 0
vt 0.610443175 1 0
vt 0.610443175 0 0
vt 0.679165244 0.261950016 0
vt 0.679165244 0.421798468 0
vt 0.679165244 0.573925018 0
vt 0.679165244 0.733616114 0
vt 0.679165244 1 0
vt 0.679165244 0 0
vt 0.75 0.261950016 0
vt 0.75 0.421798468 0
vt 0.75 0.573925018 0
vt 0.75 0.733616114 0
vt 0.817724824 0.261950016 0
vt 0.817724824 0.421798468 0
vt 0.817724824 0.573925018 0
vt 0.817724824 0.733616114 0
vt 0.817724824 1 0
vt 0.817724824 0 0
vt 0.889901876 0.261950016 0
vt 0.889901876 0.421798468 0
vt 0.889901876 0.573925018 0
vt 0.889901876 0.733616114 0
vt 0.889901876 1 0
vt 0.889901876 0 0
vt 1 0.261950016 0
vt 1 0.421798468 0
vt 1 0.573925018 0
vt 1 0.733616114 0

# 341 vertex normals
vn 0.926862657 -0.375400633 -3.68685038e-09
vn 0.982290387 -0.187364876 -3.94358013e-09
vn 0.70710665 -0.707106948 8.1969137e-10
vn 0.375400752 -0.926862597 -1.60231717e-09
vn -7.58490692e-09 -1 -4.09085299e-09
vn -0.375400722 -0.926862597 -0
vn -0.707106829 -0.707106709 -0
vn -0.926862597 -0.375400782 -0
vn -1 7.58490692e-09 -3.47630702e-09
vn -0.926862597 0.375400752 1.28880622e-08
vn -0.707106829 0.707106709 1.88946814e-08
vn -0.375400752 0.926862597 -1.60231717e-09
vn 0 1 0
vn 0.375400752 0.926862597 1.60231717e-09
vn 0.70710665 0.707106948 -8.1969137e-10
vn 0.926862657 0.375400633 3.68685038e-09
vn 0.982290387 0.187364876 3.94358013e-09
vn 0 0 1
vn 0 0 -1
vn 0.926862597 -0.375400722 -2.91252533e-09
vn 0.982290208 -0.187365562 1.892551e-08
vn 0.707106829 -0.707106709 -1.09501297e-08
vn 0.375400722 -0.926862597 -5.39330536e-09
vn -3.03396277e-08 -1 -7.01056679e-09
vn -0.375400752 -0.926862597 -0
vn -0.707106709 -0.707106829 -0
vn -0.926862597 -0.375400692 -0
vn -1 -1.51698138e-08 -3.89694765e-09
vn -0.926862597 0.375400692 1.66461387e-08
vn -0.707106709 0.707106829 1.80841102e-08
vn -0.375400782 0.926862597 -3.18808224e-09
vn -3.03396277e-08 1 6.00511907e-09
vn 0.375400752 0.926862597 9.20241661e-09
vn 0.707106769 0.707106829 2.60286939e-08
vn 0.926862597 0.375400722 2.22468532e-08
vn 0.982290208 0.187365547 -2.44502973e-09
vn 0.926862597 -0.375400782 9.86684245e-09
vn 0.982290208 -0.187365741 -2.74894063e-09
vn 0.707106888 -0.707106709 2.51848515e-08
vn 0.375400752 -0.926862597 7.69897213e-09
vn -7.58490692e-09 -1 -6.16796836e-09
vn -0.70710665 -0.707106948 -0
vn -0.926862597 -0.375400662 -0
vn -1 -7.58490604e-09 2.7293332e-09
vn -0.926862657 0.375400633 1.59743152e-08
vn -0.70710665 0.707106888 2.71605547e-08
vn -0.375400752 0.926862597 7.69897213e-09
vn 0.375400752 0.926862597 -7.69897213e-09
vn 0.707106888 0.707106709 -2.51848515e-08
vn 0.926862597 0.375400782 -9.86684245e-09
vn 0.982290208 0.187365741 2.74894063e-09
vn -0.926862597 -0.375400752 -1.72683592e-08
vn -0.982290208 -0.187365651 1.2822265e-08
vn -0.707106829 -0.707106709 -1.65469718e-08
vn -0.375400752 -0.926862597 2.63213756e-10
vn 0 -1 -7.01056679e-09
vn 0.375400722 -0.926862597 0
vn 0.707106709 -0.707106829 0
vn 0.926862597 -0.375400692 0
vn 1 -1.51698138e-08 -3.89694765e-09
vn 0.926862597 0.375400692 1.66461387e-08
vn 0.707106709 0.707106829 1.80841102e-08
vn 0.375400752 0.926862597 -9.20241661e-09
vn -0.375400782 0.926862597 -1.67847247e-08
vn -0.707106829 0.707106769 -2.60286921e-08
vn -0.926862597 0.375400752 -9.20241661e-09
vn -0.982290208 0.187365636 -1.31593758e-08
vn 0.137035236 -0.983106256 -0.121340178
vn 0.182079419 -0.973807216 -0.13618587
vn 0.23147659 -0.960712731 -0.153132662
vn 0.421623707 -0.877971172 -0.226715803
vn 0.422556758 -0.876470029 -0.230751023
vn 0.65500474 -0.678453863 -0.332669586
vn 0.832819521 -0.371616989 -0.410259068
vn 0.694587052 -0.630729079 -0.346019715
vn 0.357889891 -0.912630141 -0.197537377
vn 0.507872164 -0.819859862 -0.264377862
vn 0.642738342 -0.694714606 -0.322891712
vn 0.811648726 -0.424419284 -0.401365966
vn 0.881224096 -0.194103628 -0.431007981
vn 0.654169023 -0.682350039 -0.326284081
vn 0.71185714 -0.606755555 -0.35370487
vn 0.825132191 -0.395154417 -0.403744847
vn 0.874348938 -0.229133427 -0.427798808
vn 0.894677997 -0.0977315903 -0.435889751
vn 0.801195681 -0.452511251 -0.39155978
vn 0.846229315 -0.335690647 -0.413772613
vn 0.875360429 -0.229697868 -0.42542094
vn 0.892783642 -0.116789833 -0.435083359
vn 0.89812696 -0.0586517565 -0.435807168
vn 0.893999875 -0.136454567 -0.4267838
vn 0.880963206 -0.221979842 -0.417886049
vn 0.898128331 -0.0586516373 -0.435804486
vn 0.847037315 -0.335536152 -0.412241697
vn 0.798232317 -0.463574022 -0.384609222
vn 0.627420485 -0.712910473 -0.313212693
vn 0.680351675 -0.650093853 -0.338377804
vn 0.737138748 -0.570287287 -0.36248982
vn 0.681303799 -0.650487661 -0.335694641
vn 0.612320602 -0.737402916 -0.285132349
vn 0.73769027 -0.570623636 -0.360834777
vn 0.472337961 -0.846601844 -0.245279714
vn 0.347629666 -0.919329584 -0.184354693
vn 0.556505322 -0.780705988 -0.284253359
vn 0.549099624 -0.791598618 -0.268069386
vn 0.474339604 -0.845346093 -0.245747685
vn 0.232005432 -0.961225569 -0.149059772
vn 0.122404218 -0.986967802 -0.104459487
vn 0.161936432 -0.978522599 -0.127554253
vn 0.627104104 -0.71703887 -0.30429548
vn 0.062972486 -0.992273808 -0.106898062
vn 0.0660286471 -0.99281919 -0.099750869
vn 0.000979706645 -0.994712293 -0.102696449
vn -0.021113243 -0.995794415 -0.089150466
vn 0.000979685225 -0.994712293 -0.102696478
vn -0.058464136 -0.992610753 -0.106328793
vn -0.0482707396 -0.995030701 -0.0870857835
vn -0.171453834 -0.976161301 -0.133089036
vn -0.12779206 -0.984627306 -0.119072422
vn -0.15238288 -0.980405509 -0.12483786
vn -0.896941125 -0.00647896109 -0.442102551
vn -0.894868493 -0.00909826346 -0.446237087
vn -0.643585026 -0.691524446 -0.328012556
vn -0.40736255 -0.886142969 -0.220921636
vn -0.408961684 -0.884272218 -0.225417346
vn -0.21932888 -0.964180708 -0.149165571
vn -0.220961705 -0.964295149 -0.145982206
vn -0.344085634 -0.919097185 -0.192003936
vn -0.0994502008 -0.990456879 -0.0954192579
vn -0.898250103 -0.00360395736 -0.439469874
vn -0.805981994 -0.437119305 -0.399148762
vn -0.630391896 -0.708350718 -0.317561567
vn -0.493490189 -0.830488741 -0.258371532
vn -0.641886711 -0.696438372 -0.320866078
vn -0.542436957 -0.792686462 -0.278227001
vn -0.457873493 -0.856260896 -0.239100724
vn -0.323420763 -0.932352901 -0.161607668
vn -0.536429763 -0.801237881 -0.265067875
vn -0.614493847 -0.726543725 -0.307459831
vn -0.413212359 -0.8871786 -0.205352455
vn -0.898321986 0.0430387668 -0.437224448
vn -0.864312291 -0.271314353 -0.423500687
vn -0.820084393 -0.407711595 -0.401538134
vn -0.701375484 -0.621420383 -0.349154919
vn -0.727645993 -0.585000575 -0.358197808
vn -0.794773996 -0.466149479 -0.388637275
vn -0.668766797 -0.664589405 -0.333274484
vn -0.6701141 -0.665396214 -0.328929961
vn -0.727832258 -0.585111856 -0.357637167
vn -0.603405714 -0.746913791 -0.279323071
vn -0.879621565 -0.208877027 -0.42735976
vn -0.899224579 -0.0316856578 -0.436338425
vn -0.84244746 -0.346984655 -0.412169755
vn -0.843220651 -0.346817106 -0.410727233
vn -0.884266436 -0.202252433 -0.420911849
vn -0.784079194 -0.492859125 -0.377239585
vn -0.899629653 -0.0101593966 -0.436535597
vn -0.137035206 0.983106256 -0.121340163
vn -0.182079449 0.973807216 -0.136185855
vn -0.231476605 0.960712731 -0.153132662
vn -0.421623558 0.877971232 -0.226715773
vn -0.422556758 0.876470029 -0.230751023
vn -0.655004978 0.678453684 -0.332669616
vn -0.357889652 0.91263026 -0.197537288
vn -0.507872939 0.819859266 -0.26437819
vn -0.64273864 0.694714248 -0.322891772
vn -0.811648309 0.424420118 -0.401365906
vn -0.654167712 0.68235147 -0.326283783
vn -0.711856365 0.60675633 -0.353705049
vn -0.82513392 0.395149738 -0.4037458
vn -0.874348342 0.229136243 -0.427798569
vn -0.801197112 0.452508152 -0.391560435
vn -0.846231341 0.335684687 -0.413773268
vn -0.875358939 0.229704872 -0.425420225
vn -0.892783523 0.116792105 -0.435083061
vn -0.893999219 0.136459336 -0.426783592
vn -0.880962074 0.221982226 -0.417887211
vn -0.899224281 -0.0316859037 -0.436338961
vn -0.847036719 0.33553654 -0.412242651
vn -0.798234224 0.463570267 -0.384609908
vn -0.627417982 0.712913156 -0.31321159
vn -0.680350006 0.650095701 -0.338377744
vn -0.73713851 0.570286989 -0.362490803
vn -0.681301475 0.650491178 -0.335692525
vn -0.612322748 0.737400532 -0.285133839
vn -0.737689376 0.570625544 -0.360833555
vn -0.472338676 0.846601367 -0.245280012
vn -0.347629517 0.919329703 -0.184354603
vn -0.556506276 0.780705154 -0.284253657
vn -0.549099982 0.791598201 -0.268069893
vn -0.474338561 0.845346928 -0.24574697
vn -0.232005462 0.961225569 -0.149059772
vn -0.12240424 0.986967802 -0.104459494
vn -0.161936417 0.978522599 -0.127554238
vn -0.0629724711 0.992273808 -0.106898069
vn -0.0660286695 0.99281919 -0.0997508913
vn -0.000979703851 0.994712293 -0.102696478
vn 0.0211132653 0.995794415 -0.0891504958
vn -0.000979714212 0.994712293 -0.102696463
vn 0.0584641099 0.992610753 -0.1063288
vn 0.0482707657 0.995030701 -0.0870857984
vn 0.171453804 0.976161301 -0.133089051
vn 0.12779206 0.984627306 -0.119072407
vn 0.152382866 0.980405509 -0.124837875
vn 0.828194797 0.383741587 -0.408455312
vn 0.683756888 0.644969106 -0.341308266
vn 0.643585026 0.691524506 -0.328012496
vn 0.40736264 0.886142969 -0.220921665
vn 0.408961654 0.884272218 -0.22541739
vn 0.21932888 0.964180708 -0.149165571
vn 0.22096169 0.964295149 -0.145982176
vn 0.344085813 0.919097066 -0.19200398
vn 0.0994502157 0.99045682 -0.0954192802
vn 0.879835665 0.201194316 -0.430592626
vn 0.805981576 0.437120169 -0.399148613
vn 0.630392253 0.708350182 -0.317561984
vn 0.493490279 0.830488622 -0.258371681
vn 0.641888022 0.696436942 -0.320866495
vn 0.542436838 0.792686403 -0.278227419
vn 0.457873404 0.856260836 -0.239101082
vn 0.323420852 0.932352901 -0.161607757
vn 0.536429763 0.801237941 -0.265067875
vn 0.614494979 0.72654295 -0.307459384
vn 0.413212359 0.8871786 -0.205352411
vn 0.894295096 0.101394013 -0.435838878
vn 0.872490466 0.237257153 -0.427164435
vn 0.820082009 0.407717198 -0.401537269
vn 0.701376319 0.621419191 -0.349155307
vn 0.727645874 0.585000694 -0.358197808
vn 0.794771552 0.466154665 -0.388636142
vn 0.668767691 0.664588571 -0.333274364
vn 0.670114815 0.665394604 -0.328931749
vn 0.727832854 0.585110247 -0.357638478
vn 0.603405893 0.746913314 -0.279323906
vn 0.898008049 0.0608593971 -0.435749471
vn 0.892259002 0.121131331 -0.434972525
vn 0.87356317 0.237914547 -0.424598724
vn 0.842445493 0.346990317 -0.412169069
vn 0.843220651 0.346817106 -0.410727233
vn 0.883827567 0.211876839 -0.417081594
vn 0.784077227 0.492861867 -0.377240092
vn 0.893565357 0.141551912 -0.426032931
vn 0.898009777 0.0608528592 -0.435746938
vn 0.613867581 0.731052995 -0.297872633
vn 0.848798394 -0.343851417 -0.401630968
vn 0.896778226 -0.141431004 -0.419268519
vn 0.705952823 -0.627554357 -0.328338504
vn 0.483055681 -0.846982837 -0.221984938
vn 0.214112699 -0.969234467 -0.121409699
vn 0.00867323298 -0.996759355 -0.0799717233
vn -0.2334508 -0.964112043 -0.126446605
vn -0.489191204 -0.841377974 -0.229728252
vn -0.699919939 -0.636794746 -0.323426247
vn -0.846942902 -0.349608719 -0.400576353
vn -0.905170798 0.0228299331 -0.424434513
vn -0.848797679 0.343852311 -0.401631773
vn -0.705952525 0.627555251 -0.328337431
vn -0.483055174 0.846983254 -0.221984401
vn -0.214112759 0.969234467 -0.121409714
vn -0.00867323577 0.996759355 -0.0799717307
vn 0.233450785 0.964112043 -0.126446575
vn 0.489191175 0.841377974 -0.229728281
vn 0.699920475 0.636793733 -0.323427022
vn 0.846944809 0.349605203 -0.400575489
vn 0.896517396 0.144353762 -0.418829978
vn 0.784505546 -0.456549942 0.419658452
vn 0.709206939 -0.361636579 0.605181396
vn 0.600677192 -0.682566106 0.416281611
vn 0.824634969 -0.547834635 0.140905559
vn 0.625976682 -0.763866067 0.157040909
vn 0.817587137 -0.575787127 -0.00452692108
vn 0.61927855 -0.784754276 0.0255906191
vn 0.756432414 -0.593816936 -0.274210691
vn 0.572989106 -0.788991153 -0.221757561
vn 0.673820496 -0.57788223 -0.460454196
vn 0.351473629 -0.770354629 0.53199625
vn 0.242959961 -0.897081375 0.369073689
vn 0.245896712 -0.955858171 0.160841361
vn 0.242959276 -0.96814245 0.0605893955
vn 0.229493871 -0.963709652 -0.136367992
vn 0.323987365 -0.895821035 -0.304198712
vn 0.110338621 -0.863104463 0.492824525
vn 0.00380760431 -0.934686363 0.355453044
vn 0.00305187935 -0.987129867 0.159891471
vn 0.00265965937 -0.997769952 0.0666944981
vn 0.00182003004 -0.993004918 -0.118059196
vn 0.0998348743 -0.96238482 -0.252682477
vn -0.10182175 -0.864161313 0.492805868
vn -0.235301301 -0.899740994 0.367558837
vn -0.239569813 -0.957685947 0.15951179
vn -0.237396434 -0.96958518 0.0595604777
vn -0.225691929 -0.964571655 -0.136618808
vn -0.097549893 -0.962469518 -0.253251821
vn -0.343363017 -0.775966585 0.529129148
vn -0.597902834 -0.686199486 0.414297581
vn -0.62397027 -0.766167283 0.153781936
vn -0.617514193 -0.786241889 0.0223602671
vn -0.572048008 -0.789105833 -0.223770097
vn -0.321678072 -0.897061408 -0.302991927
vn -0.709088147 -0.362462997 0.604826093
vn -0.907760561 0.0816936865 0.411457062
vn -0.995964289 0.0176506769 0.0879978016
vn -0.995958209 -0.0155561892 -0.0884604305
vn -0.909972191 -0.0786857307 -0.407135338
vn -0.675292969 -0.574336588 -0.462727576
vn -0.669699371 0.576674819 0.467919737
vn -0.571352005 0.788481176 0.227715537
vn -0.618898511 0.785169303 -0.02176762
vn -0.625958264 0.764666498 -0.153171077
vn -0.601901233 0.685235798 -0.410081476
vn -0.713188469 0.366114229 -0.597764611
vn -0.322659284 0.894002259 0.310887367
vn -0.229024723 0.963101447 0.141361997
vn -0.242833689 0.968352377 -0.0576667376
vn -0.245848671 0.956363857 -0.157881573
vn -0.243191898 0.899170518 -0.363799512
vn -0.352513582 0.774619699 -0.525070012
vn -0.0994759351 0.960771859 0.258886099
vn -0.00179732265 0.992430687 0.122793287
vn -0.00264794123 0.997947931 -0.0639760569
vn -0.0030404923 0.987571895 -0.157138735
vn -0.00378935062 0.936578155 -0.350438446
vn -0.110557146 0.86675179 -0.486331612
vn 0.097254701 0.960846782 0.25945127
vn 0.225271419 0.963952482 0.141592547
vn 0.237294465 0.969784677 -0.0566478893
vn 0.239542961 0.958179712 -0.156559497
vn 0.235563114 0.901810229 -0.362282068
vn 0.102082215 0.867807806 -0.486301094
vn 0.32042712 0.895239413 0.309633434
vn 0.570440531 0.788568676 0.229689062
vn 0.617142081 0.786633134 -0.0185445733
vn 0.623958707 0.76694423 -0.149906635
vn 0.599152744 0.688844919 -0.408054769
vn 0.344422251 0.780188441 -0.522186995
vn 0.671213984 0.573114097 0.470119148
vn 0.755177677 0.590783834 0.284044206
vn 0.818006635 0.575049281 0.0135463225
vn 0.82575655 0.548336387 -0.132111222
vn 0.787190557 0.459856987 -0.410928965
vn 0.713133752 0.366947889 -0.59731859

# Mesh '' with 384 faces
usemtl material0_red
f  1/1/1 2/2/1 3/3/2
f  4/4/3 5/5/3 1/1/1
f  6/6/4 7/7/4 4/4/3
f  8/8/5 9/9/5 6/6/4
f  10/10/6 9/9/5 8/8/5
f  11/11/7 12/12/6 10/10/6
f  13/13/8 14/14/7 11/11/7
f  15/15/9 16/16/8 13/13/8
f  17/17/10 18/18/10 15/15/9
f  19/19/11 20/20/11 17/17/10
f  21/21/12 22/22/12 19/19/11
f  23/23/13 24/24/13 21/21/12
f  25/25/14 26/26/14 23/23/13
f  27/27/15 28/28/15 25/25/14
f  29/29/16 30/30/16 27/27/15
f  3/31/17 31/32/17 29/29/16
f  30/30/16 29/29/16 31/32/17
f  28/28/15 27/27/15 30/30/16
f  26/26/14 25/25/14 28/28/15
f  24/24/13 23/23/13 26/26/14
f  22/22/12 21/21/12 24/24/13
f  20/20/11 19/19/11 22/22/12
f  18/18/10 17/17/10 20/20/11
f  32/33/9 15/15/9 18/18/10
f  16/16/8 15/15/9 32/33/9
f  14/14/7 13/13/8 16/16/8
f  12/12/6 11/11/7 14/14/7
f  9/9/5 10/10/6 12/12/6
f  7/7/4 6/6/4 9/9/5
f  5/5/3 4/4/3 7/7/4
f  2/2/1 1/1/1 5/5/3
f  31/34/2 3/3/2 2/2/1
f  33/35/18 34/36/18 35/37/18
f  34/36/18 36/38/18 35/37/18
f  37/39/18 38/40/18 33/35/18
f  38/40/18 34/36/18 33/35/18
f  38/40/18 39/41/18 34/36/18
f  39/41/18 40/42/18 34/36/18
f  34/36/18 40/42/18 36/38/18
f  40/42/18 41/43/18 36/38/18
f  29/44/18 33/35/18 3/33/18
f  27/45/18 37/39/18 29/44/18
f  25/46/18 37/39/18 27/45/18
f  23/47/18 38/40/18 25/46/18
f  21/48/18 38/40/18 23/47/18
f  19/49/18 39/41/18 21/48/18
f  17/50/18 39/41/18 19/49/18
f  15/15/18 40/42/18 17/50/18
f  13/51/18 40/42/18 15/15/18
f  11/52/18 41/43/18 13/51/18
f  10/53/18 41/43/18 11/52/18
f  8/54/18 36/38/18 10/53/18
f  6/55/18 36/38/18 8/54/18
f  4/56/18 35/37/18 6/55/18
f  1/57/18 35/37/18 4/56/18
f  3/33/18 33/35/18 1/57/18
f  35/37/18 1/57/18 33/35/18
f  36/38/18 6/55/18 35/37/18
f  33/35/18 29/44/18 37/39/18
f  37/39/18 25/46/18 38/40/18
f  38/40/18 21/48/18 39/41/18
f  39/41/18 17/50/18 40/42/18
f  40/42/18 13/51/18 41/43/18
f  41/43/18 10/53/18 36/38/18
f  42/35/19 43/36/19 44/37/19
f  43/36/19 45/38/19 44/37/19
f  46/39/19 47/40/19 42/35/19
f  47/40/19 43/36/19 42/35/19
f  47/40/19 48/41/19 43/36/19
f  48/41/19 49/42/19 43/36/19
f  43/36/19 49/42/19 45/38/19
f  49/42/19 50/43/19 45/38/19
f  2/44/19 42/35/19 31/33/19
f  5/45/19 46/39/19 2/44/19
f  7/46/19 46/39/19 5/45/19
f  9/47/19 47/40/19 7/46/19
f  12/48/19 47/40/19 9/47/19
f  14/49/19 48/41/19 12/48/19
f  16/50/19 48/41/19 14/49/19
f  32/15/19 49/42/19 16/50/19
f  18/51/19 49/42/19 32/15/19
f  20/52/19 50/43/19 18/51/19
f  22/53/19 50/43/19 20/52/19
f  24/54/19 45/38/19 22/53/19
f  26/55/19 45/38/19 24/54/19
f  28/56/19 44/37/19 26/55/19
f  30/57/19 44/37/19 28/56/19
f  31/33/19 42/35/19 30/57/19
f  44/37/19 30/57/19 42/35/19
f  45/38/19 26/55/19 44/37/19
f  42/35/19 2/44/19 46/39/19
f  46/39/19 7/46/19 47/40/19
f  47/40/19 12/48/19 48/41/19
f  48/41/19 16/50/19 49/42/19
f  49/42/19 18/51/19 50/43/19
f  50/43/19 22/53/19 45/38/19
f  51/1/20 52/2/20 53/3/21
f  54/4/22 55/5/22 51/1/20
f  56/6/23 57/7/23 54/4/22
f  58/8/24 59/9/24 56/6/23
f  60/10/25 59/9/24 58/8/24
f  61/11/26 62/12/25 60/10/25
f  63/13/27 64/14/26 61/11/26
f  65/15/28 66/16/27 63/13/27
f  67/17/29 68/18/29 65/15/28
f  69/19/30 70/20/30 67/17/29
f  71/21/31 72/22/31 69/19/30
f  73/23/32 74/24/32 71/21/31
f  75/25/33 76/26/33 73/23/32
f  77/27/34 78/28/34 75/25/33
f  79/29/35 80/30/35 77/27/34
f  53/31/36 81/32/36 79/29/35
f  80/30/35 79/29/35 81/32/36
f  78/28/34 77/27/34 80/30/35
f  76/26/33 75/25/33 78/28/34
f  74/24/32 73/23/32 76/26/33
f  72/22/31 71/21/31 74/24/32
f  70/20/30 69/19/30 72/22/31
f  68/18/29 67/17/29 70/20/30
f  82/33/28 65/15/28 68/18/29
f  66/16/27 65/15/28 82/33/28
f  64/14/26 63/13/27 66/16/27
f  62/12/25 61/11/26 64/14/26
f  59/9/24 60/10/25 62/12/25
f  57/7/23 56/6/23 59/9/24
f  55/5/22 54/4/22 57/7/23
f  52/2/20 51/1/20 55/5/22
f  81/34/21 53/3/21 52/2/20
f  83/35/18 84/36/18 85/37/18
f  84/36/18 86/38/18 85/37/18
f  87/39/18 88/40/18 83/35/18
f  88/40/18 84/36/18 83/35/18
f  88/40/18 89/41/18 84/36/18
f  89/41/18 90/42/18 84/36/18
f  84/36/18 90/42/18 86/38/18
f  90/42/18 91/43/18 86/38/18
f  79/44/18 83/35/18 53/33/18
f  77/45/18 87/39/18 79/44/18
f  75/46/18 87/39/18 77/45/18
f  73/47/18 88/40/18 75/46/18
f  71/48/18 88/40/18 73/47/18
f  69/49/18 89/41/18 71/48/18
f  67/50/18 89/41/18 69/49/18
f  65/15/18 90/42/18 67/50/18
f  63/51/18 90/42/18 65/15/18
f  61/52/18 91/43/18 63/51/18
f  60/53/18 91/43/18 61/52/18
f  58/54/18 86/38/18 60/53/18
f  56/55/18 86/38/18 58/54/18
f  54/56/18 85/37/18 56/55/18
f  51/57/18 85/37/18 54/56/18
f  53/33/18 83/35/18 51/57/18
f  85/37/18 51/57/18 83/35/18
f  86/38/18 56/55/18 85/37/18
f  83/35/18 79/44/18 87/39/18
f  87/39/18 75/46/18 88/40/18
f  88/40/18 71/48/18 89/41/18
f  89/41/18 67/50/18 90/42/18
f  90/42/18 63/51/18 91/43/18
f  91/43/18 60/53/18 86/38/18
f  92/35/19 93/36/19 94/37/19
f  93/36/19 95/38/19 94/37/19
f  96/39/19 97/40/19 92/35/19
f  97/40/19 93/36/19 92/35/19
f  97/40/19 98/41/19 93/36/19
f  98/41/19 99/42/19 93/36/19
f  93/36/19 99/42/19 95/38/19
f  99/42/19 100/43/19 95/38/19
f  52/44/19 92/35/19 81/33/19
f  55/45/19 96/39/19 52/44/19
f  57/46/19 96/39/19 55/45/19
f  59/47/19 97/40/19 57/46/19
f  62/48/19 97/40/19 59/47/19
f  64/49/19 98/41/19 62/48/19
f  66/50/19 98/41/19 64/49/19
f  82/15/19 99/42/19 66/50/19
f  68/51/19 99/42/19 82/15/19
f  70/52/19 100/43/19 68/51/19
f  72/53/19 100/43/19 70/52/19
f  74/54/19 95/38/19 72/53/19
f  76/55/19 95/38/19 74/54/19
f  78/56/19 94/37/19 76/55/19
f  80/57/19 94/37/19 78/56/19
f  81/33/19 92/35/19 80/57/19
f  94/37/19 80/57/19 92/35/19
f  95/38/19 76/55/19 94/37/19
f  92/35/19 52/44/19 96/39/19
f  96/39/19 57/46/19 97/40/19
f  97/40/19 62/48/19 98/41/19
f  98/41/19 66/50/19 99/42/19
f  99/42/19 68/51/19 100/43/19
f  100/43/19 72/53/19 95/38/19
f  101/1/37 102/2/37 103/3/38
f  104/4/39 105/5/39 101/1/37
f  106/6/40 107/7/40 104/4/39
f  108/8/41 109/9/41 106/6/40
f  110/10/6 109/9/41 108/8/41
f  111/11/42 112/12/6 110/10/6
f  113/13/43 114/14/42 111/11/42
f  115/15/44 116/16/43 113/13/43
f  117/17/45 118/18/45 115/15/44
f  119/19/46 120/20/46 117/17/45
f  121/21/47 122/22/47 119/19/46
f  123/23/13 124/24/13 121/21/47
f  125/25/48 126/26/48 123/23/13
f  127/27/49 128/28/49 125/25/48
f  129/29/50 130/30/50 127/27/49
f  103/31/51 131/32/51 129/29/50
f  130/30/50 129/29/50 131/32/51
f  128/28/49 127/27/49 130/30/50
f  126/26/48 125/25/48 128/28/49
f  124/24/13 123/23/13 126/26/48
f  122/22/47 121/21/47 124/24/13
f  120/20/46 119/19/46 122/22/47
f  118/18/45 117/17/45 120/20/46
f  132/33/44 115/15/44 118/18/45
f  116/16/43 115/15/44 132/33/44
f  114/14/42 113/13/43 116/16/43
f  112/12/6 111/11/42 114/14/42
f  109/9/41 110/10/6 112/12/6
f  107/7/40 106/6/40 109/9/41
f  105/5/39 104/4/39 107/7/40
f  102/2/37 101/1/37 105/5/39
f  131/34/38 103/3/38 102/2/37
f  133/35/18 134/36/18 135/37/18
f  134/36/18 136/38/18 135/37/18
f  137/39/18 138/40/18 133/35/18
f  138/40/18 134/36/18 133/35/18
f  138/40/18 139/41/18 134/36/18
f  139/41/18 140/42/18 134/36/18
f  134/36/18 140/42/18 136/38/18
f  140/42/18 141/43/18 136/38/18
f  129/44/18 133/35/18 103/33/18
f  127/45/18 137/39/18 129/44/18
f  125/46/18 137/39/18 127/45/18
f  123/47/18 138/40/18 125/46/18
f  121/48/18 138/40/18 123/47/18
f  119/49/18 139/41/18 121/48/18
f  117/50/18 139/41/18 119/49/18
f  115/15/18 140/42/18 117/50/18
f  113/51/18 140/42/18 115/15/18
f  111/52/18 141/43/18 113/51/18
f  110/53/18 141/43/18 111/52/18
f  108/54/18 136/38/18 110/53/18
f  106/55/18 136/38/18 108/54/18
f  104/56/18 135/37/18 106/55/18
f  101/57/18 135/37/18 104/56/18
f  103/33/18 133/35/18 101/57/18
f  135/37/18 101/57/18 133/35/18
f  136/38/18 106/55/18 135/37/18
f  133/35/18 129/44/18 137/39/18
f  137/39/18 125/46/18 138/40/18
f  138/40/18 121/48/18 139/41/18
f  139/41/18 117/50/18 140/42/18
f  140/42/18 113/51/18 141/43/18
f  141/43/18 110/53/18 136/38/18
f  142/35/19 143/36/19 144/37/19
f  143/36/19 145/38/19 144/37/19
f  146/39/19 147/40/19 142/35/19
f  147/40/19 143/36/19 142/35/19
f  147/40/19 148/41/19 143/36/19
f  148/41/19 149/42/19 143/36/19
f  143/36/19 149/42/19 145/38/19
f  149/42/19 150/43/19 145/38/19
f  102/44/19 142/35/19 131/33/19
f  105/45/19 146/39/19 102/44/19
f  107/46/19 146/39/19 105/45/19
f  109/47/19 147/40/19 107/46/19
f  112/48/19 147/40/19 109/47/19
f  114/49/19 148/41/19 112/48/19
f  116/50/19 148/41/19 114/49/19
f  132/15/19 149/42/19 116/50/19
f  118/51/19 149/42/19 132/15/19
f  120/52/19 150/43/19 118/51/19
f  122/53/19 150/43/19 120/52/19
f  124/54/19 145/38/19 122/53/19
f  126/55/19 145/38/19 124/54/19
f  128/56/19 144/37/19 126/55/19
f  130/57/19 144/37/19 128/56/19
f  131/33/19 142/35/19 130/57/19
f  144/37/19 130/57/19 142/35/19
f  145/38/19 126/55/19 144/37/19
f  142/35/19 102/44/19 146/39/19
f  146/39/19 107/46/19 147/40/19
f  147/40/19 112/48/19 148/41/19
f  148/41/19 116/50/19 149/42/19
f  149/42/19 118/51/19 150/43/19
f  150/43/19 122/53/19 145/38/19
f  151/2/52 152/1/52 153/3/53
f  154/5/54 155/4/54 152/1/52
f  156/7/55 157/6/55 155/4/54
f  158/9/56 159/8/56 157/6/55
f  158/9/56 160/10/57 159/8/56
f  161/12/57 162/11/58 160/10/57
f  163/14/58 164/13/59 162/11/58
f  165/16/59 166/15/60 164/13/59
f  167/18/61 168/17/61 166/15/60
f  169/20/62 170/19/62 168/17/61
f  171/22/63 172/21/63 170/19/62
f  173/24/13 174/23/13 172/21/63
f  175/26/64 176/25/64 174/23/13
f  177/28/65 178/27/65 176/25/64
f  179/30/66 180/29/66 178/27/65
f  181/32/67 153/31/67 180/29/66
f  180/29/66 179/30/66 181/32/67
f  178/27/65 177/28/65 179/30/66
f  176/25/64 175/26/64 177/28/65
f  174/23/13 173/24/13 175/26/64
f  172/21/63 171/22/63 173/24/13
f  170/19/62 169/20/62 171/22/63
f  168/17/61 167/18/61 169/20/62
f  166/15/60 182/33/60 167/18/61
f  166/15/60 165/16/59 182/33/60
f  164/13/59 163/14/58 165/16/59
f  162/11/58 161/12/57 163/14/58
f  160/10/57 158/9/56 161/12/57
f  157/6/55 156/7/55 158/9/56
f  155/4/54 154/5/54 156/7/55
f  152/1/52 151/2/52 154/5/54
f  153/3/53 181/34/53 151/2/52
f  183/38/18 184/36/18 185/37/18
f  184/36/18 186/35/18 185/37/18
f  184/36/18 187/40/18 186/35/18
f  187/40/18 188/39/18 186/35/18
f  189/42/18 190/41/18 184/36/18
f  190/41/18 187/40/18 184/36/18
f  191/43/18 189/42/18 183/38/18
f  189/42/18 184/36/18 183/38/18
f  186/35/18 180/44/18 153/33/18
f  188/39/18 178/45/18 180/44/18
f  188/39/18 176/46/18 178/45/18
f  187/40/18 174/47/18 176/46/18
f  187/40/18 172/48/18 174/47/18
f  190/41/18 170/49/18 172/48/18
f  190/41/18 168/50/18 170/49/18
f  189/42/18 166/15/18 168/50/18
f  189/42/18 164/51/18 166/15/18
f  191/43/18 162/52/18 164/51/18
f  191/43/18 160/53/18 162/52/18
f  183/38/18 159/54/18 160/53/18
f  183/38/18 157/55/18 159/54/18
f  185/37/18 155/56/18 157/55/18
f  185/37/18 152/57/18 155/56/18
f  186/35/18 153/33/18 152/57/18
f  152/57/18 185/37/18 186/35/18
f  157/55/18 183/38/18 185/37/18
f  180/44/18 186/35/18 188/39/18
f  176/46/18 188/39/18 187/40/18
f  172/48/18 187/40/18 190/41/18
f  168/50/18 190/41/18 189/42/18
f  164/51/18 189/42/18 191/43/18
f  160/53/18 191/43/18 183/38/18
f  192/38/19 193/36/19 194/37/19
f  193/36/19 195/35/19 194/37/19
f  193/36/19 196/40/19 195/35/19
f  196/40/19 197/39/19 195/35/19
f  198/42/19 199/41/19 193/36/19
f  199/41/19 196/40/19 193/36/19
f  200/43/19 198/42/19 192/38/19
f  198/42/19 193/36/19 192/38/19
f  195/35/19 151/44/19 181/33/19
f  197/39/19 154/45/19 151/44/19
f  197/39/19 156/46/19 154/45/19
f  196/40/19 158/47/19 156/46/19
f  196/40/19 161/48/19 158/47/19
f  199/41/19 163/49/19 161/48/19
f  199/41/19 165/50/19 163/49/19
f  198/42/19 182/15/19 165/50/19
f  198/42/19 167/51/19 182/15/19
f  200/43/19 169/52/19 167/51/19
f  200/43/19 171/53/19 169/52/19
f  192/38/19 173/54/19 171/53/19
f  192/38/19 175/55/19 173/54/19
f  194/37/19 177/56/19 175/55/19
f  194/37/19 179/57/19 177/56/19
f  195/35/19 181/33/19 179/57/19
f  179/57/19 194/37/19 195/35/19
f  175/55/19 192/38/19 194/37/19
f  151/44/19 195/35/19 197/39/19
f  156/46/19 197/39/19 196/40/19
f  161/48/19 196/40/19 199/41/19
f  165/50/19 199/41/19 198/42/19
f  167/51/19 198/42/19 200/43/19
f  171/53/19 200/43/19 192/38/19

# Mesh '' with 542 faces
usemtl material0_yellow
f  201/58/68 202/59/69 203/60/70
f  204/61/71 203/60/70 205/62/72
f  205/62/72 203/60/70 202/59/69
f  204/61/71 205/62/72 206/63/73
f  207/64/74 206/63/73 208/65/75
f  208/65/75 206/63/73 205/62/72
f  209/66/76 204/61/71 210/67/77
f  211/68/78 210/67/77 206/63/73
f  206/63/73 210/67/77 204/61/71
f  211/68/78 206/63/73 212/69/79
f  213/70/80 212/69/79 207/64/74
f  207/64/74 212/69/79 206/63/73
f  214/71/81 211/68/78 215/72/82
f  216/73/83 215/72/82 212/69/79
f  212/69/79 215/72/82 211/68/78
f  216/73/83 212/69/79 217/74/84
f  218/75/85 217/74/84 213/70/80
f  213/70/80 217/74/84 212/69/79
f  219/76/86 216/73/83 220/77/87
f  221/78/88 220/77/87 217/74/84
f  217/74/84 220/77/87 216/73/83
f  221/78/88 217/74/84 222/79/89
f  223/80/90 222/79/89 218/75/85
f  218/75/85 222/79/89 217/74/84
f  222/79/89 224/81/91 221/78/88
f  224/81/91 225/82/92 221/78/88
f  223/80/90 226/83/93 222/79/89
f  226/83/93 224/81/91 222/79/89
f  220/77/87 227/84/94 219/76/86
f  227/84/94 228/85/95 219/76/86
f  221/78/88 225/82/92 220/77/87
f  225/82/92 227/84/94 220/77/87
f  229/86/96 214/71/81 230/87/97
f  231/88/98 230/87/97 215/72/82
f  215/72/82 230/87/97 214/71/81
f  216/73/83 219/76/86 215/72/82
f  219/76/86 231/88/98 215/72/82
f  230/87/97 232/89/99 229/86/96
f  232/89/99 233/90/100 229/86/96
f  231/88/98 234/91/101 230/87/97
f  234/91/101 232/89/99 230/87/97
f  210/67/77 235/92/102 209/66/76
f  235/92/102 236/93/103 209/66/76
f  235/92/102 210/67/77 237/94/104
f  214/71/81 237/94/104 211/68/78
f  211/68/78 237/94/104 210/67/77
f  237/94/104 238/95/105 235/92/102
f  238/95/105 239/96/106 235/92/102
f  214/71/81 229/86/96 237/94/104
f  229/86/96 238/95/105 237/94/104
f  203/60/70 240/97/107 201/58/68
f  240/97/107 241/98/108 201/58/68
f  204/61/71 209/66/76 203/60/70
f  209/66/76 240/97/107 203/60/70
f  202/59/69 242/99/109 205/62/72
f  208/65/75 205/62/72 242/34/110
f  243/100/111 244/101/112 245/102/113
f  244/101/112 246/103/114 245/102/113
f  202/59/69 201/58/68 243/100/111
f  201/58/68 244/101/112 243/100/111
f  245/102/113 242/9/115 243/100/111
f  202/59/69 243/100/111 242/99/109
f  247/104/116 248/105/117 249/106/118
f  248/105/117 250/107/119 249/106/118
f  245/102/113 246/103/114 247/104/116
f  246/103/114 248/105/117 247/104/116
f  249/106/118 242/108/120 247/104/116
f  245/102/113 247/104/116 242/9/115
f  251/109/121 252/110/122 253/111/123
f  254/112/124 253/111/123 255/113/125
f  255/113/125 253/111/123 252/110/122
f  254/112/124 255/113/125 256/114/126
f  250/107/119 256/114/126 249/106/118
f  249/106/118 256/114/126 255/113/125
f  256/114/126 257/115/127 254/112/124
f  257/115/127 258/116/128 254/112/124
f  250/107/119 259/117/129 256/114/126
f  259/117/129 257/115/127 256/114/126
f  260/118/130 251/109/121 261/119/131
f  262/120/132 261/119/131 253/111/123
f  253/111/123 261/119/131 251/109/121
f  262/120/132 253/111/123 263/121/133
f  258/116/128 263/121/133 254/112/124
f  254/112/124 263/121/133 253/111/123
f  264/122/134 262/120/132 265/123/135
f  266/124/136 265/123/135 263/121/133
f  263/121/133 265/123/135 262/120/132
f  258/116/128 267/125/137 263/121/133
f  267/125/137 266/124/136 263/121/133
f  265/123/135 268/126/138 264/122/134
f  268/126/138 269/127/139 264/122/134
f  266/124/136 270/128/140 265/123/135
f  270/128/140 268/126/138 265/123/135
f  271/129/141 260/118/130 272/130/142
f  273/131/143 272/130/142 261/119/131
f  261/119/131 272/130/142 260/118/130
f  273/131/143 261/119/131 274/132/144
f  264/122/134 274/132/144 262/120/132
f  262/120/132 274/132/144 261/119/131
f  274/132/144 275/133/145 273/131/143
f  275/133/145 276/134/146 273/131/143
f  275/133/145 274/132/144 277/135/147
f  269/127/139 277/135/147 264/122/134
f  264/122/134 277/135/147 274/132/144
f  277/135/147 278/136/148 275/133/145
f  278/136/148 279/137/149 275/133/145
f  269/127/139 280/138/150 277/135/147
f  280/138/150 278/136/148 277/135/147
f  272/130/142 281/139/151 271/129/141
f  281/139/151 282/140/152 271/129/141
f  281/139/151 272/130/142 283/141/153
f  276/134/146 283/141/153 273/131/143
f  273/131/143 283/141/153 272/130/142
f  283/141/153 284/142/154 281/139/151
f  284/142/154 285/143/155 281/139/151
f  276/134/146 286/144/156 283/141/153
f  286/144/156 284/142/154 283/141/153
f  252/110/122 242/33/157 255/113/125
f  249/106/118 255/113/125 242/108/120
f  287/145/158 288/146/159 289/147/160
f  290/148/161 289/147/160 291/149/162
f  291/149/162 289/147/160 288/146/159
f  290/148/161 291/149/162 292/150/163
f  251/109/121 292/150/163 252/110/122
f  252/110/122 292/150/163 291/149/162
f  293/151/164 290/148/161 294/152/165
f  295/153/166 294/152/165 292/150/163
f  292/150/163 294/152/165 290/148/161
f  295/153/166 292/150/163 296/154/167
f  260/118/130 296/154/167 251/109/121
f  251/109/121 296/154/167 292/150/163
f  297/155/168 295/153/166 298/156/169
f  299/157/170 298/156/169 296/154/167
f  296/154/167 298/156/169 295/153/166
f  299/157/170 296/154/167 300/158/171
f  271/129/141 300/158/171 260/118/130
f  260/118/130 300/158/171 296/154/167
f  301/159/172 299/157/170 302/160/173
f  303/161/174 302/160/173 300/158/171
f  300/158/171 302/160/173 299/157/170
f  303/161/174 300/158/171 304/162/175
f  282/140/152 304/162/175 271/129/141
f  271/129/141 304/162/175 300/158/171
f  304/162/175 305/163/176 303/161/174
f  305/163/176 306/164/177 303/161/174
f  282/140/152 307/165/178 304/162/175
f  307/165/178 305/163/176 304/162/175
f  302/160/173 308/166/179 301/159/172
f  308/166/179 309/167/180 301/159/172
f  303/161/174 306/164/177 302/160/173
f  306/164/177 308/166/179 302/160/173
f  310/168/181 297/155/168 311/169/182
f  312/170/183 311/169/182 298/156/169
f  298/156/169 311/169/182 297/155/168
f  299/157/170 301/159/172 298/156/169
f  301/159/172 312/170/183 298/156/169
f  311/169/182 313/171/184 310/168/181
f  313/171/184 314/172/185 310/168/181
f  312/170/183 315/173/186 311/169/182
f  315/173/186 313/171/184 311/169/182
f  294/152/165 316/174/187 293/151/164
f  316/174/187 317/175/188 293/151/164
f  316/174/187 294/152/165 318/176/189
f  297/155/168 318/176/189 295/153/166
f  295/153/166 318/176/189 294/152/165
f  318/176/189 319/177/190 316/174/187
f  319/177/190 320/178/191 316/174/187
f  297/155/168 310/168/181 318/176/189
f  310/168/181 319/177/190 318/176/189
f  289/147/160 321/179/192 287/145/158
f  321/179/192 322/180/193 287/145/158
f  290/148/161 293/151/164 289/147/160
f  293/151/164 321/179/192 289/147/160
f  288/146/159 242/181/194 291/149/162
f  252/110/122 291/149/162 242/33/157
f  323/182/195 324/183/196 325/184/197
f  324/183/196 326/185/198 325/184/197
f  288/146/159 287/145/158 323/182/195
f  287/145/158 324/183/196 323/182/195
f  325/184/197 242/24/199 323/182/195
f  288/146/159 323/182/195 242/181/194
f  327/186/200 328/187/201 329/188/202
f  328/187/201 330/189/203 329/188/202
f  325/184/197 326/185/198 327/186/200
f  326/185/198 328/187/201 327/186/200
f  329/188/202 242/190/204 327/186/200
f  325/184/197 327/186/200 242/24/199
f  207/191/205 208/192/206 331/193/207
f  332/194/208 331/193/207 333/195/209
f  333/195/209 331/193/207 208/192/206
f  332/194/208 333/195/209 334/196/210
f  330/189/203 334/196/210 329/188/202
f  329/188/202 334/196/210 333/195/209
f  334/196/210 335/197/211 332/194/208
f  335/197/211 336/198/212 332/194/208
f  330/189/203 337/199/213 334/196/210
f  337/199/213 335/197/211 334/196/210
f  213/200/214 207/191/205 338/201/215
f  339/202/216 338/201/215 331/193/207
f  331/193/207 338/201/215 207/191/205
f  339/202/216 331/193/207 340/203/217
f  336/198/212 340/203/217 332/194/208
f  332/194/208 340/203/217 331/193/207
f  341/204/218 339/202/216 342/205/219
f  343/206/220 342/205/219 340/203/217
f  340/203/217 342/205/219 339/202/216
f  336/198/212 344/207/221 340/203/217
f  344/207/221 343/206/220 340/203/217
f  342/205/219 345/208/222 341/204/218
f  345/208/222 346/209/223 341/204/218
f  343/206/220 347/210/224 342/205/219
f  347/210/224 345/208/222 342/205/219
f  218/211/225 213/200/214 348/212/226
f  349/213/227 348/212/226 338/201/215
f  338/201/215 348/212/226 213/200/214
f  349/213/227 338/201/215 350/214/228
f  341/204/218 350/214/228 339/202/216
f  339/202/216 350/214/228 338/201/215
f  350/214/228 351/215/229 349/213/227
f  351/215/229 352/216/230 349/213/227
f  351/215/229 350/214/228 353/217/231
f  346/209/223 353/217/231 341/204/218
f  341/204/218 353/217/231 350/214/228
f  353/217/231 354/218/232 351/215/229
f  354/218/232 355/219/233 351/215/229
f  346/209/223 356/220/234 353/217/231
f  356/220/234 354/218/232 353/217/231
f  223/221/235 218/211/225 357/222/236
f  358/223/237 357/222/236 348/212/226
f  348/212/226 357/222/236 218/211/225
f  358/223/237 348/212/226 359/224/238
f  352/216/230 359/224/238 349/213/227
f  349/213/227 359/224/238 348/212/226
f  359/224/238 360/225/239 358/223/237
f  360/225/239 361/226/240 358/223/237
f  352/216/230 362/227/241 359/224/238
f  362/227/241 360/225/239 359/224/238
f  357/222/236 363/228/242 223/221/235
f  363/228/242 226/229/243 223/221/235
f  358/223/237 361/226/240 357/222/236
f  361/226/240 363/228/242 357/222/236
f  208/192/206 242/32/244 333/195/209
f  329/188/202 333/195/209 242/190/204
f  364/230/245 225/82/92 365/3/246
f  366/231/247 228/85/95 364/230/245
f  367/1/248 233/90/100 366/231/247
f  368/4/249 236/93/103 367/1/248
f  369/8/250 241/98/108 368/4/249
f  370/11/251 259/117/129 369/8/250
f  371/13/252 270/128/140 370/11/251
f  372/232/253 280/138/150 371/13/252
f  373/233/254 286/144/156 372/232/253
f  374/15/255 285/143/155 373/233/254
f  375/234/256 306/164/177 374/15/255
f  376/235/257 309/167/180 375/234/256
f  377/17/258 314/172/185 376/235/257
f  378/19/259 317/175/188 377/17/258
f  379/23/260 322/180/193 378/19/259
f  380/27/261 337/199/213 379/23/260
f  381/29/262 347/210/224 380/27/261
f  382/236/263 356/220/234 381/29/262
f  383/237/264 362/227/241 382/236/263
f  365/31/265 361/226/240 383/237/264
f  226/229/243 363/228/242 365/31/265
f  365/3/246 224/81/91 226/83/93
f  224/81/91 365/3/246 225/82/92
f  227/84/94 364/230/245 228/85/95
f  228/85/95 234/91/101 219/76/86
f  225/82/92 364/230/245 227/84/94
f  219/76/86 234/91/101 231/88/98
f  232/89/99 366/231/247 233/90/100
f  233/90/100 238/95/105 229/86/96
f  234/91/101 366/231/247 232/89/99
f  235/92/102 239/96/106 236/93/103
f  236/93/103 240/97/107 209/66/76
f  238/95/105 367/1/248 239/96/106
f  240/97/107 368/4/249 241/98/108
f  241/98/108 244/101/112 201/58/68
f  244/101/112 369/8/250 246/103/114
f  248/105/117 259/117/129 250/107/119
f  246/103/114 259/117/129 248/105/117
f  257/115/127 267/125/137 258/116/128
f  259/117/129 370/11/251 257/115/127
f  267/125/137 270/128/140 266/124/136
f  268/126/138 280/138/150 269/127/139
f  270/128/140 371/13/252 268/126/138
f  275/133/145 279/137/149 276/134/146
f  278/136/148 372/232/253 279/137/149
f  280/138/150 372/232/253 278/136/148
f  281/139/151 285/143/155 282/140/152
f  284/142/154 373/233/254 285/143/155
f  276/134/146 279/137/149 286/144/156
f  286/144/156 373/233/254 284/142/154
f  305/163/176 374/15/255 306/164/177
f  282/140/152 285/143/155 307/165/178
f  307/165/178 374/15/255 305/163/176
f  308/166/179 375/234/256 309/167/180
f  309/167/180 315/173/186 301/159/172
f  306/164/177 375/234/256 308/166/179
f  301/159/172 315/173/186 312/170/183
f  313/171/184 376/235/257 314/172/185
f  314/172/185 319/177/190 310/168/181
f  315/173/186 376/235/257 313/171/184
f  316/174/187 320/178/191 317/175/188
f  317/175/188 321/179/192 293/151/164
f  319/177/190 377/17/258 320/178/191
f  321/179/192 378/19/259 322/180/193
f  322/180/193 324/183/196 287/145/158
f  324/183/196 379/23/260 326/185/198
f  328/187/201 337/199/213 330/189/203
f  326/185/198 337/199/213 328/187/201
f  335/197/211 344/207/221 336/198/212
f  337/199/213 380/27/261 335/197/211
f  344/207/221 347/210/224 343/206/220
f  345/208/222 356/220/234 346/209/223
f  347/210/224 381/29/262 345/208/222
f  351/215/229 362/227/241 352/216/230
f  354/218/232 382/236/263 355/219/233
f  355/219/233 362/227/241 351/215/229
f  356/220/234 382/236/263 354/218/232
f  360/225/239 383/237/264 361/226/240
f  362/227/241 383/237/264 360/225/239
f  361/226/240 365/31/265 363/228/242
f  366/231/247 234/91/101 228/85/95
f  367/1/248 238/95/105 233/90/100
f  236/93/103 239/96/106 367/1/248
f  368/4/249 240/97/107 236/93/103
f  369/8/250 244/101/112 241/98/108
f  259/117/129 246/103/114 369/8/250
f  270/128/140 267/125/137 370/11/251
f  280/138/150 268/126/138 371/13/252
f  286/144/156 279/137/149 372/232/253
f  374/15/255 307/165/178 285/143/155
f  376/235/257 315/173/186 309/167/180
f  377/17/258 319/177/190 314/172/185
f  317/175/188 320/178/191 377/17/258
f  378/19/259 321/179/192 317/175/188
f  379/23/260 324/183/196 322/180/193
f  337/199/213 326/185/198 379/23/260
f  347/210/224 344/207/221 380/27/261
f  356/220/234 345/208/222 381/29/262
f  362/227/241 355/219/233 382/236/263
f  257/115/127 370/11/251 267/125/137
f  335/197/211 380/27/261 344/207/221
f  384/37/18 385/35/18 386/238/18
f  387/38/18 386/238/18 388/36/18
f  388/36/18 386/238/18 385/35/18
f  389/239/18 390/240/18 391/241/18
f  390/240/18 392/242/18 391/241/18
f  393/243/18 384/37/18 389/239/18
f  390/240/18 389/239/18 386/238/18
f  386/238/18 389/239/18 384/37/18
f  390/240/18 386/238/18 394/244/18
f  395/245/18 394/244/18 387/38/18
f  387/38/18 394/244/18 386/238/18
f  392/242/18 396/246/18 397/247/18
f  396/246/18 398/248/18 397/247/18
f  396/246/18 399/249/18 398/248/18
f  399/249/18 400/250/18 398/248/18
f  392/242/18 390/240/18 396/246/18
f  399/249/18 396/246/18 394/244/18
f  394/244/18 396/246/18 390/240/18
f  399/249/18 394/244/18 401/251/18
f  402/252/18 401/251/18 395/245/18
f  395/245/18 401/251/18 394/244/18
f  400/250/18 403/253/18 404/254/18
f  403/253/18 405/255/18 404/254/18
f  403/253/18 406/256/18 405/255/18
f  406/256/18 407/257/18 405/255/18
f  400/250/18 399/249/18 403/253/18
f  406/256/18 403/253/18 401/251/18
f  401/251/18 403/253/18 399/249/18
f  406/256/18 401/251/18 408/258/18
f  409/259/18 408/258/18 402/252/18
f  402/252/18 408/258/18 401/251/18
f  406/256/18 408/258/18 407/257/18
f  408/258/18 410/260/18 407/257/18
f  408/258/18 409/259/18 410/260/18
f  409/259/18 411/261/18 410/260/18
f  412/262/18 413/263/18 414/264/18
f  415/265/18 414/264/18 416/39/18
f  416/39/18 414/264/18 413/263/18
f  417/266/18 418/267/18 414/264/18
f  418/267/18 412/262/18 414/264/18
f  419/268/18 420/269/18 421/270/18
f  418/267/18 421/270/18 412/262/18
f  412/262/18 421/270/18 420/269/18
f  422/271/18 423/272/18 418/267/18
f  423/272/18 421/270/18 418/267/18
f  423/272/18 424/273/18 421/270/18
f  424/273/18 419/268/18 421/270/18
f  425/274/18 426/275/18 427/276/18
f  424/273/18 427/276/18 419/268/18
f  419/268/18 427/276/18 426/275/18
f  428/277/18 429/278/18 424/273/18
f  429/278/18 427/276/18 424/273/18
f  429/278/18 430/279/18 427/276/18
f  430/279/18 425/274/18 427/276/18
f  425/274/18 431/280/18 426/275/18
f  431/280/18 432/281/18 426/275/18
f  432/281/18 433/282/18 426/275/18
f  419/268/18 426/275/18 420/269/18
f  420/269/18 426/275/18 433/282/18
f  433/282/18 434/40/18 420/269/18
f  412/262/18 420/269/18 413/263/18
f  413/263/18 420/269/18 434/40/18
f  434/40/18 388/36/18 413/263/18
f  416/39/18 413/263/18 385/35/18
f  385/35/18 413/263/18 388/36/18
f  435/41/18 436/42/18 437/283/18
f  434/40/18 437/283/18 388/36/18
f  388/36/18 437/283/18 436/42/18
f  438/284/18 437/283/18 439/285/18
f  433/282/18 439/285/18 434/40/18
f  434/40/18 439/285/18 437/283/18
f  440/286/18 439/285/18 441/287/18
f  432/281/18 441/287/18 433/282/18
f  433/282/18 441/287/18 439/285/18
f  431/280/18 442/288/18 432/281/18
f  442/288/18 441/287/18 432/281/18
f  443/289/18 444/290/18 442/288/18
f  444/290/18 445/291/18 442/288/18
f  444/290/18 446/292/18 445/291/18
f  446/292/18 447/293/18 445/291/18
f  447/293/18 440/286/18 445/291/18
f  442/288/18 445/291/18 441/287/18
f  441/287/18 445/291/18 440/286/18
f  447/293/18 448/294/18 440/286/18
f  448/294/18 449/295/18 440/286/18
f  448/294/18 450/296/18 449/295/18
f  450/296/18 451/297/18 449/295/18
f  451/297/18 438/284/18 449/295/18
f  440/286/18 449/295/18 439/285/18
f  439/285/18 449/295/18 438/284/18
f  451/297/18 452/298/18 438/284/18
f  452/298/18 453/299/18 438/284/18
f  454/300/18 435/41/18 453/299/18
f  438/284/18 453/299/18 437/283/18
f  437/283/18 453/299/18 435/41/18
f  402/252/18 455/301/18 409/259/18
f  455/301/18 456/302/18 409/259/18
f  456/302/18 455/301/18 457/303/18
f  458/304/18 457/303/18 459/305/18
f  459/305/18 457/303/18 455/301/18
f  456/302/18 457/303/18 460/306/18
f  457/303/18 461/307/18 460/306/18
f  457/303/18 458/304/18 461/307/18
f  458/304/18 462/308/18 461/307/18
f  402/252/18 395/245/18 455/301/18
f  459/305/18 455/301/18 463/309/18
f  463/309/18 455/301/18 395/245/18
f  459/305/18 463/309/18 464/310/18
f  465/311/18 464/310/18 466/312/18
f  466/312/18 464/310/18 463/309/18
f  459/305/18 464/310/18 458/304/18
f  464/310/18 467/313/18 458/304/18
f  464/310/18 465/311/18 467/313/18
f  465/311/18 468/314/18 467/313/18
f  395/245/18 387/38/18 463/309/18
f  466/312/18 463/309/18 469/315/18
f  469/315/18 463/309/18 387/38/18
f  466/312/18 469/315/18 470/316/18
f  471/317/18 470/316/18 472/43/18
f  472/43/18 470/316/18 469/315/18
f  466/312/18 470/316/18 465/311/18
f  470/316/18 473/318/18 465/311/18
f  387/38/18 388/36/18 469/315/18
f  472/43/18 469/315/18 436/42/18
f  436/42/18 469/315/18 388/36/18
f  383/319/18 443/289/18 365/47/18
f  382/320/18 446/292/18 383/319/18
f  381/48/18 450/296/18 382/320/18
f  380/49/18 454/300/18 381/48/18
f  379/15/18 435/41/18 380/49/18
f  378/52/18 472/43/18 379/15/18
f  377/53/18 473/318/18 378/52/18
f  376/321/18 468/314/18 377/53/18
f  375/322/18 462/308/18 376/321/18
f  374/54/18 460/306/18 375/322/18
f  373/323/18 410/260/18 374/54/18
f  372/324/18 404/254/18 373/323/18
f  371/55/18 397/247/18 372/324/18
f  370/56/18 393/243/18 371/55/18
f  369/33/18 384/37/18 370/56/18
f  368/45/18 416/39/18 369/33/18
f  367/46/18 417/266/18 368/45/18
f  366/325/18 422/271/18 367/46/18
f  364/326/18 428/277/18 366/325/18
f  365/47/18 430/279/18 364/326/18
f  384/37/18 369/33/18 385/35/18
f  391/241/18 393/243/18 389/239/18
f  392/242/18 371/55/18 391/241/18
f  393/243/18 370/56/18 384/37/18
f  397/247/18 371/55/18 392/242/18
f  398/248/18 372/324/18 397/247/18
f  400/250/18 404/254/18 398/248/18
f  405/255/18 373/323/18 404/254/18
f  407/257/18 373/323/18 405/255/18
f  410/260/18 373/323/18 407/257/18
f  409/259/18 460/306/18 411/261/18
f  411/261/18 374/54/18 410/260/18
f  416/39/18 368/45/18 415/265/18
f  415/265/18 417/266/18 414/264/18
f  417/266/18 367/46/18 418/267/18
f  418/267/18 367/46/18 422/271/18
f  422/271/18 366/325/18 423/272/18
f  423/272/18 428/277/18 424/273/18
f  428/277/18 364/326/18 429/278/18
f  429/278/18 364/326/18 430/279/18
f  430/279/18 431/280/18 425/274/18
f  385/35/18 369/33/18 416/39/18
f  435/41/18 379/15/18 436/42/18
f  431/280/18 443/289/18 442/288/18
f  443/289/18 383/319/18 444/290/18
f  444/290/18 383/319/18 446/292/18
f  446/292/18 448/294/18 447/293/18
f  448/294/18 382/320/18 450/296/18
f  450/296/18 381/48/18 451/297/18
f  451/297/18 381/48/18 452/298/18
f  452/298/18 454/300/18 453/299/18
f  454/300/18 380/49/18 435/41/18
f  456/302/18 460/306/18 409/259/18
f  461/307/18 375/322/18 460/306/18
f  458/304/18 467/313/18 462/308/18
f  462/308/18 375/322/18 461/307/18
f  465/311/18 377/53/18 468/314/18
f  468/314/18 376/321/18 467/313/18
f  472/43/18 378/52/18 471/317/18
f  471/317/18 473/318/18 470/316/18
f  473/318/18 377/53/18 465/311/18
f  436/42/18 379/15/18 472/43/18
f  443/289/18 431/280/18 365/47/18
f  382/320/18 448/294/18 446/292/18
f  454/300/18 452/298/18 381/48/18
f  473/318/18 471/317/18 378/52/18
f  462/308/18 467/313/18 376/321/18
f  374/54/18 411/261/18 460/306/18
f  372/324/18 398/248/18 404/254/18
f  393/243/18 391/241/18 371/55/18
f  417/266/18 415/265/18 368/45/18
f  428/277/18 423/272/18 366/325/18
f  365/47/18 431/280/18 430/279/18

# Mesh '' with 96 faces
usemtl material0_red2
f  474/327/266 475/3/267 476/328/268
f  477/329/269 474/327/266 478/330/270
f  474/327/266 476/328/268 478/330/270
f  479/331/271 477/329/269 480/332/272
f  477/329/269 478/330/270 480/332/272
f  481/333/273 479/331/271 482/334/274
f  479/331/271 480/332/272 482/334/274
f  481/333/273 482/334/274 483/335/275
f  476/328/268 475/336/276 484/337/277
f  478/330/270 476/328/268 485/338/278
f  476/328/268 484/337/277 485/338/278
f  480/332/272 478/330/270 486/339/279
f  478/330/270 485/338/278 486/339/279
f  482/334/274 480/332/272 487/340/280
f  480/332/272 486/339/279 487/340/280
f  482/334/274 487/340/280 483/341/281
f  484/337/277 475/342/282 488/343/283
f  485/338/278 484/337/277 489/344/284
f  484/337/277 488/343/283 489/344/284
f  486/339/279 485/338/278 490/345/285
f  485/338/278 489/344/284 490/345/285
f  487/340/280 486/339/279 491/346/286
f  486/339/279 490/345/285 491/346/286
f  487/340/280 491/346/286 483/9/287
f  488/343/283 475/8/288 492/347/289
f  489/344/284 488/343/283 493/348/290
f  488/343/283 492/347/289 493/348/290
f  490/345/285 489/344/284 494/349/291
f  489/344/284 493/348/290 494/349/291
f  491/346/286 490/345/285 495/350/292
f  490/345/285 494/349/291 495/350/292
f  491/346/286 495/350/292 483/351/293
f  492/347/289 475/352/294 496/353/295
f  493/348/290 492/347/289 497/354/296
f  492/347/289 496/353/295 497/354/296
f  494/349/291 493/348/290 498/355/297
f  493/348/290 497/354/296 498/355/297
f  495/350/292 494/349/291 499/356/298
f  494/349/291 498/355/297 499/356/298
f  495/350/292 499/356/298 483/357/299
f  496/353/295 475/358/300 500/359/301
f  497/354/296 496/353/295 501/360/302
f  496/353/295 500/359/301 501/360/302
f  498/355/297 497/354/296 502/361/303
f  497/354/296 501/360/302 502/361/303
f  499/356/298 498/355/297 503/362/304
f  498/355/297 502/361/303 503/362/304
f  499/356/298 503/362/304 483/33/305
f  500/359/301 475/15/306 504/363/307
f  501/360/302 500/359/301 505/364/308
f  500/359/301 504/363/307 505/364/308
f  502/361/303 501/360/302 506/365/309
f  501/360/302 505/364/308 506/365/309
f  503/362/304 502/361/303 507/366/310
f  502/361/303 506/365/309 507/366/310
f  503/362/304 507/366/310 483/367/311
f  504/363/307 475/368/312 508/369/313
f  505/364/308 504/363/307 509/370/314
f  504/363/307 508/369/313 509/370/314
f  506/365/309 505/364/308 510/371/315
f  505/364/308 509/370/314 510/371/315
f  507/366/310 506/365/309 511/372/316
f  506/365/309 510/371/315 511/372/316
f  507/366/310 511/372/316 483/373/317
f  508/369/313 475/374/318 512/375/319
f  509/370/314 508/369/313 513/376/320
f  508/369/313 512/375/319 513/376/320
f  510/371/315 509/370/314 514/377/321
f  509/370/314 513/376/320 514/377/321
f  511/372/316 510/371/315 515/378/322
f  510/371/315 514/377/321 515/378/322
f  511/372/316 515/378/322 483/24/323
f  512/375/319 475/23/324 516/379/325
f  513/376/320 512/375/319 517/380/326
f  512/375/319 516/379/325 517/380/326
f  514/377/321 513/376/320 518/381/327
f  513/376/320 517/380/326 518/381/327
f  515/378/322 514/377/321 519/382/328
f  514/377/321 518/381/327 519/382/328
f  515/378/322 519/382/328 483/383/329
f  516/379/325 475/384/330 520/385/331
f  517/380/326 516/379/325 521/386/332
f  516/379/325 520/385/331 521/386/332
f  518/381/327 517/380/326 522/387/333
f  517/380/326 521/386/332 522/387/333
f  519/382/328 518/381/327 523/388/334
f  518/381/327 522/387/333 523/388/334
f  519/382/328 523/388/334 483/389/335
f  520/385/331 475/390/336 474/391/337
f  521/386/332 520/385/331 477/392/338
f  520/385/331 474/391/337 477/392/338
f  522/387/333 521/386/332 479/393/339
f  521/386/332 477/392/338 479/393/339
f  523/388/334 522/387/333 481/394/340
f  522/387/333 479/393/339 481/394/340
f  523/388/334 481/394/340 483/32/341
