# File produced by Open Asset Import Library (http://www.assimp.sf.net)
# (assimp v5.3.0)

mtllib sphere3.mtl

# 296 vertex positions
v -1.51147497 0.949218988 0.948975027
v -1.30834997 0.820312977 1.30834997
v -1.16772497 1.16796899 1.16772497
v -1.30834997 1.30859399 0.820068002
v -1.64038098 0.574218988 1.03100598
v -1.38647497 0.484375 1.38647497
v -1.70678699 0.191405997 1.070068
v -1.42553699 0.160155997 1.42553699
v -1.70678699 -0.191162005 1.070068
v -1.42553699 -0.159912005 1.42553699
v -1.64038098 -0.573975027 1.03100598
v -1.51147497 -0.948975027 0.948975027
v -1.30834997 -0.820068002 1.30834997
v -1.38647497 -0.484131008 1.38647497
v -1.30834997 -1.30834997 0.820068002
v -1.38647497 1.38671899 0.484131008
v -1.64038098 1.03125 0.573975027
v -1.81225598 0.632812977 0.632568002
v -1.898193 0.210938007 0.663818002
v -1.898193 -0.210693002 0.663818002
v -1.81225598 -0.632568002 0.632568002
v -1.64038098 -1.03100598 0.573975027
v -1.38647497 -1.38647497 0.484131008
v -1.70678699 1.07031298 0.191162005
v -1.42553699 1.42578101 0.159912005
v -1.898193 0.664062977 0.210693002
v -1.99975598 0.222655997 0.222412005
v -1.99975598 -0.222412005 0.222412005
v -1.898193 -0.663818002 0.210693002
v -1.70678699 -1.070068 0.191162005
v -1.42553699 -1.42553699 0.159912005
v -1.70678699 1.07031298 -0.191405997
v -1.42553699 1.42578101 -0.160155997
v -1.898193 0.664062977 -0.210938007
v -1.99975598 0.222655997 -0.222655997
v -1.99975598 -0.222412005 -0.222655997
v -1.898193 -0.663818002 -0.210938007
v -1.70678699 -1.070068 -0.191405997
v -1.42553699 -1.42553699 -0.160155997
v -1.64038098 1.03125 -0.574218988
v -1.38647497 1.38671899 -0.484375
v -1.81225598 0.632812977 -0.632812977
v -1.898193 0.210938007 -0.664062977
v -1.898193 -0.210693002 -0.664062977
v -1.81225598 -0.632568002 -0.632812977
v -1.64038098 -1.03100598 -0.574218988
v -1.38647497 -1.38647497 -0.484375
v -1.30834997 1.30859399 -0.820312977
v -1.51147497 0.949218988 -0.949218988
v -1.64038098 0.574218988 -1.03125
v -1.70678699 0.191405997 -1.07031298
v -1.70678699 -0.191162005 -1.07031298
v -1.64038098 -0.573975027 -1.03125
v -1.51147497 -0.948975027 -0.949218988
v -1.16772497 1.16796899 -1.16796899
v -1.30834997 0.820312977 -1.30859399
v -1.38647497 0.484375 -1.38671899
v -1.42553699 0.160155997 -1.42578101
v -1.42553699 -0.159912005 -1.42578101
v -1.38647497 -0.484131008 -1.38671899
v -1.30834997 -0.820068002 -1.30859399
v -1.16772497 -1.16772497 -1.16796899
v -0.948975027 -1.51147497 0.948975027
v -0.820068002 -1.30834997 1.30834997
v -1.16772497 -1.16772497 1.16772497
v -0.573975027 -1.64038098 1.03100598
v -0.484131008 -1.38647497 1.38647497
v -0.191162005 -1.70678699 1.070068
v -0.159912005 -1.42553699 1.42553699
v 0.191405997 -1.70678699 1.070068
v 0.160155997 -1.42553699 1.42553699
v 0.574218988 -1.64038098 1.03100598
v 0.484375 -1.38647497 1.38647497
v 1.30859399 -1.30834997 0.820068002
v 1.16796899 -1.16772497 1.16772497
v 0.820312977 -1.30834997 1.30834997
v -1.03100598 -1.64038098 0.573975027
v -0.632568002 -1.81225598 0.632568002
v -0.210693002 -1.898193 0.663818002
v 0.210938007 -1.898193 0.663818002
v 0.632812977 -1.81225598 0.632568002
v 1.03125 -1.64038098 0.573975027
v 0.949218988 -1.51147497 0.948975027
v 1.38671899 -1.38647497 0.484131008
v -1.070068 -1.70678699 0.191162005
v -0.663818002 -1.898193 0.210693002
v -0.222412005 -1.99975598 0.222412005
v 0.222655997 -1.99975598 0.222412005
v 0.664062977 -1.898193 0.210693002
v 1.07031298 -1.70678699 0.191162005
v 1.42578101 -1.42553699 0.159912005
v -1.070068 -1.70678699 -0.191405997
v -0.663818002 -1.898193 -0.210938007
v -0.222412005 -1.99975598 -0.222655997
v 0.222655997 -1.99975598 -0.222655997
v 0.664062977 -1.898193 -0.210938007
v 1.42578101 -1.42553699 -0.160155997
v 1.07031298 -1.70678699 -0.191405997
v -1.03100598 -1.64038098 -0.574218988
v -0.632568002 -1.81225598 -0.632812977
v -0.210693002 -1.898193 -0.664062977
v 0.210938007 -1.898193 -0.664062977
v 0.632812977 -1.81225598 -0.632812977
v 1.03125 -1.64038098 -0.574218988
v 1.38671899 -1.38647497 -0.484375
v -0.948975027 -1.51147497 -0.949218988
v -0.573975027 -1.64038098 -1.03125
v -0.191162005 -1.70678699 -1.07031298
v 0.191405997 -1.70678699 -1.07031298
v 0.574218988 -1.64038098 -1.03125
v 0.949218988 -1.51147497 -0.949218988
v 1.30859399 -1.30834997 -0.820312977
v -0.484131008 -1.38647497 -1.38671899
v -0.159912005 -1.42553699 -1.42578101
v 0.160155997 -1.42553699 -1.42578101
v 0.484375 -1.38647497 -1.38671899
v 0.820312977 -1.30834997 -1.30859399
v 1.16796899 -1.16772497 -1.16796899
v -0.948975027 0.949218988 1.51147497
v -0.820068002 1.30859399 1.30834997
v -0.573975027 1.03125 1.64038098
v -0.484131008 1.38671899 1.38647497
v -0.191162005 1.07031298 1.70678699
v -0.159912005 1.42578101 1.42553699
v 0.191405997 1.07031298 1.70678699
v 0.160155997 1.42578101 1.42553699
v 0.574218988 1.03125 1.64038098
v 0.484375 1.38671899 1.38647497
v 0.949218988 0.949218988 1.51147497
v 0.820312977 1.30859399 1.30834997
v 1.30859399 0.820312977 1.30834997
v 1.16796899 1.16796899 1.16772497
v -1.03100598 0.574218988 1.64038098
v -0.632568002 0.632812977 1.81225598
v -0.210693002 0.664062977 1.898193
v 0.210938007 0.664062977 1.898193
v 0.632812977 0.632812977 1.81225598
v 1.03125 0.574218988 1.64038098
v 1.38671899 0.484375 1.38647497
v -1.070068 0.191405997 1.70678699
v -0.663818002 0.210938007 1.898193
v -0.222412005 0.222655997 1.99975598
v 0.222655997 0.222655997 1.99975598
v 0.664062977 0.210938007 1.898193
v 1.42578101 0.160155997 1.42553699
v 1.07031298 0.191405997 1.70678699
v -1.070068 -0.191162005 1.70678699
v -0.663818002 -0.210693002 1.898193
v -0.222412005 -0.222412005 1.99975598
v 0.222655997 -0.222412005 1.99975598
v 0.664062977 -0.210693002 1.898193
v 1.07031298 -0.191162005 1.70678699
v 1.42578101 -0.159912005 1.42553699
v -1.03100598 -0.573975027 1.64038098
v -0.632568002 -0.632568002 1.81225598
v -0.210693002 -0.663818002 1.898193
v 0.210938007 -0.663818002 1.898193
v 0.632812977 -0.632568002 1.81225598
v 1.03125 -0.573975027 1.64038098
v 1.38671899 -0.484131008 1.38647497
v -0.948975027 -0.948975027 1.51147497
v -0.573975027 -1.03100598 1.64038098
v -0.191162005 -1.070068 1.70678699
v 0.191405997 -1.070068 1.70678699
v 0.574218988 -1.03100598 1.64038098
v 0.949218988 -0.948975027 1.51147497
v 1.30859399 -0.820068002 1.30834997
v 1.51171899 0.949218988 0.948975027
v 1.30859399 1.30859399 0.820068002
v 1.640625 1.03125 0.573975027
v 1.70703101 1.07031298 0.191162005
v 1.42578101 1.42578101 0.159912005
v 1.38671899 1.38671899 0.484131008
v 1.42578101 1.42578101 -0.160155997
v 1.70703101 1.07031298 -0.191405997
v 1.640625 1.03125 -0.574218988
v 1.51171899 0.949218988 -0.949218988
v 1.30859399 1.30859399 -0.820312977
v 1.38671899 1.38671899 -0.484375
v 1.30859399 0.820312977 -1.30859399
v 1.16796899 1.16796899 -1.16796899
v 1.640625 0.574218988 1.03100598
v 1.8125 0.632812977 0.632568002
v 1.89843798 0.664062977 0.210693002
v 1.89843798 0.664062977 -0.210938007
v 1.8125 0.632812977 -0.632812977
v 1.640625 0.574218988 -1.03125
v 1.38671899 0.484375 -1.38671899
v 1.70703101 0.191405997 1.070068
v 1.89843798 0.210938007 0.663818002
v 2 0.222655997 0.222412005
v 2 0.222655997 -0.222655997
v 1.89843798 0.210938007 -0.664062977
v 1.70703101 0.191405997 -1.07031298
v 1.42578101 0.160155997 -1.42578101
v 1.70703101 -0.191162005 1.070068
v 2 -0.222412005 0.222412005
v 2 -0.222412005 -0.222655997
v 1.89843798 -0.210693002 -0.664062977
v 1.70703101 -0.191162005 -1.07031298
v 1.42578101 -0.159912005 -1.42578101
v 1.640625 -0.573975027 1.03100598
v 1.8125 -0.632568002 0.632568002
v 1.89843798 -0.210693002 0.663818002
v 1.89843798 -0.663818002 0.210693002
v 1.89843798 -0.663818002 -0.210938007
v 1.8125 -0.632568002 -0.632812977
v 1.640625 -0.573975027 -1.03125
v 1.38671899 -0.484131008 -1.38671899
v 1.51171899 -0.948975027 0.948975027
v 1.640625 -1.03100598 0.573975027
v 1.70703101 -1.070068 0.191162005
v 1.70703101 -1.070068 -0.191405997
v 1.640625 -1.03100598 -0.574218988
v 1.51171899 -0.948975027 -0.949218988
v 1.30859399 -0.820068002 -1.30859399
v -0.948975027 1.51171899 0.948975027
v -1.03100598 1.640625 0.573975027
v -1.070068 1.70703101 0.191162005
v -1.070068 1.70703101 -0.191405997
v -1.03100598 1.640625 -0.574218988
v -0.948975027 1.51171899 -0.949218988
v -0.820068002 1.30859399 -1.30859399
v -0.573975027 1.640625 1.03100598
v -0.632568002 1.8125 0.632568002
v -0.663818002 1.89843798 -0.210938007
v -0.663818002 1.89843798 0.210693002
v -0.632568002 1.8125 -0.632812977
v -0.573975027 1.640625 -1.03125
v -0.484131008 1.38671899 -1.38671899
v -0.191162005 1.70703101 1.070068
v -0.210693002 1.89843798 0.663818002
v -0.222412005 2 0.222412005
v -0.222412005 2 -0.222655997
v -0.210693002 1.89843798 -0.664062977
v -0.191162005 1.70703101 -1.07031298
v -0.159912005 1.42578101 -1.42578101
v 0.191405997 1.70703101 1.070068
v 0.210938007 1.89843798 0.663818002
v 0.222655997 2 0.222412005
v 0.222655997 2 -0.222655997
v 0.210938007 1.89843798 -0.664062977
v 0.191405997 1.70703101 -1.07031298
v 0.160155997 1.42578101 -1.42578101
v 0.574218988 1.640625 1.03100598
v 0.632812977 1.8125 0.632568002
v 0.664062977 1.89843798 0.210693002
v 0.664062977 1.89843798 -0.210938007
v 0.632812977 1.8125 -0.632812977
v 0.574218988 1.640625 -1.03125
v 0.484375 1.38671899 -1.38671899
v 0.949218988 1.51171899 0.948975027
v 1.03125 1.640625 0.573975027
v 1.07031298 1.70703101 0.191162005
v 1.07031298 1.70703101 -0.191405997
v 1.03125 1.640625 -0.574218988
v 0.949218988 1.51171899 -0.949218988
v 0.820312977 1.30859399 -1.30859399
v -0.948975027 0.949218988 -1.51171899
v -1.03100598 0.574218988 -1.640625
v -1.070068 0.191405997 -1.70703101
v -1.070068 -0.191162005 -1.70703101
v -1.03100598 -0.573975027 -1.640625
v -0.948975027 -0.948975027 -1.51171899
v -0.820068002 -1.30834997 -1.30859399
v -0.573975027 1.03125 -1.640625
v -0.632568002 0.632812977 -1.8125
v -0.663818002 0.210938007 -1.89843798
v -0.663818002 -0.210693002 -1.89843798
v -0.632568002 -0.632568002 -1.8125
v -0.573975027 -1.03100598 -1.640625
v -0.191162005 1.07031298 -1.70703101
v -0.210693002 0.664062977 -1.89843798
v -0.222412005 0.222655997 -2
v -0.222412005 -0.222412005 -2
v -0.210693002 -0.663818002 -1.89843798
v -0.191162005 -1.070068 -1.70703101
v 0.191405997 1.07031298 -1.70703101
v 0.210938007 0.664062977 -1.89843798
v 0.222655997 0.222655997 -2
v 0.222655997 -0.222412005 -2
v 0.210938007 -0.663818002 -1.89843798
v 0.191405997 -1.070068 -1.70703101
v 0.574218988 1.03125 -1.640625
v 0.632812977 0.632812977 -1.8125
v 0.664062977 0.210938007 -1.89843798
v 0.664062977 -0.210693002 -1.89843798
v 0.632812977 -0.632568002 -1.8125
v 0.574218988 -1.03100598 -1.640625
v 0.949218988 0.949218988 -1.51171899
v 1.03125 0.574218988 -1.640625
v 1.07031298 0.191405997 -1.70703101
v 1.07031298 -0.191162005 -1.70703101
v 1.03125 -0.573975027 -1.640625
v 0.949218988 -0.948975027 -1.51171899
v -1.30834997 -1.30834997 -0.820312977

# 1 UV coordinates
vt 0 1 0

# 296 vertex normals
vn -0.752835989 0.465424001 0.465424001
vn -0.648782015 0.397700012 0.648782015
vn -0.57735002 0.57735002 0.57735002
vn -0.648782015 0.648782015 0.397700012
vn -0.815447986 0.280230999 0.506473005
vn -0.688750982 0.226370007 0.688750982
vn -0.845270991 0.0942609981 0.525958002
vn -0.70598799 0.0562210009 0.70598799
vn -0.843879998 -0.101585999 0.526827991
vn -0.701838017 -0.121841997 0.701838017
vn -0.810395002 -0.289835006 0.509171009
vn -0.751561999 -0.466452003 0.466452003
vn -0.628916979 -0.457085997 0.628916979
vn -0.677455008 -0.286549985 0.677455008
vn -0.647677004 -0.630686998 0.427491009
vn -0.688750982 0.688750982 0.226370007
vn -0.815447986 0.506473005 0.280230999
vn -0.898015022 0.311102986 0.311102986
vn -0.939405978 0.104175001 0.326595008
vn -0.938926995 -0.108785003 0.326469988
vn -0.895426989 -0.314810991 0.314810991
vn -0.810395002 -0.509171009 0.289835006
vn -0.689122021 -0.677726984 0.25650999
vn -0.845270991 0.525958002 0.0942609981
vn -0.70598799 0.70598799 0.0562210009
vn -0.939405978 0.326595008 0.104175001
vn -0.987547994 0.11124 0.11124
vn -0.987021029 -0.113554001 0.113554001
vn -0.938926995 -0.326469988 0.108785003
vn -0.843879998 -0.526827991 0.101585999
vn -0.705475986 -0.703116 0.0890619978
vn -0.843879998 0.526827991 -0.101585999
vn -0.701838017 0.70183903 -0.121841997
vn -0.938926995 0.326469988 -0.108785003
vn -0.987021029 0.113554001 -0.113554001
vn -0.987547994 -0.11124 -0.11124
vn -0.939405978 -0.326595008 -0.104175001
vn -0.845270991 -0.525958002 -0.0942609981
vn -0.703116 -0.705475986 -0.0890619978
vn -0.810395002 0.509171009 -0.289835006
vn -0.677455008 0.677455008 -0.286549985
vn -0.895426989 0.314810991 -0.314810991
vn -0.938926995 0.108785003 -0.326469988
vn -0.939405978 -0.104175001 -0.326595008
vn -0.898015022 -0.311102986 -0.311102986
vn -0.815447986 -0.506473005 -0.280230999
vn -0.677726984 -0.689122021 -0.25650999
vn -0.628916979 0.628916979 -0.457085997
vn -0.751561999 0.466452003 -0.466452003
vn -0.810395002 0.289835006 -0.509171009
vn -0.843879998 0.101585999 -0.526827991
vn -0.845270991 -0.0942609981 -0.525958002
vn -0.815447986 -0.280230999 -0.506473005
vn -0.752835989 -0.465424001 -0.465424001
vn -0.572660983 0.572660983 -0.586616993
vn -0.647677004 0.427491009 -0.630686998
vn -0.689122021 0.25650999 -0.677726984
vn -0.705475986 0.0890619978 -0.703116
vn -0.703116 -0.0890619978 -0.705475986
vn -0.677726984 -0.25650999 -0.689122021
vn -0.630686998 -0.427491009 -0.647677004
vn -0.586616993 -0.572660983 -0.572660983
vn -0.465424001 -0.752835989 0.465424001
vn -0.427491009 -0.630686998 0.647677004
vn -0.572660983 -0.586616993 0.572660983
vn -0.280230999 -0.815447986 0.506473005
vn -0.25650999 -0.677726984 0.689122021
vn -0.0942609981 -0.845270991 0.525958002
vn -0.0890619978 -0.703116 0.705475986
vn 0.101585999 -0.843879998 0.526827991
vn 0.0890619978 -0.705475986 0.703116
vn 0.289835006 -0.810395002 0.509171009
vn 0.25650999 -0.689122021 0.677726984
vn 0.628916979 -0.628916979 0.457085997
vn 0.572660983 -0.572660983 0.586616993
vn 0.427491009 -0.647677004 0.630686998
vn -0.506473005 -0.815447986 0.280230999
vn -0.311102986 -0.898015022 0.311102986
vn -0.104175001 -0.939405978 0.326595008
vn 0.108785003 -0.938926995 0.326469988
vn 0.314810991 -0.895426989 0.314810991
vn 0.509171009 -0.810395002 0.289835006
vn 0.466452003 -0.751561999 0.466452003
vn 0.677455008 -0.677455008 0.286549985
vn -0.525958002 -0.845270991 0.0942609981
vn -0.326595008 -0.939405978 0.104175001
vn -0.11124 -0.987547994 0.11124
vn 0.113554001 -0.987021029 0.113554001
vn 0.326469988 -0.938926995 0.108785003
vn 0.526827991 -0.843879998 0.101585999
vn 0.70183903 -0.701838017 0.121841997
vn -0.526827991 -0.843879998 -0.101585999
vn -0.326469988 -0.938926995 -0.108785003
vn -0.113554001 -0.987021029 -0.113554001
vn 0.11124 -0.987547994 -0.11124
vn 0.326595008 -0.939405978 -0.104175001
vn 0.70598799 -0.70598799 -0.0562210009
vn 0.525958002 -0.845270991 -0.0942609981
vn -0.509171009 -0.810395002 -0.289835006
vn -0.314810991 -0.895426989 -0.314810991
vn -0.108785003 -0.938926995 -0.326469988
vn 0.104175001 -0.939405978 -0.326595008
vn 0.311102986 -0.898015022 -0.311102986
vn 0.506473005 -0.815447986 -0.280230999
vn 0.688750982 -0.688750982 -0.226370007
vn -0.466452003 -0.751561999 -0.466452003
vn -0.289835006 -0.810395002 -0.509171009
vn -0.101585999 -0.843879998 -0.526827991
vn 0.0942609981 -0.845270991 -0.525958002
vn 0.280230999 -0.815447986 -0.506473005
vn 0.465424001 -0.752835989 -0.465424001
vn 0.648782015 -0.648782015 -0.397700012
vn -0.286549985 -0.677455008 -0.677455008
vn -0.121841997 -0.70183903 -0.701838017
vn 0.0562210009 -0.70598799 -0.70598799
vn 0.226370007 -0.688750982 -0.688750982
vn 0.397700012 -0.648782015 -0.648782015
vn 0.57735002 -0.57735002 -0.57735002
vn -0.465424001 0.465424001 0.752835989
vn -0.397700012 0.648782015 0.648782015
vn -0.280230999 0.506473005 0.815447986
vn -0.226370007 0.688750982 0.688750982
vn -0.0942609981 0.525958002 0.845270991
vn -0.0562210009 0.70598799 0.70598799
vn 0.101585999 0.526827991 0.843879998
vn 0.121841997 0.701838017 0.701838017
vn 0.289835006 0.509171009 0.810395002
vn 0.286549985 0.677455008 0.677455008
vn 0.466452003 0.466452003 0.751561999
vn 0.457085997 0.628916979 0.628916979
vn 0.630686998 0.427491009 0.647677004
vn 0.586616993 0.572660983 0.572660983
vn -0.506473005 0.280230999 0.815447986
vn -0.311102986 0.311102986 0.898015022
vn -0.104175001 0.326595008 0.939405978
vn 0.108785003 0.326469988 0.938926995
vn 0.314810991 0.314810991 0.895426989
vn 0.509171009 0.289835006 0.810395002
vn 0.677726984 0.25650999 0.689122021
vn -0.525958002 0.0942609981 0.845270991
vn -0.326595008 0.104175001 0.939405978
vn -0.11124 0.11124 0.987547994
vn 0.113554001 0.113554001 0.987021029
vn 0.326469988 0.108785003 0.938926995
vn 0.703116 0.0890619978 0.705475986
vn 0.526827991 0.101585999 0.843879998
vn -0.526827991 -0.101585999 0.843879998
vn -0.326469988 -0.108785003 0.938926995
vn -0.113554001 -0.113554001 0.987021029
vn 0.11124 -0.11124 0.987547994
vn 0.326595008 -0.104175001 0.939405978
vn 0.525958002 -0.0942609981 0.845270991
vn 0.705475986 -0.0890619978 0.703116
vn -0.509171009 -0.289835006 0.810395002
vn -0.314810991 -0.314810991 0.895426989
vn -0.108785003 -0.326469988 0.938926995
vn 0.104175001 -0.326595008 0.939405978
vn 0.311102986 -0.311102986 0.898015022
vn 0.506473005 -0.280230999 0.815447986
vn 0.689122021 -0.25650999 0.677726984
vn -0.466452003 -0.466452003 0.751561999
vn -0.289835006 -0.509171009 0.810395002
vn -0.101585999 -0.526827991 0.843879998
vn 0.0942609981 -0.525958002 0.845270991
vn 0.280230999 -0.506473005 0.815447986
vn 0.465424001 -0.465424001 0.752835989
vn 0.647677004 -0.427491009 0.630686998
vn 0.752835989 0.465424001 0.465424001
vn 0.630686998 0.647677004 0.427491009
vn 0.815447986 0.506473005 0.280230999
vn 0.845270991 0.525958002 0.0942609981
vn 0.703116 0.705475986 0.0890619978
vn 0.677726984 0.689122021 0.25650999
vn 0.705475986 0.703116 -0.0890619978
vn 0.843879998 0.526827991 -0.101585999
vn 0.810395002 0.509171009 -0.289835006
vn 0.751561999 0.466452003 -0.466452003
vn 0.647677004 0.630686998 -0.427491009
vn 0.689122021 0.677726984 -0.25650999
vn 0.628916979 0.457085997 -0.628916979
vn 0.572660983 0.586616993 -0.572660983
vn 0.815447986 0.280230999 0.506473005
vn 0.898015022 0.311102986 0.311102986
vn 0.939405978 0.326595008 0.104175001
vn 0.938926995 0.326469988 -0.108785003
vn 0.895426989 0.314810991 -0.314810991
vn 0.810395002 0.289835006 -0.509171009
vn 0.677455008 0.286549985 -0.677455008
vn 0.845270991 0.0942609981 0.525958002
vn 0.939405978 0.104175001 0.326595008
vn 0.987547994 0.11124 0.11124
vn 0.987021029 0.113554001 -0.113554001
vn 0.938926995 0.108785003 -0.326469988
vn 0.843879998 0.101585999 -0.526827991
vn 0.701838017 0.121841997 -0.70183903
vn 0.843879998 -0.101585999 0.526827991
vn 0.987021029 -0.113554001 0.113554001
vn 0.987547994 -0.11124 -0.11124
vn 0.939405978 -0.104175001 -0.326595008
vn 0.845270991 -0.0942609981 -0.525958002
vn 0.70598799 -0.0562210009 -0.70598799
vn 0.810395002 -0.289835006 0.509171009
vn 0.895426989 -0.314810991 0.314810991
vn 0.938926995 -0.108785003 0.326469988
vn 0.938926995 -0.326469988 0.108785003
vn 0.939405978 -0.326595008 -0.104175001
vn 0.898015022 -0.311102986 -0.311102986
vn 0.815447986 -0.280230999 -0.506473005
vn 0.688750982 -0.226370007 -0.688750982
vn 0.751561999 -0.466452003 0.466452003
vn 0.810395002 -0.509171009 0.289835006
vn 0.843879998 -0.526827991 0.101585999
vn 0.845270991 -0.525958002 -0.0942609981
vn 0.815447986 -0.506473005 -0.280230999
vn 0.752835989 -0.465424001 -0.465424001
vn 0.648782015 -0.397700012 -0.648782015
vn -0.465424001 0.752835989 0.465424001
vn -0.506473005 0.815447986 0.280230999
vn -0.525958002 0.845270991 0.0942609981
vn -0.526827991 0.843879998 -0.101585999
vn -0.509171009 0.810395002 -0.289835006
vn -0.466452003 0.751561999 -0.466452003
vn -0.427491009 0.647677004 -0.630686998
vn -0.280230999 0.815447986 0.506473005
vn -0.311102986 0.898015022 0.311102986
vn -0.326469988 0.938926995 -0.108785003
vn -0.326595008 0.939405978 0.104175001
vn -0.314810991 0.895426989 -0.314810991
vn -0.289835006 0.810395002 -0.509171009
vn -0.25650999 0.689122021 -0.677726984
vn -0.0942609981 0.845270991 0.525958002
vn -0.104175001 0.939405978 0.326595008
vn -0.11124 0.987547994 0.11124
vn -0.113554001 0.987021029 -0.113554001
vn -0.108785003 0.938926995 -0.326469988
vn -0.101585999 0.843879998 -0.526827991
vn -0.0890619978 0.705475986 -0.703116
vn 0.101585999 0.843879998 0.526827991
vn 0.108785003 0.938926995 0.326469988
vn 0.113554001 0.987021029 0.113554001
vn 0.11124 0.987547994 -0.11124
vn 0.104175001 0.939405978 -0.326595008
vn 0.0942609981 0.845270991 -0.525958002
vn 0.0890619978 0.703116 -0.705475986
vn 0.289835006 0.810395002 0.509171009
vn 0.314810991 0.895426989 0.314810991
vn 0.326469988 0.938926995 0.108785003
vn 0.326595008 0.939405978 -0.104175001
vn 0.311102986 0.898015022 -0.311102986
vn 0.280230999 0.815447986 -0.506473005
vn 0.25650999 0.677726984 -0.689122021
vn 0.466452003 0.751561999 0.466452003
vn 0.509171009 0.810395002 0.289835006
vn 0.526827991 0.843879998 0.101585999
vn 0.525958002 0.845270991 -0.0942609981
vn 0.506473005 0.815447986 -0.280230999
vn 0.465424001 0.752835989 -0.465424001
vn 0.427491009 0.630686998 -0.647677004
vn -0.465424001 0.465424001 -0.752835989
vn -0.506473005 0.280230999 -0.815447986
vn -0.525958002 0.0942609981 -0.845270991
vn -0.526827991 -0.101585999 -0.843879998
vn -0.509171009 -0.289835006 -0.810395002
vn -0.466452003 -0.466452003 -0.751561999
vn -0.457085997 -0.628916979 -0.628916979
vn -0.280230999 0.506473005 -0.815447986
vn -0.311102986 0.311102986 -0.898015022
vn -0.326595008 0.104175001 -0.939405978
vn -0.326469988 -0.108785003 -0.938926995
vn -0.314810991 -0.314810991 -0.895426989
vn -0.289835006 -0.509171009 -0.810395002
vn -0.0942609981 0.525958002 -0.845270991
vn -0.104175001 0.326595008 -0.939405978
vn -0.11124 0.11124 -0.987547994
vn -0.113554001 -0.113554001 -0.987021029
vn -0.108785003 -0.326469988 -0.938926995
vn -0.101585999 -0.526827991 -0.843879998
vn 0.101585999 0.526827991 -0.843879998
vn 0.108785003 0.326469988 -0.938926995
vn 0.113554001 0.113554001 -0.987021029
vn 0.11124 -0.11124 -0.987547994
vn 0.104175001 -0.326595008 -0.939405978
vn 0.0942609981 -0.525958002 -0.845270991
vn 0.289835006 0.509171009 -0.810395002
vn 0.314810991 0.314810991 -0.895426989
vn 0.326469988 0.108785003 -0.938926995
vn 0.326595008 -0.104175001 -0.939405978
vn 0.311102986 -0.311102986 -0.898015022
vn 0.280230999 -0.506473005 -0.815447986
vn 0.466452003 0.466452003 -0.751561999
vn 0.509171009 0.289835006 -0.810395002
vn 0.526827991 0.101585999 -0.843879998
vn 0.525958002 -0.0942609981 -0.845270991
vn 0.506473005 -0.280230999 -0.815447986
vn 0.465424001 -0.465424001 -0.752835989
vn -0.630686998 -0.647677004 -0.427491009

# Mesh '' with 472 faces
usemtl material0
f  1/1/1 2/1/2 3/1/3
f  3/1/3 4/1/4 1/1/1
f  5/1/5 6/1/6 2/1/2
f  2/1/2 1/1/1 5/1/5
f  7/1/7 8/1/8 6/1/6
f  6/1/6 5/1/5 7/1/7
f  9/1/9 10/1/10 8/1/8
f  10/1/10 9/1/9 11/1/11
f  12/1/12 13/1/13 14/1/14
f  14/1/14 11/1/11 12/1/12
f  13/1/13 12/1/12 15/1/15
f  4/1/4 16/1/16 17/1/17
f  18/1/18 5/1/5 1/1/1
f  19/1/19 7/1/7 5/1/5
f  5/1/5 18/1/18 19/1/19
f  20/1/20 9/1/9 7/1/7
f  7/1/7 19/1/19 20/1/20
f  21/1/21 11/1/11 9/1/9
f  9/1/9 20/1/20 21/1/21
f  22/1/22 12/1/12 11/1/11
f  11/1/11 21/1/21 22/1/22
f  23/1/23 15/1/15 12/1/12
f  12/1/12 22/1/22 23/1/23
f  24/1/24 17/1/17 16/1/16
f  16/1/16 25/1/25 24/1/24
f  17/1/17 24/1/24 26/1/26
f  27/1/27 19/1/19 18/1/18
f  18/1/18 26/1/26 27/1/27
f  28/1/28 20/1/20 19/1/19
f  19/1/19 27/1/27 28/1/28
f  29/1/29 21/1/21 20/1/20
f  20/1/20 28/1/28 29/1/29
f  30/1/30 22/1/22 21/1/21
f  31/1/31 23/1/23 22/1/22
f  32/1/32 24/1/24 25/1/25
f  25/1/25 33/1/33 32/1/32
f  34/1/34 26/1/26 24/1/24
f  24/1/24 32/1/32 34/1/34
f  35/1/35 27/1/27 26/1/26
f  26/1/26 34/1/34 35/1/35
f  36/1/36 28/1/28 27/1/27
f  27/1/27 35/1/35 36/1/36
f  37/1/37 29/1/29 28/1/28
f  28/1/28 36/1/36 37/1/37
f  38/1/38 30/1/30 29/1/29
f  29/1/29 37/1/37 38/1/38
f  39/1/39 31/1/31 30/1/30
f  30/1/30 38/1/38 39/1/39
f  40/1/40 32/1/32 33/1/33
f  33/1/33 41/1/41 40/1/40
f  32/1/32 40/1/40 42/1/42
f  43/1/43 35/1/35 34/1/34
f  34/1/34 42/1/42 43/1/43
f  44/1/44 36/1/36 35/1/35
f  35/1/35 43/1/43 44/1/44
f  45/1/45 37/1/37 36/1/36
f  36/1/36 44/1/44 45/1/45
f  46/1/46 38/1/38 37/1/37
f  37/1/37 45/1/45 46/1/46
f  47/1/47 39/1/39 38/1/38
f  38/1/38 46/1/46 47/1/47
f  41/1/41 48/1/48 49/1/49
f  50/1/50 42/1/42 40/1/40
f  40/1/40 49/1/49 50/1/50
f  51/1/51 43/1/43 42/1/42
f  42/1/42 50/1/50 51/1/51
f  52/1/52 44/1/44 43/1/43
f  43/1/43 51/1/51 52/1/52
f  53/1/53 45/1/45 44/1/44
f  44/1/44 52/1/52 53/1/53
f  45/1/45 53/1/53 54/1/54
f  48/1/48 55/1/55 56/1/56
f  57/1/57 50/1/50 49/1/49
f  58/1/58 51/1/51 50/1/50
f  50/1/50 57/1/57 58/1/58
f  59/1/59 52/1/52 51/1/51
f  51/1/51 58/1/58 59/1/59
f  60/1/60 53/1/53 52/1/52
f  61/1/61 54/1/54 53/1/53
f  53/1/53 60/1/60 61/1/61
f  54/1/54 61/1/61 62/1/62
f  63/1/63 64/1/64 65/1/65
f  65/1/65 15/1/15 63/1/63
f  66/1/66 67/1/67 64/1/64
f  64/1/64 63/1/63 66/1/66
f  68/1/68 69/1/69 67/1/67
f  67/1/67 66/1/66 68/1/68
f  70/1/70 71/1/71 69/1/69
f  69/1/69 68/1/68 70/1/70
f  72/1/72 73/1/73 71/1/71
f  71/1/71 70/1/70 72/1/72
f  74/1/74 75/1/75 76/1/76
f  77/1/77 63/1/63 15/1/15
f  15/1/15 23/1/23 77/1/77
f  78/1/78 66/1/66 63/1/63
f  63/1/63 77/1/77 78/1/78
f  79/1/79 68/1/68 66/1/66
f  66/1/66 78/1/78 79/1/79
f  80/1/80 70/1/70 68/1/68
f  68/1/68 79/1/79 80/1/80
f  81/1/81 72/1/72 70/1/70
f  70/1/70 80/1/80 81/1/81
f  82/1/82 83/1/83 72/1/72
f  84/1/84 74/1/74 83/1/83
f  83/1/83 82/1/82 84/1/84
f  23/1/23 31/1/31 85/1/85
f  86/1/86 78/1/78 77/1/77
f  77/1/77 85/1/85 86/1/86
f  78/1/78 86/1/86 87/1/87
f  79/1/79 87/1/87 88/1/88
f  80/1/80 88/1/88 89/1/89
f  90/1/90 82/1/82 81/1/81
f  91/1/91 84/1/84 82/1/82
f  82/1/82 90/1/90 91/1/91
f  31/1/31 39/1/39 92/1/92
f  93/1/93 86/1/86 85/1/85
f  86/1/86 93/1/93 94/1/94
f  95/1/95 88/1/88 87/1/87
f  87/1/87 94/1/94 95/1/95
f  96/1/96 89/1/89 88/1/88
f  97/1/97 91/1/91 90/1/90
f  90/1/90 98/1/98 97/1/97
f  99/1/99 92/1/92 39/1/39
f  39/1/39 47/1/47 99/1/99
f  92/1/92 99/1/99 100/1/100
f  101/1/101 94/1/94 93/1/93
f  93/1/93 100/1/100 101/1/101
f  102/1/102 95/1/95 94/1/94
f  95/1/95 102/1/102 103/1/103
f  104/1/104 98/1/98 96/1/96
f  105/1/105 97/1/97 98/1/98
f  98/1/98 104/1/104 105/1/105
f  106/1/106 99/1/99 47/1/47
f  99/1/99 106/1/106 107/1/107
f  108/1/108 101/1/101 100/1/100
f  100/1/100 107/1/107 108/1/108
f  109/1/109 102/1/102 101/1/101
f  101/1/101 108/1/108 109/1/109
f  110/1/110 103/1/103 102/1/102
f  102/1/102 109/1/109 110/1/110
f  103/1/103 110/1/110 111/1/111
f  104/1/104 111/1/111 112/1/112
f  113/1/113 107/1/107 106/1/106
f  114/1/114 108/1/108 107/1/107
f  107/1/107 113/1/113 114/1/114
f  115/1/115 109/1/109 108/1/108
f  108/1/108 114/1/114 115/1/115
f  116/1/116 110/1/110 109/1/109
f  109/1/109 115/1/115 116/1/116
f  117/1/117 111/1/111 110/1/110
f  110/1/110 116/1/116 117/1/117
f  118/1/118 112/1/112 111/1/111
f  111/1/111 117/1/117 118/1/118
f  119/1/119 120/1/120 3/1/3
f  3/1/3 2/1/2 119/1/119
f  121/1/121 122/1/122 120/1/120
f  120/1/120 119/1/119 121/1/121
f  123/1/123 124/1/124 122/1/122
f  122/1/122 121/1/121 123/1/123
f  125/1/125 126/1/126 124/1/124
f  124/1/124 123/1/123 125/1/125
f  127/1/127 128/1/128 126/1/126
f  126/1/126 125/1/125 127/1/127
f  129/1/129 130/1/130 128/1/128
f  131/1/131 132/1/132 130/1/130
f  130/1/130 129/1/129 131/1/131
f  133/1/133 119/1/119 2/1/2
f  134/1/134 121/1/121 119/1/119
f  119/1/119 133/1/133 134/1/134
f  135/1/135 123/1/123 121/1/121
f  121/1/121 134/1/134 135/1/135
f  136/1/136 125/1/125 123/1/123
f  123/1/123 135/1/135 136/1/136
f  137/1/137 127/1/127 125/1/125
f  125/1/125 136/1/136 137/1/137
f  138/1/138 129/1/129 127/1/127
f  129/1/129 138/1/138 139/1/139
f  140/1/140 133/1/133 6/1/6
f  6/1/6 8/1/8 140/1/140
f  141/1/141 134/1/134 133/1/133
f  133/1/133 140/1/140 141/1/141
f  142/1/142 135/1/135 134/1/134
f  134/1/134 141/1/141 142/1/142
f  135/1/135 142/1/142 143/1/143
f  144/1/144 137/1/137 136/1/136
f  136/1/136 143/1/143 144/1/144
f  145/1/145 139/1/139 138/1/138
f  138/1/138 146/1/146 145/1/145
f  147/1/147 140/1/140 8/1/8
f  8/1/8 10/1/10 147/1/147
f  148/1/148 141/1/141 140/1/140
f  140/1/140 147/1/147 148/1/148
f  149/1/149 142/1/142 141/1/141
f  141/1/141 148/1/148 149/1/149
f  150/1/150 143/1/143 142/1/142
f  142/1/142 149/1/149 150/1/150
f  151/1/151 144/1/144 143/1/143
f  143/1/143 150/1/150 151/1/151
f  152/1/152 146/1/146 144/1/144
f  144/1/144 151/1/151 152/1/152
f  153/1/153 145/1/145 146/1/146
f  146/1/146 152/1/152 153/1/153
f  154/1/154 147/1/147 10/1/10
f  10/1/10 14/1/14 154/1/154
f  147/1/147 154/1/154 155/1/155
f  156/1/156 149/1/149 148/1/148
f  148/1/148 155/1/155 156/1/156
f  157/1/157 150/1/150 149/1/149
f  149/1/149 156/1/156 157/1/157
f  158/1/158 151/1/151 150/1/150
f  150/1/150 157/1/157 158/1/158
f  159/1/159 152/1/152 151/1/151
f  151/1/151 158/1/158 159/1/159
f  160/1/160 153/1/153 152/1/152
f  152/1/152 159/1/159 160/1/160
f  161/1/161 154/1/154 14/1/14
f  162/1/162 155/1/155 154/1/154
f  154/1/154 161/1/161 162/1/162
f  163/1/163 156/1/156 155/1/155
f  155/1/155 162/1/162 163/1/163
f  164/1/164 157/1/157 156/1/156
f  165/1/165 158/1/158 157/1/157
f  157/1/157 164/1/164 165/1/165
f  166/1/166 159/1/159 158/1/158
f  167/1/167 160/1/160 159/1/159
f  159/1/159 166/1/166 167/1/167
f  64/1/64 161/1/161 13/1/13
f  13/1/13 65/1/65 64/1/64
f  161/1/161 64/1/64 67/1/67
f  162/1/162 67/1/67 69/1/69
f  163/1/163 69/1/69 71/1/71
f  73/1/73 165/1/165 164/1/164
f  164/1/164 71/1/71 73/1/73
f  165/1/165 73/1/73 76/1/76
f  75/1/75 167/1/167 166/1/166
f  166/1/166 76/1/76 75/1/75
f  132/1/132 131/1/131 168/1/168
f  169/1/169 168/1/168 170/1/170
f  171/1/171 172/1/172 173/1/173
f  173/1/173 170/1/170 171/1/171
f  174/1/174 175/1/175 176/1/176
f  177/1/177 178/1/178 179/1/179
f  179/1/179 176/1/176 177/1/177
f  180/1/180 181/1/181 178/1/178
f  178/1/178 177/1/177 180/1/180
f  182/1/182 168/1/168 131/1/131
f  131/1/131 139/1/139 182/1/182
f  183/1/183 170/1/170 168/1/168
f  168/1/168 182/1/182 183/1/183
f  184/1/184 171/1/171 170/1/170
f  171/1/171 184/1/184 185/1/185
f  186/1/186 176/1/176 175/1/175
f  175/1/175 185/1/185 186/1/186
f  176/1/176 186/1/186 187/1/187
f  188/1/188 180/1/180 177/1/177
f  177/1/177 187/1/187 188/1/188
f  189/1/189 182/1/182 139/1/139
f  139/1/139 145/1/145 189/1/189
f  190/1/190 183/1/183 182/1/182
f  182/1/182 189/1/189 190/1/190
f  191/1/191 184/1/184 183/1/183
f  183/1/183 190/1/190 191/1/191
f  184/1/184 191/1/191 192/1/192
f  185/1/185 192/1/192 193/1/193
f  194/1/194 187/1/187 186/1/186
f  186/1/186 193/1/193 194/1/194
f  195/1/195 188/1/188 187/1/187
f  196/1/196 189/1/189 145/1/145
f  197/1/197 191/1/191 190/1/190
f  198/1/198 192/1/192 191/1/191
f  191/1/191 197/1/197 198/1/198
f  199/1/199 193/1/193 192/1/192
f  192/1/192 198/1/198 199/1/199
f  200/1/200 194/1/194 193/1/193
f  193/1/193 199/1/199 200/1/200
f  201/1/201 195/1/195 194/1/194
f  194/1/194 200/1/200 201/1/201
f  202/1/202 196/1/196 153/1/153
f  153/1/153 160/1/160 202/1/202
f  203/1/203 204/1/204 196/1/196
f  205/1/205 197/1/197 204/1/204
f  204/1/204 203/1/203 205/1/205
f  197/1/197 205/1/205 206/1/206
f  207/1/207 199/1/199 198/1/198
f  198/1/198 206/1/206 207/1/207
f  208/1/208 200/1/200 199/1/199
f  199/1/199 207/1/207 208/1/208
f  209/1/209 201/1/201 200/1/200
f  200/1/200 208/1/208 209/1/209
f  210/1/210 202/1/202 160/1/160
f  202/1/202 210/1/210 211/1/211
f  212/1/212 205/1/205 203/1/203
f  213/1/213 206/1/206 205/1/205
f  205/1/205 212/1/212 213/1/213
f  214/1/214 207/1/207 206/1/206
f  215/1/215 208/1/208 207/1/207
f  216/1/216 209/1/209 208/1/208
f  208/1/208 215/1/215 216/1/216
f  74/1/74 210/1/210 167/1/167
f  84/1/84 211/1/211 210/1/210
f  210/1/210 74/1/74 84/1/84
f  97/1/97 213/1/213 212/1/212
f  212/1/212 91/1/91 97/1/97
f  105/1/105 214/1/214 213/1/213
f  213/1/213 97/1/97 105/1/105
f  112/1/112 215/1/215 214/1/214
f  214/1/214 105/1/105 112/1/112
f  118/1/118 216/1/216 215/1/215
f  217/1/217 4/1/4 3/1/3
f  3/1/3 120/1/120 217/1/217
f  218/1/218 16/1/16 4/1/4
f  219/1/219 25/1/25 16/1/16
f  16/1/16 218/1/218 219/1/219
f  25/1/25 219/1/219 220/1/220
f  221/1/221 41/1/41 33/1/33
f  33/1/33 220/1/220 221/1/221
f  222/1/222 48/1/48 41/1/41
f  223/1/223 55/1/55 48/1/48
f  224/1/224 217/1/217 120/1/120
f  225/1/225 218/1/218 217/1/217
f  217/1/217 224/1/224 225/1/225
f  226/1/226 220/1/220 219/1/219
f  219/1/219 227/1/227 226/1/226
f  228/1/228 221/1/221 220/1/220
f  220/1/220 226/1/226 228/1/228
f  229/1/229 222/1/222 221/1/221
f  222/1/222 229/1/229 230/1/230
f  231/1/231 224/1/224 122/1/122
f  122/1/122 124/1/124 231/1/231
f  232/1/232 225/1/225 224/1/224
f  224/1/224 231/1/231 232/1/232
f  233/1/233 227/1/227 225/1/225
f  225/1/225 232/1/232 233/1/233
f  234/1/234 226/1/226 227/1/227
f  227/1/227 233/1/233 234/1/234
f  226/1/226 234/1/234 235/1/235
f  236/1/236 229/1/229 228/1/228
f  228/1/228 235/1/235 236/1/236
f  237/1/237 230/1/230 229/1/229
f  229/1/229 236/1/236 237/1/237
f  238/1/238 231/1/231 124/1/124
f  124/1/124 126/1/126 238/1/238
f  239/1/239 232/1/232 231/1/231
f  240/1/240 233/1/233 232/1/232
f  232/1/232 239/1/239 240/1/240
f  241/1/241 234/1/234 233/1/233
f  233/1/233 240/1/240 241/1/241
f  242/1/242 235/1/235 234/1/234
f  234/1/234 241/1/241 242/1/242
f  243/1/243 236/1/236 235/1/235
f  235/1/235 242/1/242 243/1/243
f  244/1/244 237/1/237 236/1/236
f  236/1/236 243/1/243 244/1/244
f  245/1/245 238/1/238 126/1/126
f  126/1/126 128/1/128 245/1/245
f  246/1/246 239/1/239 238/1/238
f  247/1/247 240/1/240 239/1/239
f  239/1/239 246/1/246 247/1/247
f  248/1/248 241/1/241 240/1/240
f  240/1/240 247/1/247 248/1/248
f  241/1/241 248/1/248 249/1/249
f  242/1/242 249/1/249 250/1/250
f  251/1/251 244/1/244 243/1/243
f  243/1/243 250/1/250 251/1/251
f  245/1/245 252/1/252 253/1/253
f  254/1/254 247/1/247 246/1/246
f  246/1/246 253/1/253 254/1/254
f  255/1/255 248/1/248 247/1/247
f  256/1/256 249/1/249 248/1/248
f  248/1/248 255/1/255 256/1/256
f  257/1/257 250/1/250 249/1/249
f  249/1/249 256/1/256 257/1/257
f  258/1/258 251/1/251 250/1/250
f  250/1/250 257/1/257 258/1/258
f  169/1/169 252/1/252 130/1/130
f  130/1/130 132/1/132 169/1/169
f  173/1/173 253/1/253 252/1/252
f  252/1/252 169/1/169 173/1/173
f  172/1/172 254/1/254 253/1/253
f  253/1/253 173/1/173 172/1/172
f  174/1/174 255/1/255 254/1/254
f  254/1/254 172/1/172 174/1/174
f  179/1/179 256/1/256 255/1/255
f  178/1/178 257/1/257 256/1/256
f  256/1/256 179/1/179 178/1/178
f  181/1/181 258/1/258 257/1/257
f  257/1/257 178/1/178 181/1/181
f  259/1/259 56/1/56 55/1/55
f  55/1/55 223/1/223 259/1/259
f  260/1/260 57/1/57 56/1/56
f  56/1/56 259/1/259 260/1/260
f  261/1/261 58/1/58 57/1/57
f  57/1/57 260/1/260 261/1/261
f  262/1/262 59/1/59 58/1/58
f  58/1/58 261/1/261 262/1/262
f  263/1/263 60/1/60 59/1/59
f  59/1/59 262/1/262 263/1/263
f  60/1/60 263/1/263 264/1/264
f  265/1/265 62/1/62 61/1/61
f  61/1/61 264/1/264 265/1/265
f  266/1/266 259/1/259 223/1/223
f  223/1/223 230/1/230 266/1/266
f  267/1/267 260/1/260 259/1/259
f  259/1/259 266/1/266 267/1/267
f  268/1/268 261/1/261 260/1/260
f  260/1/260 267/1/267 268/1/268
f  269/1/269 262/1/262 261/1/261
f  261/1/261 268/1/268 269/1/269
f  270/1/270 263/1/263 262/1/262
f  262/1/262 269/1/269 270/1/270
f  271/1/271 264/1/264 263/1/263
f  263/1/263 270/1/270 271/1/271
f  264/1/264 271/1/271 113/1/113
f  272/1/272 266/1/266 230/1/230
f  230/1/230 237/1/237 272/1/272
f  273/1/273 267/1/267 266/1/266
f  266/1/266 272/1/272 273/1/273
f  274/1/274 268/1/268 267/1/267
f  275/1/275 269/1/269 268/1/268
f  268/1/268 274/1/274 275/1/275
f  276/1/276 270/1/270 269/1/269
f  269/1/269 275/1/275 276/1/276
f  270/1/270 276/1/276 277/1/277
f  237/1/237 244/1/244 278/1/278
f  272/1/272 278/1/278 279/1/279
f  280/1/280 274/1/274 273/1/273
f  281/1/281 275/1/275 274/1/274
f  274/1/274 280/1/280 281/1/281
f  282/1/282 276/1/276 275/1/275
f  275/1/275 281/1/281 282/1/282
f  283/1/283 277/1/277 276/1/276
f  276/1/276 282/1/282 283/1/283
f  284/1/284 278/1/278 244/1/244
f  285/1/285 279/1/279 278/1/278
f  278/1/278 284/1/284 285/1/285
f  286/1/286 280/1/280 279/1/279
f  279/1/279 285/1/285 286/1/286
f  287/1/287 281/1/281 280/1/280
f  280/1/280 286/1/286 287/1/287
f  288/1/288 282/1/282 281/1/281
f  281/1/281 287/1/287 288/1/288
f  289/1/289 283/1/283 282/1/282
f  282/1/282 288/1/288 289/1/289
f  116/1/116 115/1/115 283/1/283
f  283/1/283 289/1/289 116/1/116
f  290/1/290 284/1/284 251/1/251
f  251/1/251 258/1/258 290/1/290
f  291/1/291 285/1/285 284/1/284
f  284/1/284 290/1/290 291/1/291
f  292/1/292 286/1/286 285/1/285
f  285/1/285 291/1/291 292/1/292
f  293/1/293 287/1/287 286/1/286
f  286/1/286 292/1/292 293/1/293
f  294/1/294 288/1/288 287/1/287
f  287/1/287 293/1/293 294/1/294
f  288/1/288 294/1/294 295/1/295
f  117/1/117 116/1/116 289/1/289
f  289/1/289 295/1/295 117/1/117
f  180/1/180 290/1/290 258/1/258
f  258/1/258 181/1/181 180/1/180
f  188/1/188 291/1/291 290/1/290
f  290/1/290 180/1/180 188/1/188
f  195/1/195 292/1/292 291/1/291
f  291/1/291 188/1/188 195/1/195
f  201/1/201 293/1/293 292/1/292
f  292/1/292 195/1/195 201/1/201
f  209/1/209 294/1/294 293/1/293
f  293/1/293 201/1/201 209/1/209
f  216/1/216 295/1/295 294/1/294
f  294/1/294 209/1/209 216/1/216
f  118/1/118 117/1/117 295/1/295
f  295/1/295 216/1/216 118/1/118

# Mesh '' with 116 faces
usemtl material0
f  8/1/8 7/1/7 9/1/9
f  11/1/11 14/1/14 10/1/10
f  15/1/15 65/1/65 13/1/13
f  17/1/17 1/1/1 4/1/4
f  1/1/1 17/1/17 18/1/18
f  26/1/26 18/1/18 17/1/17
f  21/1/21 29/1/29 30/1/30
f  22/1/22 30/1/30 31/1/31
f  42/1/42 34/1/34 32/1/32
f  49/1/49 40/1/40 41/1/41
f  54/1/54 46/1/46 45/1/45
f  296/1/296 47/1/47 46/1/46
f  46/1/46 54/1/54 296/1/296
f  56/1/56 49/1/49 48/1/48
f  49/1/49 56/1/56 57/1/57
f  52/1/52 59/1/59 60/1/60
f  62/1/62 296/1/296 54/1/54
f  83/1/83 76/1/76 73/1/73
f  73/1/73 72/1/72 83/1/83
f  76/1/76 83/1/83 74/1/74
f  72/1/72 81/1/81 82/1/82
f  85/1/85 77/1/77 23/1/23
f  87/1/87 79/1/79 78/1/78
f  88/1/88 80/1/80 79/1/79
f  89/1/89 81/1/81 80/1/80
f  81/1/81 89/1/89 90/1/90
f  92/1/92 85/1/85 31/1/31
f  85/1/85 92/1/92 93/1/93
f  94/1/94 87/1/87 86/1/86
f  88/1/88 95/1/95 96/1/96
f  98/1/98 90/1/90 89/1/89
f  89/1/89 96/1/96 98/1/98
f  100/1/100 93/1/93 92/1/92
f  94/1/94 101/1/101 102/1/102
f  103/1/103 96/1/96 95/1/95
f  96/1/96 103/1/103 104/1/104
f  47/1/47 296/1/296 106/1/106
f  107/1/107 100/1/100 99/1/99
f  111/1/111 104/1/104 103/1/103
f  112/1/112 105/1/105 104/1/104
f  265/1/265 106/1/106 296/1/296
f  296/1/296 62/1/62 265/1/265
f  106/1/106 265/1/265 113/1/113
f  128/1/128 127/1/127 129/1/129
f  2/1/2 6/1/6 133/1/133
f  127/1/127 137/1/137 138/1/138
f  139/1/139 131/1/131 129/1/129
f  143/1/143 136/1/136 135/1/135
f  146/1/146 138/1/138 137/1/137
f  137/1/137 144/1/144 146/1/146
f  155/1/155 148/1/148 147/1/147
f  14/1/14 13/1/13 161/1/161
f  156/1/156 163/1/163 164/1/164
f  158/1/158 165/1/165 166/1/166
f  67/1/67 162/1/162 161/1/161
f  69/1/69 163/1/163 162/1/162
f  71/1/71 164/1/164 163/1/163
f  76/1/76 166/1/166 165/1/165
f  168/1/168 169/1/169 132/1/132
f  170/1/170 173/1/173 169/1/169
f  175/1/175 174/1/174 172/1/172
f  172/1/172 171/1/171 175/1/175
f  176/1/176 179/1/179 174/1/174
f  170/1/170 183/1/183 184/1/184
f  185/1/185 175/1/175 171/1/171
f  187/1/187 177/1/177 176/1/176
f  192/1/192 185/1/185 184/1/184
f  193/1/193 186/1/186 185/1/185
f  187/1/187 194/1/194 195/1/195
f  145/1/145 153/1/153 196/1/196
f  204/1/204 190/1/190 189/1/189
f  189/1/189 196/1/196 204/1/204
f  190/1/190 204/1/204 197/1/197
f  196/1/196 202/1/202 203/1/203
f  206/1/206 198/1/198 197/1/197
f  160/1/160 167/1/167 210/1/210
f  211/1/211 203/1/203 202/1/202
f  203/1/203 211/1/211 212/1/212
f  206/1/206 213/1/213 214/1/214
f  207/1/207 214/1/214 215/1/215
f  167/1/167 75/1/75 74/1/74
f  91/1/91 212/1/212 211/1/211
f  211/1/211 84/1/84 91/1/91
f  215/1/215 112/1/112 118/1/118
f  4/1/4 217/1/217 218/1/218
f  220/1/220 33/1/33 25/1/25
f  41/1/41 221/1/221 222/1/222
f  48/1/48 222/1/222 223/1/223
f  120/1/120 122/1/122 224/1/224
f  227/1/227 219/1/219 218/1/218
f  218/1/218 225/1/225 227/1/227
f  221/1/221 228/1/228 229/1/229
f  230/1/230 223/1/223 222/1/222
f  235/1/235 228/1/228 226/1/226
f  231/1/231 238/1/238 239/1/239
f  238/1/238 245/1/245 246/1/246
f  249/1/249 242/1/242 241/1/241
f  250/1/250 243/1/243 242/1/242
f  252/1/252 245/1/245 128/1/128
f  128/1/128 130/1/130 252/1/252
f  253/1/253 246/1/246 245/1/245
f  247/1/247 254/1/254 255/1/255
f  255/1/255 174/1/174 179/1/179
f  264/1/264 61/1/61 60/1/60
f  113/1/113 265/1/265 264/1/264
f  267/1/267 273/1/273 274/1/274
f  277/1/277 271/1/271 270/1/270
f  114/1/114 113/1/113 271/1/271
f  271/1/271 277/1/277 114/1/114
f  278/1/278 272/1/272 237/1/237
f  279/1/279 273/1/273 272/1/272
f  273/1/273 279/1/279 280/1/280
f  115/1/115 114/1/114 277/1/277
f  277/1/277 283/1/283 115/1/115
f  244/1/244 251/1/251 284/1/284
f  295/1/295 289/1/289 288/1/288

